<svg xmlns="http://www.w3.org/2000/svg" viewBox="0 0 820 820" width="820" height="820">
    <path d="M30,30.1l9.8,9.8m0-9.8L30,39.8M79.6,30l9.9,9.8m0-9.8-9.9,9.8M30,79.8l9.8,9.9m0-9.9L30,89.6m49.6-9.9,9.9,9.9m0-9.9-9.9,9.9m49.7-59.5,9.7,9.7m0-9.8-9.8,9.8m0,39.8,9.8,9.9m0-9.9-9.8,9.9M178.8,30l9.8,9.8m0-9.8L179,39.8m0,39.8,9.8,9.9m0-9.9L179,89.5M228.6,30l9.9,9.8m0-9.8-9.9,9.8m0,39.8,9.9,9.9m0-9.9-9.9,9.9M278.3,30l9.7,9.8m0-9.8-9.8,9.8m0,39.8,9.8,9.9m0-9.9-9.8,9.9M30,129.3l9.8,9.8m0-9.8L30,139.2m49.6-9.8,9.9,9.8m0-9.8-9.9,9.8m49.7-9.8,9.8,9.8m0-9.8-9.8,9.8m49.6-9.8,9.8,9.8m0-9.8-9.8,9.8m49.6-9.8,9.9,9.8m0-9.8-9.9,9.8m49.7-9.8,9.8,9.8m0-9.8-9.8,9.8M30,179l9.8,9.8m0-9.8L30,188.8M79.6,179l9.9,9.8m0-9.8-9.9,9.8m49.7-9.8,9.8,9.8m0-9.8-9.8,9.8m49.6-9.8,9.8,9.8m0-9.8-9.7,9.8m49.6-9.8,9.9,9.8m0-9.8-9.9,9.8m49.7-9.8,9.8,9.8m0-9.8-9.8,9.8M30,228.6l9.8,9.8m0-9.8L30,238.4m49.6-9.8,9.9,9.8m0-9.8-9.9,9.8m49.7-9.8,9.8,9.8m0-9.8-9.8,9.8m49.6-9.8,9.8,9.8m0-9.8-9.8,9.8m49.6-9.8,9.9,9.8m0-9.8-9.9,9.8m49.7-9.8,9.8,9.8m0-9.8-9.8,9.8M30,278.4l9.8,9.8m0-9.8L30,288.1m49.6-9.8,9.9,9.8m0-9.8-9.9,9.8m49.7-9.8,9.8,9.8m0-9.8-9.8,9.8m49.6-9.8,9.8,9.8m0-9.8-9.8,9.8m49.6-9.8,9.9,9.8m0-9.8-9.9,9.8m49.7-9.8,9.8,9.8m0-9.8-9.8,9.8M30,327.8l9.8,9.8m0-9.8L30,337.7m49.6-9.8,9.9,9.8m0-9.8-9.9,9.8m49.7-9.8,9.8,9.8m0-9.8-9.8,9.8m49.6-9.8,9.8,9.8m0-9.8-9.8,9.8m49.6-9.8,9.9,9.8m0-9.8-9.9,9.8m49.7-9.8,9.8,9.8m0-9.8-9.8,9.8M30,377.5l9.8,9.9m0-9.9L30,387.4m49.6-9.9,9.9,9.9m0-9.9-9.9,9.9m49.7-9.9,9.8,9.9m0-9.9-9.8,9.9m49.6-9.9,9.8,9.9m0-9.9-9.8,9.9m49.6-9.9,9.9,9.9m0-9.9-9.9,9.9m49.7-9.9,9.8,9.9m0-9.9-9.8,9.9M30,427.2l9.8,9.8m0-9.8L30,437m49.6-9.8,9.9,9.8m0-9.8L79.6,437m49.7-9.8,9.8,9.8m0-9.8-9.8,9.8m49.6-9.8,9.8,9.8m0-9.8-9.8,9.8m49.6-9.8,9.9,9.8m0-9.8-9.9,9.8m49.7-9.8L288,437m0-9.8-9.8,9.8M30,476.8l9.8,9.8m0-9.8L30,486.6m49.6-9.8,9.9,9.8m0-9.8-9.9,9.8m49.7-9.8,9.8,9.8m0-9.8-9.8,9.8m49.6-9.8,9.8,9.8m0-9.8-9.8,9.8m49.6-9.8,9.9,9.8m0-9.8-9.9,9.8m49.7-9.8,9.8,9.8m0-9.8-9.8,9.8" fill="none" stroke="#e0e0e0" stroke-linecap="round"/>
    <path d="M327.8,30l9.9,9.8m0-9.8-9.9,9.8m0,39.9,9.9,9.9m0-9.9-9.9,9.9m49.7-59.5,9.7,9.7m0-9.8-9.8,9.8m0,39.8,9.8,9.9m0-9.9-9.8,9.9M427,30l9.8,9.8m0-9.8-9.6,9.8m0,39.8,9.8,9.9m0-9.9-9.8,9.9m49.6-9.9,9.9,9.9m0-9.9-9.9,9.9m-149,39.9,9.9,9.8m0-9.8-9.9,9.8m49.7-9.8,9.8,9.8m0-9.8-9.8,9.8m49.6-9.8,9.8,9.8m0-9.8-9.8,9.8m49.6-9.8,9.9,9.8m0-9.8-9.9,9.8M327.8,179l9.9,9.8m0-9.8-9.9,9.8m49.7-9.8,9.8,9.8m0-9.8-9.8,9.8m49.6-9.8,9.8,9.8m0-9.8-9.7,9.8m49.6-9.8,9.9,9.8m0-9.8-9.9,9.8m-149,39.8,9.9,9.8m0-9.8-9.9,9.8m49.7-9.8,9.8,9.8m0-9.8-9.8,9.8m49.6-9.8,9.8,9.8m0-9.8-9.8,9.8m49.6-9.8,9.9,9.8m0-9.8-9.9,9.8M327.8,278.3l9.9,9.8m0-9.8-9.9,9.8m49.7-9.8,9.8,9.8m0-9.8-9.8,9.8m49.6-9.8,9.8,9.8m0-9.8-9.8,9.8m49.6-9.8,9.9,9.8m0-9.8-9.9,9.8M327.8,327.9l9.9,9.8m0-9.8-9.9,9.8m49.7-9.8,9.8,9.8m0-9.8-9.8,9.8m49.6-9.8,9.8,9.8m0-9.8-9.8,9.8m49.6-9.8,9.9,9.8m0-9.8-9.9,9.8M327.8,377.5l9.9,9.9m0-9.9-9.9,9.9m49.7-9.9,9.8,9.9m0-9.9-9.8,9.9m49.6-9.9,9.8,9.9m0-9.9-9.8,9.9m49.6-9.9,9.9,9.9m0-9.9-9.9,9.9M327.8,427.2l9.9,9.8m0-9.8-9.9,9.8m49.7-9.8,9.8,9.8m0-9.8-9.8,9.8m49.6-9.8,9.8,9.8m0-9.8-9.8,9.8m49.6-9.8,9.9,9.8m0-9.8-9.9,9.8M327.8,476.8l9.9,9.8m0-9.8-9.9,9.8m49.7-9.8,9.8,9.8m0-9.8-9.8,9.8m49.6-9.8,9.8,9.8m0-9.8-9.8,9.8m49.6-9.8,9.9,9.8m0-9.8-9.9,9.8" fill="none" stroke="#e0e0e0" stroke-linecap="round"/>
    <path d="M526.3,30l9.9,9.8m0-9.8-9.9,9.8m-50-9.8,9.9,9.8m0-9.8-9.9,9.8m50,39.9,9.9,9.9m0-9.9-9.9,9.9M576,30.1l9.7,9.7m0-9.8-9.8,9.8m0,39.8,9.8,9.9m0-9.9-9.8,9.9M625.5,30l9.8,9.8m0-9.8-9.6,9.8m0,39.8,9.8,9.9m0-9.9-9.8,9.9M675.3,30l9.9,9.8m0-9.8-9.9,9.8m0,39.8,9.9,9.9m0-9.9-9.9,9.9M725,30l9.7,9.8m0-9.8-9.8,9.8m0,39.8,9.8,9.9m0-9.9-9.8,9.9M526.3,129.4l9.9,9.8m0-9.8-9.9,9.8m49.7-9.8,9.8,9.8m0-9.8-9.8,9.8m49.6-9.8,9.8,9.8m0-9.8-9.8,9.8m49.6-9.8,9.9,9.8m0-9.8-9.9,9.8m49.7-9.8,9.8,9.8m0-9.8-9.8,9.8M526.3,179l9.9,9.8m0-9.8-9.9,9.8M576,179l9.8,9.8m0-9.8-9.8,9.8m49.6-9.8,9.8,9.8m0-9.8-9.7,9.8m49.6-9.8,9.9,9.8m0-9.8-9.9,9.8M725,179l9.8,9.8m0-9.8-9.8,9.8M526.3,228.6l9.9,9.8m0-9.8-9.9,9.8m49.7-9.8,9.8,9.8m0-9.8-9.8,9.8m49.6-9.8,9.8,9.8m0-9.8-9.8,9.8m49.6-9.8,9.9,9.8m0-9.8-9.9,9.8m49.7-9.8,9.8,9.8m0-9.8-9.8,9.8M526.3,278.3l9.9,9.8m0-9.8-9.9,9.8m49.7-9.8,9.8,9.8m0-9.8-9.8,9.8m49.6-9.8,9.8,9.8m0-9.8-9.8,9.8m49.6-9.8,9.9,9.8m0-9.8-9.9,9.8m49.7-9.8,9.8,9.8m0-9.8-9.8,9.8M526.3,327.9l9.9,9.8m0-9.8-9.9,9.8m49.7-9.8,9.8,9.8m0-9.8-9.8,9.8m49.6-9.8,9.8,9.8m0-9.8-9.8,9.8m49.6-9.8,9.9,9.8m0-9.8-9.9,9.8m49.7-9.8,9.8,9.8m0-9.8-9.8,9.8M526.3,377.5l9.9,9.9m0-9.9-9.9,9.9m49.7-9.9,9.8,9.9m0-9.9-9.8,9.9m49.6-9.9,9.8,9.9m0-9.9-9.8,9.9m49.6-9.9,9.9,9.9m0-9.9-9.9,9.9m49.7-9.9,9.8,9.9m0-9.9-9.8,9.9M526.3,427.2l9.9,9.8m0-9.8-9.9,9.8m49.7-9.8,9.8,9.8m0-9.8L576,437m49.6-9.8,9.8,9.8m0-9.8-9.8,9.8m49.6-9.8,9.9,9.8m0-9.8-9.9,9.8m49.7-9.8,9.8,9.8m0-9.8-9.8,9.8M526.3,476.8l9.9,9.8m0-9.8-9.9,9.8m49.7-9.8,9.8,9.8m0-9.8-9.8,9.8m49.6-9.8,9.8,9.8m0-9.8-9.8,9.8m49.6-9.8,9.9,9.8m0-9.8-9.9,9.8m49.7-9.8,9.8,9.8m0-9.8-9.8,9.8" fill="none" stroke="#e0e0e0" stroke-linecap="round"/>
    <path d="M774.5,30l9.9,9.8m0-9.8-9.9,9.8m0,39.9,9.9,9.9m0-9.9-9.9,9.9m0,39.8,9.9,9.8m0-9.8-9.9,9.8m0,39.8,9.9,9.8m0-9.8-9.9,9.8m0,39.8,9.9,9.8m0-9.8-9.9,9.8m0,39.9,9.9,9.8m0-9.8-9.9,9.8m0,39.8,9.9,9.8m0-9.8-9.9,9.8m0,39.8,9.9,9.9m0-9.9-9.9,9.9m0,39.8,9.9,9.8m0-9.8-9.9,9.8m0,39.8,9.9,9.8m0-9.8-9.9,9.8" fill="none" stroke="#e0e0e0" stroke-linecap="round"/>
    <path d="M30,526.6l9.8,9.9m0-9.9L30,536.4m49.6-9.9,9.9,9.9m0-9.9-9.9,9.9m49.6-10,9.8,9.9m0-9.9-9.8,9.9m49.8-9.9,9.8,9.9m0-9.9-9.8,9.9m49.6-9.9,9.9,9.9m0-9.9-9.9,9.9m49.6-9.9,9.8,9.9m0-9.9-9.8,9.9M30,576.1l9.8,9.8m0-9.8L30,586m49.6-9.8,9.9,9.8m0-9.8L79.6,586m49.7-9.8,9.8,9.8m0-9.8-9.8,9.8m49.6-9.8,9.8,9.8m0-9.8-9.8,9.8m49.6-9.8,9.9,9.8m0-9.8-9.9,9.8m49.7-9.8L288,586m0-9.8-9.8,9.8M30,625.8l9.8,9.8m0-9.8L30,635.6m49.6-9.8,9.9,9.8m0-9.8-9.9,9.8m49.7-9.8,9.8,9.8m0-9.8-9.8,9.8m49.6-9.8,9.8,9.8m0-9.8-9.7,9.8m49.6-9.8,9.9,9.8m0-9.8-9.9,9.8m49.7-9.8,9.8,9.8m0-9.8-9.8,9.8M30,675.4l9.8,9.8m0-9.8L30,685.2m49.6-9.8,9.9,9.8m0-9.8-9.9,9.8m49.7-9.8,9.8,9.8m0-9.8-9.8,9.8m49.6-9.8,9.8,9.8m0-9.8-9.8,9.8m49.6-9.8,9.9,9.8m0-9.8-9.9,9.8m49.7-9.8,9.8,9.8m0-9.8-9.8,9.8M30,725.2l9.8,9.8m0-9.8L30,734.9m49.6-9.8,9.9,9.8m0-9.8-9.9,9.8m49.7-9.8,9.8,9.8m0-9.8-9.8,9.8m49.6-9.8,9.8,9.8m0-9.8-9.8,9.8m49.6-9.8,9.9,9.8m0-9.8-9.9,9.8m49.7-9.8,9.8,9.8m0-9.8-9.8,9.8M30,774.6l9.8,9.8m0-9.8L30,784.5m49.6-9.8,9.9,9.8m0-9.8-9.9,9.8m49.7-9.8,9.8,9.8m0-9.8-9.8,9.8m49.6-9.8,9.8,9.8m0-9.8-9.8,9.8m49.6-9.8,9.9,9.8m0-9.8-9.9,9.8m49.7-9.8,9.8,9.8m0-9.8-9.8,9.8" fill="none" stroke="#e0e0e0" stroke-linecap="round"/>
    <path d="M327.8,526.5l9.9,9.9m0-9.9-9.9,9.9m49.6-10,9.8,9.9m0-9.9-9.8,9.9m49.8-9.9,9.8,9.9m0-9.9-9.8,9.9m49.6-9.9,9.9,9.9m0-9.9-9.9,9.9m-149,39.9,9.9,9.8m0-9.8-9.9,9.8m49.7-9.8,9.8,9.8m0-9.8-9.8,9.8m49.6-9.8,9.8,9.8m0-9.8-9.8,9.8m49.6-9.8,9.9,9.8m0-9.8-9.9,9.8M327.8,625.8l9.9,9.8m0-9.8-9.9,9.8m49.7-9.8,9.8,9.8m0-9.8-9.8,9.8m49.6-9.8,9.8,9.8m0-9.8-9.7,9.8m49.6-9.8,9.9,9.8m0-9.8-9.9,9.8m-149,39.8,9.9,9.8m0-9.8-9.9,9.8m49.7-9.8,9.8,9.8m0-9.8-9.8,9.8m49.6-9.8,9.8,9.8m0-9.8-9.8,9.8m49.6-9.8,9.9,9.8m0-9.8-9.9,9.8M327.8,725.1l9.9,9.8m0-9.8-9.9,9.8m49.7-9.8,9.8,9.8m0-9.8-9.8,9.8m49.6-9.8,9.8,9.8m0-9.8-9.8,9.8m49.6-9.8,9.9,9.8m0-9.8-9.9,9.8M327.8,774.7l9.9,9.8m0-9.8-9.9,9.8m49.7-9.8,9.8,9.8m0-9.8-9.8,9.8m49.6-9.8,9.8,9.8m0-9.8-9.8,9.8m49.6-9.8,9.9,9.8m0-9.8-9.9,9.8" fill="none" stroke="#e0e0e0" stroke-linecap="round"/>
    <path d="M526.3,526.5l9.9,9.9m0-9.9-9.9,9.9m49.6-10,9.8,9.9m0-9.9-9.8,9.9m49.8-9.9,9.8,9.9m0-9.9-9.8,9.9m49.6-9.9,9.9,9.9m0-9.9-9.9,9.9m49.6-9.9,9.8,9.9m0-9.9-9.8,9.9M526.3,576.2l9.9,9.8m0-9.8-9.9,9.8m49.7-9.8,9.8,9.8m0-9.8L576,586m49.6-9.8,9.8,9.8m0-9.8-9.8,9.8m49.6-9.8,9.9,9.8m0-9.8-9.9,9.8m49.7-9.8,9.8,9.8m0-9.8-9.8,9.8M526.3,625.8l9.9,9.8m0-9.8-9.9,9.8m49.7-9.8,9.8,9.8m0-9.8-9.8,9.8m49.6-9.8,9.8,9.8m0-9.8-9.7,9.8m49.6-9.8,9.9,9.8m0-9.8-9.9,9.8m49.7-9.8,9.8,9.8m0-9.8-9.8,9.8M526.3,675.4l9.9,9.8m0-9.8-9.9,9.8m49.7-9.8,9.8,9.8m0-9.8-9.8,9.8m49.6-9.8,9.8,9.8m0-9.8-9.8,9.8m49.6-9.8,9.9,9.8m0-9.8-9.9,9.8m49.7-9.8,9.8,9.8m0-9.8-9.8,9.8M526.3,725.1l9.9,9.8m0-9.8-9.9,9.8m49.7-9.8,9.8,9.8m0-9.8-9.8,9.8m49.6-9.8,9.8,9.8m0-9.8-9.8,9.8m49.6-9.8,9.9,9.8m0-9.8-9.9,9.8m49.7-9.8,9.8,9.8m0-9.8-9.8,9.8M526.3,774.7l9.9,9.8m0-9.8-9.9,9.8m49.7-9.8,9.8,9.8m0-9.8-9.8,9.8m49.6-9.8,9.8,9.8m0-9.8-9.8,9.8m49.6-9.8,9.9,9.8m0-9.8-9.9,9.8m49.7-9.8,9.8,9.8m0-9.8-9.8,9.8" fill="none" stroke="#e0e0e0" stroke-linecap="round"/>
    <path d="M774.5,526.5l9.9,9.9m0-9.9-9.9,9.9m0,39.8,9.9,9.8m0-9.8-9.9,9.8m0,39.8,9.9,9.8m0-9.8-9.9,9.8m0,39.8,9.9,9.8m0-9.8-9.9,9.8m0,39.9,9.9,9.8m0-9.8-9.9,9.8m0,39.8,9.9,9.8m0-9.8-9.9,9.8" fill="none" stroke="#e0e0e0" stroke-linecap="round"/>
</svg>
