<svg xmlns="http://www.w3.org/2000/svg" viewBox="0 0 1900 680" width="1900" height="680">
    <path fill="#233a64" d="M0 0h1051v650H0z"/>
    <path fill="none" stroke="#354a70" stroke-linecap="round" d="M20 20l9.9 9.9m0-9.9L20 29.9M70 20l9.9 9.9m0-9.9L70 29.9M20 70l9.9 9.9m0-9.9L20 79.9M70 70l9.9 9.9m0-9.9L70 79.9M120 20l9.9 9.9m0-9.9l-9.9 9.9m0 40.1l9.9 9.9m0-9.9l-9.9 9.9M170 20l9.9 9.9m0-9.9l-9.9 9.9m0 40.1l9.9 9.9m0-9.9l-9.9 9.9M220 20l9.9 9.9m0-9.9l-9.9 9.9m0 40.1l9.9 9.9m0-9.9l-9.9 9.9M270 20l9.9 9.9m0-9.9l-9.9 9.9m0 40.1l9.9 9.9m0-9.9l-9.9 9.9M20 120l9.9 9.9m0-9.9l-9.9 9.9m50-9.9l9.9 9.9m0-9.9l-9.9 9.9m50-9.9l9.9 9.9m0-9.9l-9.9 9.9m50-9.9l9.9 9.9m0-9.9l-9.9 9.9m50-9.9l9.9 9.9m0-9.9l-9.9 9.9m50-9.9l9.9 9.9m0-9.9l-9.9 9.9M20 170l9.9 9.9m0-9.9l-9.9 9.9m50-9.9l9.9 9.9m0-9.9l-9.9 9.9m50-9.9l9.9 9.9m0-9.9l-9.9 9.9m50-9.9l9.9 9.9m0-9.9l-9.9 9.9m50-9.9l9.9 9.9m0-9.9l-9.9 9.9m50-9.9l9.9 9.9m0-9.9l-9.9 9.9M20 220l9.9 9.9m0-9.9l-9.9 9.9m50-9.9l9.9 9.9m0-9.9l-9.9 9.9m50-9.9l9.9 9.9m0-9.9l-9.9 9.9m50-9.9l9.9 9.9m0-9.9l-9.9 9.9m50-9.9l9.9 9.9m0-9.9l-9.9 9.9m50-9.9l9.9 9.9m0-9.9l-9.9 9.9M20 270l9.9 9.9m0-9.9l-9.9 9.9m50-9.9l9.9 9.9m0-9.9l-9.9 9.9m50-9.9l9.9 9.9m0-9.9l-9.9 9.9m50-9.9l9.9 9.9m0-9.9l-9.9 9.9m50-9.9l9.9 9.9m0-9.9l-9.9 9.9m50-9.9l9.9 9.9m0-9.9l-9.9 9.9M20 320l9.9 9.9m0-9.9l-9.9 9.9m50-9.9l9.9 9.9m0-9.9l-9.9 9.9m50-9.9l9.9 9.9m0-9.9l-9.9 9.9m50-9.9l9.9 9.9m0-9.9l-9.9 9.9m50-9.9l9.9 9.9m0-9.9l-9.9 9.9m50-9.9l9.9 9.9m0-9.9l-9.9 9.9M20 370l9.9 9.9m0-9.9l-9.9 9.9m50-9.9l9.9 9.9m0-9.9l-9.9 9.9m50-9.9l9.9 9.9m0-9.9l-9.9 9.9m50-9.9l9.9 9.9m0-9.9l-9.9 9.9m50-9.9l9.9 9.9m0-9.9l-9.9 9.9m50-9.9l9.9 9.9m0-9.9l-9.9 9.9M20 420l9.9 9.9m0-9.9l-9.9 9.9m50-9.9l9.9 9.9m0-9.9l-9.9 9.9m50-9.9l9.9 9.9m0-9.9l-9.9 9.9m50-9.9l9.9 9.9m0-9.9l-9.9 9.9m50-9.9l9.9 9.9m0-9.9l-9.9 9.9m50-9.9l9.9 9.9m0-9.9l-9.9 9.9M20 470l9.9 9.9m0-9.9l-9.9 9.9m50-9.9l9.9 9.9m0-9.9l-9.9 9.9m50-9.9l9.9 9.9m0-9.9l-9.9 9.9m50-9.9l9.9 9.9m0-9.9l-9.9 9.9m50-9.9l9.9 9.9m0-9.9l-9.9 9.9m50-9.9l9.9 9.9m0-9.9l-9.9 9.9M20 520l9.9 9.9m0-9.9l-9.9 9.9m50-9.9l9.9 9.9m0-9.9l-9.9 9.9m50-9.9l9.9 9.9m0-9.9l-9.9 9.9m50-9.9l9.9 9.9m0-9.9l-9.9 9.9m50-9.9l9.9 9.9m0-9.9l-9.9 9.9m50-9.9l9.9 9.9m0-9.9l-9.9 9.9M20 570l9.9 9.9m0-9.9l-9.9 9.9m50-9.9l9.9 9.9m0-9.9l-9.9 9.9m50-9.9l9.9 9.9m0-9.9l-9.9 9.9m50-9.9l9.9 9.9m0-9.9l-9.9 9.9m50-9.9l9.9 9.9m0-9.9l-9.9 9.9m50-9.9l9.9 9.9m0-9.9l-9.9 9.9M20 620l9.9 9.9m0-9.9l-9.9 9.9m50-9.9l9.9 9.9m0-9.9l-9.9 9.9m50-9.9l9.9 9.9m0-9.9l-9.9 9.9m50-9.9l9.9 9.9m0-9.9l-9.9 9.9m50-9.9l9.9 9.9m0-9.9l-9.9 9.9m50-9.9l9.9 9.9m0-9.9l-9.9 9.9M320.2 20l9.9 9.9m0-9.9l-9.9 9.9m0 40.1l9.9 9.9m0-9.9l-9.9 9.9m50-59.9l9.9 9.9m0-9.9l-9.9 9.9m0 40.1l9.9 9.9m0-9.9l-9.9 9.9m50-59.9l9.9 9.9m0-9.9l-9.9 9.9m0 40.1l9.9 9.9m0-9.9l-9.9 9.9m50-59.9l9.9 9.9m0-9.9l-9.9 9.9m0 40.1l9.9 9.9m0-9.9l-9.9 9.9m50-59.9l9.9 9.9m0-9.9l-9.9 9.9m0 40.1l9.9 9.9m0-9.9l-9.9 9.9m-200 40.1l9.9 9.9m0-9.9l-9.9 9.9m50-9.9l9.9 9.9m0-9.9l-9.9 9.9m50-9.9l9.9 9.9m0-9.9l-9.9 9.9m50-9.9l9.9 9.9m0-9.9l-9.9 9.9m50-9.9l9.9 9.9m0-9.9l-9.9 9.9m-200 40.1l9.9 9.9m0-9.9l-9.9 9.9m50-9.9l9.9 9.9m0-9.9l-9.9 9.9m50-9.9l9.9 9.9m0-9.9l-9.9 9.9m50-9.9l9.9 9.9m0-9.9l-9.9 9.9m50-9.9l9.9 9.9m0-9.9l-9.9 9.9m-200 40.1l9.9 9.9m0-9.9l-9.9 9.9m50-9.9l9.9 9.9m0-9.9l-9.9 9.9m50-9.9l9.9 9.9m0-9.9l-9.9 9.9m50-9.9l9.9 9.9m0-9.9l-9.9 9.9m50-9.9l9.9 9.9m0-9.9l-9.9 9.9m-200 40.1l9.9 9.9m0-9.9l-9.9 9.9m50-9.9l9.9 9.9m0-9.9l-9.9 9.9m50-9.9l9.9 9.9m0-9.9l-9.9 9.9m50-9.9l9.9 9.9m0-9.9l-9.9 9.9m50-9.9l9.9 9.9m0-9.9l-9.9 9.9m-200 40.1l9.9 9.9m0-9.9l-9.9 9.9m50-9.9l9.9 9.9m0-9.9l-9.9 9.9m50-9.9l9.9 9.9m0-9.9l-9.9 9.9m50-9.9l9.9 9.9m0-9.9l-9.9 9.9m50-9.9l9.9 9.9m0-9.9l-9.9 9.9m-200 40.1l9.9 9.9m0-9.9l-9.9 9.9m50-9.9l9.9 9.9m0-9.9l-9.9 9.9m50-9.9l9.9 9.9m0-9.9l-9.9 9.9m50-9.9l9.9 9.9m0-9.9l-9.9 9.9m50-9.9l9.9 9.9m0-9.9l-9.9 9.9m-200 40.1l9.9 9.9m0-9.9l-9.9 9.9m50-9.9l9.9 9.9m0-9.9l-9.9 9.9m50-9.9l9.9 9.9m0-9.9l-9.9 9.9m50-9.9l9.9 9.9m0-9.9l-9.9 9.9m50-9.9l9.9 9.9m0-9.9l-9.9 9.9m-200 40.1l9.9 9.9m0-9.9l-9.9 9.9m50-9.9l9.9 9.9m0-9.9l-9.9 9.9m50-9.9l9.9 9.9m0-9.9l-9.9 9.9m50-9.9l9.9 9.9m0-9.9l-9.9 9.9m50-9.9l9.9 9.9m0-9.9l-9.9 9.9m-200 40.1l9.9 9.9m0-9.9l-9.9 9.9m50-9.9l9.9 9.9m0-9.9l-9.9 9.9m50-9.9l9.9 9.9m0-9.9l-9.9 9.9m50-9.9l9.9 9.9m0-9.9l-9.9 9.9m50-9.9l9.9 9.9m0-9.9l-9.9 9.9m-200 40.1l9.9 9.9m0-9.9l-9.9 9.9m50-9.9l9.9 9.9m0-9.9l-9.9 9.9m50-9.9l9.9 9.9m0-9.9l-9.9 9.9m50-9.9l9.9 9.9m0-9.9l-9.9 9.9m50-9.9l9.9 9.9m0-9.9l-9.9 9.9m-200 40.1l9.9 9.9m0-9.9l-9.9 9.9m50-9.9l9.9 9.9m0-9.9l-9.9 9.9m50-9.9l9.9 9.9m0-9.9l-9.9 9.9m50-9.9l9.9 9.9m0-9.9l-9.9 9.9m50-9.9l9.9 9.9m0-9.9l-9.9 9.9M570.1 20l9.9 9.9m0-9.9l-9.9 9.9m0 40.1l9.9 9.9m0-9.9l-9.9 9.9m50-59.9l9.9 9.9m0-9.9l-9.9 9.9m0 40.1l9.9 9.9m0-9.9l-9.9 9.9m50-59.9l9.9 9.9m0-9.9l-9.9 9.9m0 40.1l9.9 9.9m0-9.9l-9.9 9.9m50-59.9l9.9 9.9m0-9.9l-9.9 9.9m0 40.1l9.9 9.9m0-9.9l-9.9 9.9m50-59.9l9.9 9.9m0-9.9l-9.9 9.9m0 40.1l9.9 9.9m0-9.9l-9.9 9.9m-200 40.1l9.9 9.9m0-9.9l-9.9 9.9m50-9.9l9.9 9.9m0-9.9l-9.9 9.9m50-9.9l9.9 9.9m0-9.9l-9.9 9.9m50-9.9l9.9 9.9m0-9.9l-9.9 9.9m50-9.9l9.9 9.9m0-9.9l-9.9 9.9m-200 40.1l9.9 9.9m0-9.9l-9.9 9.9m50-9.9l9.9 9.9m0-9.9l-9.9 9.9m50-9.9l9.9 9.9m0-9.9l-9.9 9.9m50-9.9l9.9 9.9m0-9.9l-9.9 9.9m50-9.9l9.9 9.9m0-9.9l-9.9 9.9m-200 40.1l9.9 9.9m0-9.9l-9.9 9.9m50-9.9l9.9 9.9m0-9.9l-9.9 9.9m50-9.9l9.9 9.9m0-9.9l-9.9 9.9m50-9.9l9.9 9.9m0-9.9l-9.9 9.9m50-9.9l9.9 9.9m0-9.9l-9.9 9.9m-200 40.1l9.9 9.9m0-9.9l-9.9 9.9m50-9.9l9.9 9.9m0-9.9l-9.9 9.9m50-9.9l9.9 9.9m0-9.9l-9.9 9.9m50-9.9l9.9 9.9m0-9.9l-9.9 9.9m50-9.9l9.9 9.9m0-9.9l-9.9 9.9m-200 40.1l9.9 9.9m0-9.9l-9.9 9.9m50-9.9l9.9 9.9m0-9.9l-9.9 9.9m50-9.9l9.9 9.9m0-9.9l-9.9 9.9m50-9.9l9.9 9.9m0-9.9l-9.9 9.9m50-9.9l9.9 9.9m0-9.9l-9.9 9.9m-200 40.1l9.9 9.9m0-9.9l-9.9 9.9m50-9.9l9.9 9.9m0-9.9l-9.9 9.9m50-9.9l9.9 9.9m0-9.9l-9.9 9.9m50-9.9l9.9 9.9m0-9.9l-9.9 9.9m50-9.9l9.9 9.9m0-9.9l-9.9 9.9m-200 40.1l9.9 9.9m0-9.9l-9.9 9.9m50-9.9l9.9 9.9m0-9.9l-9.9 9.9m50-9.9l9.9 9.9m0-9.9l-9.9 9.9m50-9.9l9.9 9.9m0-9.9l-9.9 9.9m50-9.9l9.9 9.9m0-9.9l-9.9 9.9m-200 40.1l9.9 9.9m0-9.9l-9.9 9.9m50-9.9l9.9 9.9m0-9.9l-9.9 9.9m50-9.9l9.9 9.9m0-9.9l-9.9 9.9m50-9.9l9.9 9.9m0-9.9l-9.9 9.9m50-9.9l9.9 9.9m0-9.9l-9.9 9.9m-200 40.1l9.9 9.9m0-9.9l-9.9 9.9m50-9.9l9.9 9.9m0-9.9l-9.9 9.9m50-9.9l9.9 9.9m0-9.9l-9.9 9.9m50-9.9l9.9 9.9m0-9.9l-9.9 9.9m50-9.9l9.9 9.9m0-9.9l-9.9 9.9m-200 40.1l9.9 9.9m0-9.9l-9.9 9.9m50-9.9l9.9 9.9m0-9.9l-9.9 9.9m50-9.9l9.9 9.9m0-9.9l-9.9 9.9m50-9.9l9.9 9.9m0-9.9l-9.9 9.9m50-9.9l9.9 9.9m0-9.9l-9.9 9.9m-200 40.1l9.9 9.9m0-9.9l-9.9 9.9m50-9.9l9.9 9.9m0-9.9l-9.9 9.9m50-9.9l9.9 9.9m0-9.9l-9.9 9.9m50-9.9l9.9 9.9m0-9.9l-9.9 9.9m50-9.9l9.9 9.9m0-9.9l-9.9 9.9M820.3 20l9.9 9.9m0-9.9l-9.9 9.9m0 40.1l9.9 9.9m0-9.9l-9.9 9.9m50-59.9l9.9 9.9m0-9.9l-9.9 9.9m0 40.1l9.9 9.9m0-9.9l-9.9 9.9m50-59.9l9.9 9.9m0-9.9l-9.9 9.9m0 40.1l9.9 9.9m0-9.9l-9.9 9.9m50-59.9l9.9 9.9m0-9.9l-9.9 9.9m0 40.1l9.9 9.9m0-9.9l-9.9 9.9m50-59.9l9.9 9.9m0-9.9l-9.9 9.9m0 40.1l9.9 9.9m0-9.9l-9.9 9.9m-200 40.1l9.9 9.9m0-9.9l-9.9 9.9m50-9.9l9.9 9.9m0-9.9l-9.9 9.9m50-9.9l9.9 9.9m0-9.9l-9.9 9.9m50-9.9l9.9 9.9m0-9.9l-9.9 9.9m50-9.9l9.9 9.9m0-9.9l-9.9 9.9m-200 40.1l9.9 9.9m0-9.9l-9.9 9.9m50-9.9l9.9 9.9m0-9.9l-9.9 9.9m50-9.9l9.9 9.9m0-9.9l-9.9 9.9m50-9.9l9.9 9.9m0-9.9l-9.9 9.9m50-9.9l9.9 9.9m0-9.9l-9.9 9.9m-200 40.1l9.9 9.9m0-9.9l-9.9 9.9m50-9.9l9.9 9.9m0-9.9l-9.9 9.9m50-9.9l9.9 9.9m0-9.9l-9.9 9.9m50-9.9l9.9 9.9m0-9.9l-9.9 9.9m50-9.9l9.9 9.9m0-9.9l-9.9 9.9m-200 40.1l9.9 9.9m0-9.9l-9.9 9.9m50-9.9l9.9 9.9m0-9.9l-9.9 9.9m50-9.9l9.9 9.9m0-9.9l-9.9 9.9m50-9.9l9.9 9.9m0-9.9l-9.9 9.9m50-9.9l9.9 9.9m0-9.9l-9.9 9.9m-200 40.1l9.9 9.9m0-9.9l-9.9 9.9m50-9.9l9.9 9.9m0-9.9l-9.9 9.9m50-9.9l9.9 9.9m0-9.9l-9.9 9.9m50-9.9l9.9 9.9m0-9.9l-9.9 9.9m50-9.9l9.9 9.9m0-9.9l-9.9 9.9m-200 40.1l9.9 9.9m0-9.9l-9.9 9.9m50-9.9l9.9 9.9m0-9.9l-9.9 9.9m50-9.9l9.9 9.9m0-9.9l-9.9 9.9m50-9.9l9.9 9.9m0-9.9l-9.9 9.9m50-9.9l9.9 9.9m0-9.9l-9.9 9.9m-200 40.1l9.9 9.9m0-9.9l-9.9 9.9m50-9.9l9.9 9.9m0-9.9l-9.9 9.9m50-9.9l9.9 9.9m0-9.9l-9.9 9.9m50-9.9l9.9 9.9m0-9.9l-9.9 9.9m50-9.9l9.9 9.9m0-9.9l-9.9 9.9m-200 40.1l9.9 9.9m0-9.9l-9.9 9.9m50-9.9l9.9 9.9m0-9.9l-9.9 9.9m50-9.9l9.9 9.9m0-9.9l-9.9 9.9m50-9.9l9.9 9.9m0-9.9l-9.9 9.9m50-9.9l9.9 9.9m0-9.9l-9.9 9.9m-200 40.1l9.9 9.9m0-9.9l-9.9 9.9m50-9.9l9.9 9.9m0-9.9l-9.9 9.9m50-9.9l9.9 9.9m0-9.9l-9.9 9.9m50-9.9l9.9 9.9m0-9.9l-9.9 9.9m50-9.9l9.9 9.9m0-9.9l-9.9 9.9m-200 40.1l9.9 9.9m0-9.9l-9.9 9.9m50-9.9l9.9 9.9m0-9.9l-9.9 9.9m50-9.9l9.9 9.9m0-9.9l-9.9 9.9m50-9.9l9.9 9.9m0-9.9l-9.9 9.9m50-9.9l9.9 9.9m0-9.9l-9.9 9.9m-200 40.1l9.9 9.9m0-9.9l-9.9 9.9m50-9.9l9.9 9.9m0-9.9l-9.9 9.9m50-9.9l9.9 9.9m0-9.9l-9.9 9.9m50-9.9l9.9 9.9m0-9.9l-9.9 9.9m50-9.9l9.9 9.9m0-9.9l-9.9 9.9"/>
</svg>
