<svg xmlns="http://www.w3.org/2000/svg" viewBox="0 0 475 500" width="475" height="500">
    <path d="M1,1.1l9.8,9.8m0-9.8L1,10.8M50.6,1l9.9,9.8m0-9.8-9.9,9.8M1,50.8l9.8,9.9m0-9.9L1,60.6m49.6-9.9,9.9,9.9m0-9.9-9.9,9.9M100.3,1.1l9.7,9.7M110,1l-9.8,9.8m0,39.8,9.8,9.9m0-9.9-9.8,9.9M149.8,1l9.8,9.8m0-9.8L150,10.8m0,39.8,9.8,9.9m0-9.9L150,60.5M199.6,1l9.9,9.8m0-9.8-9.9,9.8m0,39.8,9.9,9.9m0-9.9-9.9,9.9M249.3,1l9.7,9.8M259,1l-9.8,9.8m0,39.8,9.8,9.9m0-9.9-9.8,9.9M1,100.3l9.8,9.8m0-9.8L1,110.2m49.6-9.8,9.9,9.8m0-9.8-9.9,9.8m49.7-9.8,9.8,9.8m0-9.8-9.8,9.8m49.6-9.8,9.8,9.8m0-9.8-9.8,9.8m49.6-9.8,9.9,9.8m0-9.8-9.9,9.8m49.7-9.8,9.8,9.8m0-9.8-9.8,9.8M1,150l9.8,9.8m0-9.8L1,159.8M50.6,150l9.9,9.8m0-9.8-9.9,9.8m49.7-9.8,9.8,9.8m0-9.8-9.8,9.8m49.6-9.8,9.8,9.8m0-9.8-9.7,9.8m49.6-9.8,9.9,9.8m0-9.8-9.9,9.8m49.7-9.8,9.8,9.8m0-9.8-9.8,9.8M1,199.6l9.8,9.8m0-9.8L1,209.4m49.6-9.8,9.9,9.8m0-9.8-9.9,9.8m49.7-9.8,9.8,9.8m0-9.8-9.8,9.8m49.6-9.8,9.8,9.8m0-9.8-9.8,9.8m49.6-9.8,9.9,9.8m0-9.8-9.9,9.8m49.7-9.8,9.8,9.8m0-9.8-9.8,9.8M1,249.4l9.8,9.8m0-9.8L1,259.1m49.6-9.8,9.9,9.8m0-9.8-9.9,9.8m49.7-9.8,9.8,9.8m0-9.8-9.8,9.8m49.6-9.8,9.8,9.8m0-9.8-9.8,9.8m49.6-9.8,9.9,9.8m0-9.8-9.9,9.8m49.7-9.8,9.8,9.8m0-9.8-9.8,9.8M1,298.8l9.8,9.8m0-9.8L1,308.7m49.6-9.8,9.9,9.8m0-9.8-9.9,9.8m49.7-9.8,9.8,9.8m0-9.8-9.8,9.8m49.6-9.8,9.8,9.8m0-9.8-9.8,9.8m49.6-9.8,9.9,9.8m0-9.8-9.9,9.8m49.7-9.8,9.8,9.8m0-9.8-9.8,9.8M1,348.5l9.8,9.9m0-9.9L1,358.4m49.6-9.9,9.9,9.9m0-9.9-9.9,9.9m49.7-9.9,9.8,9.9m0-9.9-9.8,9.9m49.6-9.9,9.8,9.9m0-9.9-9.8,9.9m49.6-9.9,9.9,9.9m0-9.9-9.9,9.9m49.7-9.9,9.8,9.9m0-9.9-9.8,9.9M1,398.2l9.8,9.8m0-9.8L1,408m49.6-9.8,9.9,9.8m0-9.8L50.6,408m49.7-9.8,9.8,9.8m0-9.8-9.8,9.8m49.6-9.8,9.8,9.8m0-9.8-9.8,9.8m49.6-9.8,9.9,9.8m0-9.8-9.9,9.8m49.7-9.8L259,408m0-9.8-9.8,9.8M1,447.8l9.8,9.8m0-9.8L1,457.6m49.6-9.8,9.9,9.8m0-9.8-9.9,9.8m49.7-9.8,9.8,9.8m0-9.8-9.8,9.8m49.6-9.8,9.8,9.8m0-9.8-9.8,9.8m49.6-9.8,9.9,9.8m0-9.8-9.9,9.8m49.7-9.8,9.8,9.8m0-9.8-9.8,9.8" fill="none" stroke="#e0e0e0" stroke-linecap="round"/>
    <path d="M298.8,1l9.9,9.8m0-9.8-9.9,9.8m0,39.9,9.9,9.9m0-9.9-9.9,9.9M348.5,1.1l9.7,9.7m0-9.8-9.8,9.8m0,39.8,9.8,9.9m0-9.9-9.8,9.9M398,1l9.8,9.8m0-9.8-9.6,9.8m0,39.8,9.8,9.9m0-9.9-9.8,9.9M447.8,1l9.9,9.8m0-9.8-9.9,9.8m0,39.8,9.9,9.9m0-9.9-9.9,9.9m-149,39.9,9.9,9.8m0-9.8-9.9,9.8m49.7-9.8,9.8,9.8m0-9.8-9.8,9.8m49.6-9.8,9.8,9.8m0-9.8-9.8,9.8m49.6-9.8,9.9,9.8m0-9.8-9.9,9.8M298.8,150l9.9,9.8m0-9.8-9.9,9.8m49.7-9.8,9.8,9.8m0-9.8-9.8,9.8m49.6-9.8,9.8,9.8m0-9.8-9.7,9.8m49.6-9.8,9.9,9.8m0-9.8-9.9,9.8m-149,39.8,9.9,9.8m0-9.8-9.9,9.8m49.7-9.8,9.8,9.8m0-9.8-9.8,9.8m49.6-9.8,9.8,9.8m0-9.8-9.8,9.8m49.6-9.8,9.9,9.8m0-9.8-9.9,9.8M298.8,249.3l9.9,9.8m0-9.8-9.9,9.8m49.7-9.8,9.8,9.8m0-9.8-9.8,9.8m49.6-9.8,9.8,9.8m0-9.8-9.8,9.8m49.6-9.8,9.9,9.8m0-9.8-9.9,9.8M298.8,298.9l9.9,9.8m0-9.8-9.9,9.8m49.7-9.8,9.8,9.8m0-9.8-9.8,9.8m49.6-9.8,9.8,9.8m0-9.8-9.8,9.8m49.6-9.8,9.9,9.8m0-9.8-9.9,9.8M298.8,348.5l9.9,9.9m0-9.9-9.9,9.9m49.7-9.9,9.8,9.9m0-9.9-9.8,9.9m49.6-9.9,9.8,9.9m0-9.9-9.8,9.9m49.6-9.9,9.9,9.9m0-9.9-9.9,9.9M298.8,398.2l9.9,9.8m0-9.8-9.9,9.8m49.7-9.8,9.8,9.8m0-9.8-9.8,9.8m49.6-9.8,9.8,9.8m0-9.8-9.8,9.8m49.6-9.8,9.9,9.8m0-9.8-9.9,9.8M298.8,447.8l9.9,9.8m0-9.8-9.9,9.8m49.7-9.8,9.8,9.8m0-9.8-9.8,9.8m49.6-9.8,9.8,9.8m0-9.8-9.8,9.8m49.6-9.8,9.9,9.8m0-9.8-9.9,9.8" fill="none" stroke="#e0e0e0" stroke-linecap="round"/>
</svg>
