<svg width="780" height="160" xmlns="http://www.w3.org/2000/svg" viewBox="0 0 780 160">
    <path fill="#f5f7f9" d="M64,27.4h29.6l42.6,129.8h-25l-9-28H54l-9.2,28h-25L64,27.4z M60,111.4h36.4l-18-55.8L60,111.4z M225.9,71.4 c8.2,9.3,12.3,21.6,12.3,36.8s-4.3,27.7-13,37.6c-8.4,9.5-18.9,14.2-31.4,14.2c-6,0-11.5-1.6-16.5-4.8s-9-8.1-11.9-14.8l-5.8,16.8 h-15.4V20h23.6v52.2c6.1-9.9,15.3-14.8,27.5-14.8S217.7,62.1,225.9,71.4L225.9,71.4z M167.8,102.6v12.8c0.3,6.8,2.7,12.4,7.4,16.8 c4.4,4.3,9.8,6.4,16.1,6.4s11.8-2.8,16.3-8.3s6.8-12.8,6.8-21.9s-2.2-16.3-6.7-21.7c-4.5-5.4-10-8.1-16.7-8.1s-12.2,2.2-16.6,6.6 C170,89.6,167.8,95.4,167.8,102.6z M290.2,57.4c6.5,0,12.7,1,18.4,3.1c5.7,2.1,10.7,5.2,14.8,9.5c9.2,9.3,13.8,22.3,13.8,38.8 c0,16.3-4.6,29.1-13.8,38.4c-8.3,8.5-19.3,12.8-33.2,12.8c-13.9,0-25.1-4.3-33.6-12.8c-9.2-9.2-13.8-22-13.8-38.4 c0-16.7,4.6-29.6,13.8-38.8C265,61.6,276.2,57.4,290.2,57.4L290.2,57.4z M313.6,108.6c0-10.3-2-18-6-23.1s-9.6-7.7-16.7-7.7 s-13,2.6-17.5,7.7s-6.8,12.8-6.8,23.1s2,18,6.1,23.1s9.6,7.7,16.7,7.7s12.9-2.6,17.4-7.7C311.3,126.6,313.6,118.9,313.6,108.6z M414.8,139.6c-6.1,12.9-16,19.4-29.6,19.4c-17.2,0-28.5-6.7-34-20.2c-2-4.7-3-10.3-3-17v-62h23.6v59.6c0,6.4,1.5,11.2,4.6,14.3 c3.1,3.1,6.8,4.7,11.3,4.7s8.2-0.6,11.3-1.9c3.1-1.3,5.7-3.2,8-5.7c4.9-5.7,7.5-13.4,7.8-23v-48h23.6v97.4h-23.6L414.8,139.6 L414.8,139.6z M515.4,154.8c-8.8,3.5-15.7,5.2-20.8,5.2c-5.1,0-9.5-0.6-13.3-1.8s-7.2-3-10.1-5.4c-6.1-5.5-9.2-13-9.2-22.6V75.8 h-13.6V60H462V34.4h23.6V60H512v15.8h-26.4v53.6c0,8,3.8,12,11.4,12c3.9,0,8.9-1.1,15-3.2L515.4,154.8z M581.8,27.4v80.8 c0,10.7,2.7,18.3,8.1,23c5.4,4.7,12.4,7,20.9,7s15.5-2.3,20.9-7s8.1-12.3,8.1-23V27.4h23.6v80.8c0,16.5-4.6,29.3-13.8,38.3 S627.5,160,610.8,160s-29.6-4.5-38.8-13.5s-13.8-21.8-13.8-38.3V27.4H581.8z M696.4,127.6c0.3,9.2,7,13.8,20.2,13.8 c5.1,0,9.2-1.1,12.5-3.3s4.9-4.8,4.9-7.7c0-2.9-1-5.2-3-6.8s-5.1-3.1-9.4-4.4l-21.2-7.6c-15.7-5.5-23.6-14.4-23.6-26.8 c0-8.3,3.7-14.9,11.1-19.9s17.3-7.5,29.8-7.5s22.1,2.7,28.8,8.2s10.2,12.3,10.5,20.6h-22.2c-0.3-3.2-1.8-5.7-4.6-7.6 s-6.8-2.8-12-2.8s-9.2,1-12.1,3.1c-2.9,2.1-4.3,4.4-4.3,7.1c0,4.7,3.9,8.1,11.8,10.4l23,8.6c7.6,2.5,13.4,5.8,17.5,9.7 c4.1,3.9,6.1,9,6.1,15.3c0,8-3.8,14.9-11.4,20.8c-7.9,6.1-18.3,9.2-31.2,9.2s-23.3-2.8-31.2-8.5s-11.9-13.6-12-23.9L696.4,127.6 L696.4,127.6z"/>
</svg>
