<svg width="70" height="26.5" xmlns="http://www.w3.org/2000/svg">
    <path d="M16.9 5.9l-7 16.2c-.7 1.6-1.5 2.8-2.4 3.4-.9.7-2.1 1-3.4 1-.8 0-1.5-.1-2.2-.4-.7-.2-1.3-.6-1.8-1l1.4-2.6c.3.3.7.6 1.2.8.5.2.9.3 1.4.3.6 0 1.1-.2 1.5-.5.4-.3.8-.9 1.1-1.6l.3-.6-6.7-15H4L8.7 17l4.8-11.1h3.4zm12.5 1.4c1.2 1.1 1.8 2.7 1.8 4.8v8.8h-3.3v-1.8c-.4.7-1 1.2-1.8 1.5a8.36 8.36 0 0 1-5.9-.1c-.8-.4-1.5-.9-2-1.6-.5-.7-.7-1.5-.7-2.3 0-1.4.5-2.4 1.5-3.3 1-.8 2.6-1.2 4.7-1.2h3.9v-.2c0-1.1-.3-1.9-.9-2.4-.6-.6-1.6-.8-2.8-.8-.8 0-1.7.1-2.5.4-.8.3-1.5.6-2.1 1.1L18 7.5c.8-.6 1.7-1.1 2.8-1.4 1.1-.3 2.3-.5 3.5-.5 2.2.1 3.9.6 5.1 1.7zm-3.2 10.6c.7-.4 1.2-1 1.5-1.7v-1.7H24c-2 0-3 .7-3 2 0 .6.3 1.1.8 1.5.5.4 1.2.6 2.1.6.8-.1 1.6-.3 2.3-.7zM44.4 5.7V9h-.8c-1.4 0-2.4.4-3.2 1.2-.8.8-1.2 1.9-1.2 3.4v7.3h-3.5v-15H39v2.2c1-1.6 2.8-2.4 5.4-2.4zM61.9 0v20.9h-3.4V19c-.6.7-1.3 1.2-2.2 1.6-.9.4-1.8.5-2.8.5-1.4 0-2.7-.3-3.9-1-1.2-.6-2.1-1.5-2.7-2.7-.7-1.2-1-2.5-1-4a7.44 7.44 0 0 1 3.7-6.7c1.2-.6 2.5-1 3.9-1 1 0 1.9.2 2.7.5.8.3 1.5.8 2.1 1.5V0h3.6zm-5.6 17.5c.7-.4 1.2-.9 1.6-1.6.4-.7.6-1.5.6-2.5 0-.9-.2-1.8-.6-2.5-.4-.7-.9-1.3-1.6-1.6a4.65 4.65 0 0 0-4.6 0c-.7.4-1.2.9-1.6 1.6-.4.7-.6 1.5-.6 2.5 0 .9.2 1.8.6 2.5.4.7.9 1.3 1.6 1.6a4.65 4.65 0 0 0 4.6 0z" fill="#403f3f"/>
    <path d="M66.1 20.4c-.5-.4-.7-1-.7-1.7s.2-1.3.7-1.7c.4-.4 1-.6 1.6-.6.7 0 1.2.2 1.6.6.4.4.7 1 .7 1.7s-.2 1.2-.7 1.7c-.5.4-1 .7-1.6.7s-1.2-.2-1.6-.7z" fill="#ff8a65"/>
</svg>
