<svg xmlns="http://www.w3.org/2000/svg" viewBox="0 0 540 640" width="540" height="640">
    <g fill="#e8e8e8">
        <circle cx="43.5" cy="53.5" r="3.5"/>
        <circle cx="117.5" cy="53.5" r="3.5"/>
        <circle cx="43.5" cy="127.5" r="3.5"/>
        <circle cx="117.5" cy="127.5" r="3.5"/>
        <circle cx="191.5" cy="53.5" r="3.5"/>
        <circle cx="191.5" cy="127.5" r="3.5"/>
        <circle cx="265.5" cy="53.5" r="3.5"/>
        <circle cx="265.5" cy="127.5" r="3.5"/>
        <circle cx="43.5" cy="201.5" r="3.5"/>
        <circle cx="117.5" cy="201.5" r="3.5"/>
        <circle cx="191.5" cy="201.5" r="3.5"/>
        <circle cx="265.5" cy="201.5" r="3.5"/>
        <circle cx="43.5" cy="275.5" r="3.5"/>
        <circle cx="117.5" cy="275.5" r="3.5"/>
        <circle cx="191.5" cy="275.5" r="3.5"/>
        <circle cx="265.5" cy="275.5" r="3.5"/>
        <circle cx="43.5" cy="349.5" r="3.5"/>
        <circle cx="117.5" cy="349.5" r="3.5"/>
        <circle cx="191.5" cy="349.5" r="3.5"/>
        <circle cx="265.5" cy="349.5" r="3.5"/>
        <circle cx="43.5" cy="423.5" r="3.5"/>
        <circle cx="117.5" cy="423.5" r="3.5"/>
        <circle cx="191.5" cy="423.5" r="3.5"/>
        <circle cx="265.5" cy="423.5" r="3.5"/>
        <circle cx="43.5" cy="497.5" r="3.5"/>
        <circle cx="117.5" cy="497.5" r="3.5"/>
        <circle cx="191.5" cy="497.5" r="3.5"/>
        <circle cx="265.5" cy="497.5" r="3.5"/>
        <circle cx="339.5" cy="53.5" r="3.5"/>
        <circle cx="339.5" cy="127.5" r="3.5"/>
        <circle cx="413.5" cy="53.5" r="3.5"/>
        <circle cx="413.5" cy="127.5" r="3.5"/>
        <circle cx="487.5" cy="53.5" r="3.5"/>
        <circle cx="487.5" cy="127.5" r="3.5"/>
        <circle cx="339.5" cy="201.5" r="3.5"/>
        <circle cx="413.5" cy="201.5" r="3.5"/>
        <circle cx="487.5" cy="201.5" r="3.5"/>
        <circle cx="339.5" cy="275.5" r="3.5"/>
        <circle cx="413.5" cy="275.5" r="3.5"/>
        <circle cx="487.5" cy="275.5" r="3.5"/>
        <circle cx="339.5" cy="349.5" r="3.5"/>
        <circle cx="413.5" cy="349.5" r="3.5"/>
        <circle cx="487.5" cy="349.5" r="3.5"/>
        <circle cx="339.5" cy="423.5" r="3.5"/>
        <circle cx="413.5" cy="423.5" r="3.5"/>
        <circle cx="487.5" cy="423.5" r="3.5"/>
        <circle cx="339.5" cy="497.5" r="3.5"/>
        <circle cx="413.5" cy="497.5" r="3.5"/>
        <circle cx="487.5" cy="497.5" r="3.5"/>
        <circle cx="43.5" cy="571.5" r="3.5"/>
        <circle cx="117.5" cy="571.5" r="3.5"/>
        <circle cx="191.5" cy="571.5" r="3.5"/>
        <circle cx="265.5" cy="571.5" r="3.5"/>
        <circle cx="339.5" cy="571.5" r="3.5"/>
        <circle cx="413.5" cy="571.5" r="3.5"/>
        <circle cx="487.5" cy="571.5" r="3.5"/>
    </g>
</svg>
