<svg xmlns="http://www.w3.org/2000/svg" viewBox="0 0 820 820" width="820" height="820">
    <g fill="#e8e8e8">
        <circle cx="43.5" cy="43.5" r="3.5"/>
        <circle cx="117.5" cy="43.5" r="3.5"/>
        <circle cx="43.5" cy="117.5" r="3.5"/>
        <circle cx="117.5" cy="117.5" r="3.5"/>
        <circle cx="191.5" cy="43.5" r="3.5"/>
        <circle cx="191.5" cy="117.5" r="3.5"/>
        <circle cx="265.5" cy="43.5" r="3.5"/>
        <circle cx="265.5" cy="117.5" r="3.5"/>
        <circle cx="43.5" cy="191.5" r="3.5"/>
        <circle cx="117.5" cy="191.5" r="3.5"/>
        <circle cx="191.5" cy="191.5" r="3.5"/>
        <circle cx="265.5" cy="191.5" r="3.5"/>
        <circle cx="43.5" cy="265.5" r="3.5"/>
        <circle cx="117.5" cy="265.5" r="3.5"/>
        <circle cx="191.5" cy="265.5" r="3.5"/>
        <circle cx="265.5" cy="265.5" r="3.5"/>
        <circle cx="43.5" cy="339.5" r="3.5"/>
        <circle cx="117.5" cy="339.5" r="3.5"/>
        <circle cx="191.5" cy="339.5" r="3.5"/>
        <circle cx="265.5" cy="339.5" r="3.5"/>
        <circle cx="43.5" cy="413.5" r="3.5"/>
        <circle cx="117.5" cy="413.5" r="3.5"/>
        <circle cx="191.5" cy="413.5" r="3.5"/>
        <circle cx="265.5" cy="413.5" r="3.5"/>
        <circle cx="43.5" cy="487.5" r="3.5"/>
        <circle cx="117.5" cy="487.5" r="3.5"/>
        <circle cx="191.5" cy="487.5" r="3.5"/>
        <circle cx="265.5" cy="487.5" r="3.5"/>
        <circle cx="339.5" cy="43.5" r="3.5"/>
        <circle cx="339.5" cy="117.5" r="3.5"/>
        <circle cx="413.5" cy="43.5" r="3.5"/>
        <circle cx="413.5" cy="117.5" r="3.5"/>
        <circle cx="487.5" cy="43.5" r="3.5"/>
        <circle cx="487.5" cy="117.5" r="3.5"/>
        <circle cx="339.5" cy="191.5" r="3.5"/>
        <circle cx="413.5" cy="191.5" r="3.5"/>
        <circle cx="487.5" cy="191.5" r="3.5"/>
        <circle cx="339.5" cy="265.5" r="3.5"/>
        <circle cx="413.5" cy="265.5" r="3.5"/>
        <circle cx="487.5" cy="265.5" r="3.5"/>
        <circle cx="339.5" cy="339.5" r="3.5"/>
        <circle cx="413.5" cy="339.5" r="3.5"/>
        <circle cx="487.5" cy="339.5" r="3.5"/>
        <circle cx="339.5" cy="413.5" r="3.5"/>
        <circle cx="413.5" cy="413.5" r="3.5"/>
        <circle cx="487.5" cy="413.5" r="3.5"/>
        <circle cx="339.5" cy="487.5" r="3.5"/>
        <circle cx="413.5" cy="487.5" r="3.5"/>
        <circle cx="487.5" cy="487.5" r="3.5"/>
        <circle cx="561.5" cy="43.5" r="3.5"/>
        <circle cx="561.5" cy="117.5" r="3.5"/>
        <circle cx="635.5" cy="43.5" r="3.5"/>
        <circle cx="635.5" cy="117.5" r="3.5"/>
        <circle cx="709.5" cy="43.5" r="3.5"/>
        <circle cx="709.5" cy="117.5" r="3.5"/>
        <circle cx="561.5" cy="191.5" r="3.5"/>
        <circle cx="635.5" cy="191.5" r="3.5"/>
        <circle cx="709.5" cy="191.5" r="3.5"/>
        <circle cx="561.5" cy="265.5" r="3.5"/>
        <circle cx="635.5" cy="265.5" r="3.5"/>
        <circle cx="709.5" cy="265.5" r="3.5"/>
        <circle cx="561.5" cy="339.5" r="3.5"/>
        <circle cx="635.5" cy="339.5" r="3.5"/>
        <circle cx="709.5" cy="339.5" r="3.5"/>
        <circle cx="561.5" cy="413.5" r="3.5"/>
        <circle cx="635.5" cy="413.5" r="3.5"/>
        <circle cx="709.5" cy="413.5" r="3.5"/>
        <circle cx="561.5" cy="487.5" r="3.5"/>
        <circle cx="635.5" cy="487.5" r="3.5"/>
        <circle cx="709.5" cy="487.5" r="3.5"/>
        <circle cx="783.5" cy="43.5" r="3.5"/>
        <circle cx="783.5" cy="117.5" r="3.5"/>
        <circle cx="783.5" cy="191.5" r="3.5"/>
        <circle cx="783.5" cy="265.5" r="3.5"/>
        <circle cx="783.5" cy="339.5" r="3.5"/>
        <circle cx="783.5" cy="413.5" r="3.5"/>
        <circle cx="783.5" cy="487.5" r="3.5"/>
        <circle cx="43.5" cy="487.5" r="3.5"/>
        <circle cx="117.5" cy="487.5" r="3.5"/>
        <circle cx="43.5" cy="561.5" r="3.5"/>
        <circle cx="117.5" cy="561.5" r="3.5"/>
        <circle cx="191.5" cy="487.5" r="3.5"/>
        <circle cx="191.5" cy="561.5" r="3.5"/>
        <circle cx="265.5" cy="487.5" r="3.5"/>
        <circle cx="265.5" cy="561.5" r="3.5"/>
        <circle cx="43.5" cy="635.5" r="3.5"/>
        <circle cx="117.5" cy="635.5" r="3.5"/>
        <circle cx="191.5" cy="635.5" r="3.5"/>
        <circle cx="265.5" cy="635.5" r="3.5"/>
        <circle cx="43.5" cy="709.5" r="3.5"/>
        <circle cx="117.5" cy="709.5" r="3.5"/>
        <circle cx="191.5" cy="709.5" r="3.5"/>
        <circle cx="265.5" cy="709.5" r="3.5"/>
        <circle cx="43.5" cy="783.5" r="3.5"/>
        <circle cx="117.5" cy="783.5" r="3.5"/>
        <circle cx="191.5" cy="783.5" r="3.5"/>
        <circle cx="265.5" cy="783.5" r="3.5"/>
        <circle cx="339.5" cy="487.5" r="3.5"/>
        <circle cx="339.5" cy="561.5" r="3.5"/>
        <circle cx="413.5" cy="487.5" r="3.5"/>
        <circle cx="413.5" cy="561.5" r="3.5"/>
        <circle cx="487.5" cy="487.5" r="3.5"/>
        <circle cx="487.5" cy="561.5" r="3.5"/>
        <circle cx="339.5" cy="635.5" r="3.5"/>
        <circle cx="413.5" cy="635.5" r="3.5"/>
        <circle cx="487.5" cy="635.5" r="3.5"/>
        <circle cx="339.5" cy="709.5" r="3.5"/>
        <circle cx="413.5" cy="709.5" r="3.5"/>
        <circle cx="487.5" cy="709.5" r="3.5"/>
        <circle cx="339.5" cy="783.5" r="3.5"/>
        <circle cx="413.5" cy="783.5" r="3.5"/>
        <circle cx="487.5" cy="783.5" r="3.5"/>
        <circle cx="561.5" cy="487.5" r="3.5"/>
        <circle cx="561.5" cy="561.5" r="3.5"/>
        <circle cx="635.5" cy="487.5" r="3.5"/>
        <circle cx="635.5" cy="561.5" r="3.5"/>
        <circle cx="709.5" cy="487.5" r="3.5"/>
        <circle cx="709.5" cy="561.5" r="3.5"/>
        <circle cx="561.5" cy="635.5" r="3.5"/>
        <circle cx="635.5" cy="635.5" r="3.5"/>
        <circle cx="709.5" cy="635.5" r="3.5"/>
        <circle cx="561.5" cy="709.5" r="3.5"/>
        <circle cx="635.5" cy="709.5" r="3.5"/>
        <circle cx="709.5" cy="709.5" r="3.5"/>
        <circle cx="561.5" cy="783.5" r="3.5"/>
        <circle cx="635.5" cy="783.5" r="3.5"/>
        <circle cx="709.5" cy="783.5" r="3.5"/>
        <circle cx="783.5" cy="487.5" r="3.5"/>
        <circle cx="783.5" cy="561.5" r="3.5"/>
        <circle cx="783.5" cy="635.5" r="3.5"/>
        <circle cx="783.5" cy="709.5" r="3.5"/>
        <circle cx="783.5" cy="783.5" r="3.5"/>
    </g>
</svg>
