<svg xmlns="http://www.w3.org/2000/svg" viewBox="0 0 1900 680" width="1900" height="680">
    <path d="M0,0H1041V639H0Z" fill="#393535"/>
    <g fill="#494747">
        <circle cx="51.39" cy="51.5" r="3.17"/>
        <circle cx="118.39" cy="51.5" r="3.17"/>
        <circle cx="51.39" cy="118.5" r="3.17"/>
        <circle cx="118.39" cy="118.5" r="3.17"/>
        <circle cx="185.39" cy="51.5" r="3.17"/>
        <circle cx="185.39" cy="118.5" r="3.17"/>
        <circle cx="252.39" cy="51.5" r="3.17"/>
        <circle cx="252.39" cy="118.5" r="3.17"/>
        <circle cx="319.39" cy="51.5" r="3.17"/>
        <circle cx="319.39" cy="118.5" r="3.17"/>
        <circle cx="386.39" cy="51.5" r="3.17"/>
        <circle cx="386.39" cy="118.5" r="3.17"/>
        <circle cx="453.39" cy="51.5" r="3.17"/>
        <circle cx="453.39" cy="118.5" r="3.17"/>
        <circle cx="520.38" cy="51.5" r="3.17"/>
        <circle cx="520.38" cy="118.5" r="3.17"/>
        <circle cx="587.38" cy="51.5" r="3.17"/>
        <circle cx="587.38" cy="118.5" r="3.17"/>
        <circle cx="51.39" cy="185.5" r="3.17"/>
        <circle cx="118.39" cy="185.5" r="3.17"/>
        <circle cx="185.39" cy="185.5" r="3.17"/>
        <circle cx="252.39" cy="185.5" r="3.17"/>
        <circle cx="319.39" cy="185.5" r="3.17"/>
        <circle cx="386.39" cy="185.5" r="3.17"/>
        <circle cx="453.39" cy="185.5" r="3.17"/>
        <circle cx="520.38" cy="185.5" r="3.17"/>
        <circle cx="587.38" cy="185.5" r="3.17"/>
        <circle cx="51.39" cy="252.5" r="3.17"/>
        <circle cx="118.39" cy="252.5" r="3.17"/>
        <circle cx="185.39" cy="252.5" r="3.17"/>
        <circle cx="252.39" cy="252.5" r="3.17"/>
        <circle cx="319.39" cy="252.5" r="3.17"/>
        <circle cx="386.39" cy="252.5" r="3.17"/>
        <circle cx="453.39" cy="252.5" r="3.17"/>
        <circle cx="520.38" cy="252.5" r="3.17"/>
        <circle cx="587.38" cy="252.5" r="3.17"/>
        <circle cx="51.39" cy="319.5" r="3.17"/>
        <circle cx="118.39" cy="319.5" r="3.17"/>
        <circle cx="185.39" cy="319.5" r="3.17"/>
        <circle cx="252.39" cy="319.5" r="3.17"/>
        <circle cx="319.39" cy="319.5" r="3.17"/>
        <circle cx="386.39" cy="319.5" r="3.17"/>
        <circle cx="453.39" cy="319.5" r="3.17"/>
        <circle cx="520.38" cy="319.5" r="3.17"/>
        <circle cx="587.38" cy="319.5" r="3.17"/>
        <circle cx="51.39" cy="386.5" r="3.17"/>
        <circle cx="118.39" cy="386.5" r="3.17"/>
        <circle cx="185.39" cy="386.5" r="3.17"/>
        <circle cx="252.39" cy="386.5" r="3.17"/>
        <circle cx="319.39" cy="386.5" r="3.17"/>
        <circle cx="386.39" cy="386.5" r="3.17"/>
        <circle cx="453.39" cy="386.5" r="3.17"/>
        <circle cx="520.38" cy="386.5" r="3.17"/>
        <circle cx="587.38" cy="386.5" r="3.17"/>
        <circle cx="51.39" cy="453.5" r="3.17"/>
        <circle cx="118.39" cy="453.5" r="3.17"/>
        <circle cx="185.39" cy="453.5" r="3.17"/>
        <circle cx="252.39" cy="453.5" r="3.17"/>
        <circle cx="319.39" cy="453.5" r="3.17"/>
        <circle cx="386.39" cy="453.5" r="3.17"/>
        <circle cx="453.39" cy="453.5" r="3.17"/>
        <circle cx="520.38" cy="453.5" r="3.17"/>
        <circle cx="587.38" cy="453.5" r="3.17"/>
        <circle cx="51.39" cy="520.5" r="3.17"/>
        <circle cx="118.39" cy="520.5" r="3.17"/>
        <circle cx="185.39" cy="520.5" r="3.17"/>
        <circle cx="252.39" cy="520.5" r="3.17"/>
        <circle cx="319.39" cy="520.5" r="3.17"/>
        <circle cx="386.39" cy="520.5" r="3.17"/>
        <circle cx="453.39" cy="520.5" r="3.17"/>
        <circle cx="520.38" cy="520.5" r="3.17"/>
        <circle cx="587.38" cy="520.5" r="3.17"/>
        <circle cx="51.39" cy="587.5" r="3.17"/>
        <circle cx="118.39" cy="587.5" r="3.17"/>
        <circle cx="185.39" cy="587.5" r="3.17"/>
        <circle cx="252.39" cy="587.5" r="3.17"/>
        <circle cx="319.39" cy="587.5" r="3.17"/>
        <circle cx="386.39" cy="587.5" r="3.17"/>
        <circle cx="453.39" cy="587.5" r="3.17"/>
        <circle cx="520.38" cy="587.5" r="3.17"/>
        <circle cx="587.38" cy="587.5" r="3.17"/>
        <circle cx="654.38" cy="51.5" r="3.17"/>
        <circle cx="654.38" cy="118.5" r="3.17"/>
        <circle cx="721.38" cy="51.5" r="3.17"/>
        <circle cx="721.38" cy="118.5" r="3.17"/>
        <circle cx="788.38" cy="51.5" r="3.17"/>
        <circle cx="788.38" cy="118.5" r="3.17"/>
        <circle cx="855.38" cy="51.5" r="3.17"/>
        <circle cx="855.38" cy="118.5" r="3.17"/>
        <circle cx="922.38" cy="51.5" r="3.17"/>
        <circle cx="922.38" cy="118.5" r="3.17"/>
        <circle cx="989.38" cy="51.5" r="3.17"/>
        <circle cx="989.38" cy="118.5" r="3.17"/>
        <circle cx="654.38" cy="185.5" r="3.17"/>
        <circle cx="721.38" cy="185.5" r="3.17"/>
        <circle cx="788.38" cy="185.5" r="3.17"/>
        <circle cx="855.38" cy="185.5" r="3.17"/>
        <circle cx="922.38" cy="185.5" r="3.17"/>
        <circle cx="989.38" cy="185.5" r="3.17"/>
        <circle cx="654.38" cy="252.5" r="3.17"/>
        <circle cx="721.38" cy="252.5" r="3.17"/>
        <circle cx="788.38" cy="252.5" r="3.17"/>
        <circle cx="855.38" cy="252.5" r="3.17"/>
        <circle cx="922.38" cy="252.5" r="3.17"/>
        <circle cx="989.38" cy="252.5" r="3.17"/>
        <circle cx="654.38" cy="319.5" r="3.17"/>
        <circle cx="721.38" cy="319.5" r="3.17"/>
        <circle cx="788.38" cy="319.5" r="3.17"/>
        <circle cx="855.38" cy="319.5" r="3.17"/>
        <circle cx="922.38" cy="319.5" r="3.17"/>
        <circle cx="989.38" cy="319.5" r="3.17"/>
        <circle cx="654.38" cy="386.5" r="3.17"/>
        <circle cx="721.38" cy="386.5" r="3.17"/>
        <circle cx="788.38" cy="386.5" r="3.17"/>
        <circle cx="855.38" cy="386.5" r="3.17"/>
        <circle cx="922.38" cy="386.5" r="3.17"/>
        <circle cx="989.38" cy="386.5" r="3.17"/>
        <circle cx="654.38" cy="453.5" r="3.17"/>
        <circle cx="721.38" cy="453.5" r="3.17"/>
        <circle cx="788.38" cy="453.5" r="3.17"/>
        <circle cx="855.38" cy="453.5" r="3.17"/>
        <circle cx="922.38" cy="453.5" r="3.17"/>
        <circle cx="989.38" cy="453.5" r="3.17"/>
        <circle cx="654.38" cy="520.5" r="3.17"/>
        <circle cx="721.38" cy="520.5" r="3.17"/>
        <circle cx="788.38" cy="520.5" r="3.17"/>
        <circle cx="855.38" cy="520.5" r="3.17"/>
        <circle cx="922.38" cy="520.5" r="3.17"/>
        <circle cx="989.38" cy="520.5" r="3.17"/>
        <circle cx="654.38" cy="587.5" r="3.17"/>
        <circle cx="721.38" cy="587.5" r="3.17"/>
        <circle cx="788.38" cy="587.5" r="3.17"/>
        <circle cx="855.38" cy="587.5" r="3.17"/>
        <circle cx="922.38" cy="587.5" r="3.17"/>
        <circle cx="989.38" cy="587.5" r="3.17"/>
    </g>
</svg>
