<svg xmlns="http://www.w3.org/2000/svg" viewBox="0 0 260 895" width="260" height="895">
    <circle cx="3.5" cy="3.5" r="3.5" fill="#e8e8e8"/>
    <circle cx="77.5" cy="3.5" r="3.5" fill="#e8e8e8"/>
    <circle cx="3.5" cy="77.5" r="3.5" fill="#e8e8e8"/>
    <circle cx="77.5" cy="77.5" r="3.5" fill="#e8e8e8"/>
    <circle cx="151.5" cy="3.5" r="3.5" fill="#e8e8e8"/>
    <circle cx="151.5" cy="77.5" r="3.5" fill="#e8e8e8"/>
    <circle cx="225.5" cy="3.5" r="3.5" fill="#e8e8e8"/>
    <circle cx="225.5" cy="77.5" r="3.5" fill="#e8e8e8"/>
    <circle cx="3.5" cy="151.5" r="3.5" fill="#e8e8e8"/>
    <circle cx="77.5" cy="151.5" r="3.5" fill="#e8e8e8"/>
    <circle cx="151.5" cy="151.5" r="3.5" fill="#e8e8e8"/>
    <circle cx="225.5" cy="151.5" r="3.5" fill="#e8e8e8"/>
    <circle cx="3.5" cy="225.5" r="3.5" fill="#e8e8e8"/>
    <circle cx="77.5" cy="225.5" r="3.5" fill="#e8e8e8"/>
    <circle cx="151.5" cy="225.5" r="3.5" fill="#e8e8e8"/>
    <circle cx="225.5" cy="225.5" r="3.5" fill="#e8e8e8"/>
    <circle cx="3.5" cy="299.5" r="3.5" fill="#e8e8e8"/>
    <circle cx="77.5" cy="299.5" r="3.5" fill="#e8e8e8"/>
    <circle cx="151.5" cy="299.5" r="3.5" fill="#e8e8e8"/>
    <circle cx="225.5" cy="299.5" r="3.5" fill="#e8e8e8"/>
    <circle cx="3.5" cy="373.5" r="3.5" fill="#e8e8e8"/>
    <circle cx="77.5" cy="373.5" r="3.5" fill="#e8e8e8"/>
    <circle cx="151.5" cy="373.5" r="3.5" fill="#e8e8e8"/>
    <circle cx="225.5" cy="373.5" r="3.5" fill="#e8e8e8"/>
    <circle cx="3.5" cy="447.5" r="3.5" fill="#e8e8e8"/>
    <circle cx="77.5" cy="447.5" r="3.5" fill="#e8e8e8"/>
    <circle cx="151.5" cy="447.5" r="3.5" fill="#e8e8e8"/>
    <circle cx="225.5" cy="447.5" r="3.5" fill="#e8e8e8"/>
    <circle cx="3.5" cy="521.5" r="3.5" fill="#e8e8e8"/>
    <circle cx="77.5" cy="521.5" r="3.5" fill="#e8e8e8"/>
    <circle cx="151.5" cy="521.5" r="3.5" fill="#e8e8e8"/>
    <circle cx="225.5" cy="521.5" r="3.5" fill="#e8e8e8"/>
    <circle cx="3.5" cy="595.5" r="3.5" fill="#e8e8e8"/>
    <circle cx="77.5" cy="595.5" r="3.5" fill="#e8e8e8"/>
    <circle cx="151.5" cy="595.5" r="3.5" fill="#e8e8e8"/>
    <circle cx="225.5" cy="595.5" r="3.5" fill="#e8e8e8"/>
    <circle cx="3.5" cy="669.4" r="3.5" fill="#e8e8e8"/>
    <circle cx="77.5" cy="669.4" r="3.5" fill="#e8e8e8"/>
    <circle cx="151.5" cy="669.4" r="3.5" fill="#e8e8e8"/>
    <circle cx="225.5" cy="669.4" r="3.5" fill="#e8e8e8"/>
    <circle cx="3.5" cy="743.4" r="3.5" fill="#e8e8e8"/>
    <circle cx="77.5" cy="743.4" r="3.5" fill="#e8e8e8"/>
    <circle cx="151.5" cy="743.4" r="3.5" fill="#e8e8e8"/>
    <circle cx="225.5" cy="743.4" r="3.5" fill="#e8e8e8"/>
    <circle cx="3.5" cy="817.4" r="3.5" fill="#e8e8e8"/>
    <circle cx="77.5" cy="817.4" r="3.5" fill="#e8e8e8"/>
    <circle cx="151.5" cy="817.4" r="3.5" fill="#e8e8e8"/>
    <circle cx="225.5" cy="817.4" r="3.5" fill="#e8e8e8"/>
    <circle cx="3.5" cy="891.4" r="3.5" fill="#e8e8e8"/>
    <circle cx="77.5" cy="891.4" r="3.5" fill="#e8e8e8"/>
    <circle cx="151.5" cy="891.4" r="3.5" fill="#e8e8e8"/>
    <circle cx="225.5" cy="891.4" r="3.5" fill="#e8e8e8"/>
</svg>
