<svg xmlns="http://www.w3.org/2000/svg" width="540" height="620" viewBox="0 0 540 620">
    <path fill="#ffb676" opacity=".1" d="M2.5 21.9c-.8 0-1.7-.1-2.5-.2v-1.8c.9.2 1.7.3 2.5.3 4.1-.2 5.9-.4 14.5-3.1 7.8-2.4 18.6-7.1 24.4-9.6l1.6-.8c5.3-2.3 15.1-3.4 25-2.8 9.2.6 18.7.3 27.4-.9 2.6-.4 5.6-1.5 8.8-3h4c-4.7 2.4-8.9 4.3-12.6 4.8-8.8 1.2-18.4 1.5-27.8.9-9.6-.6-19 .4-24.1 2.6l-1.7.8c-5.8 2.5-16.7 7.2-24.6 9.7-8.7 2.7-10.6 2.9-14.9 3.1zm16.9 174.2c5.9 14.1 15.9 22.4 27.5 22.7 12.4.4 21.2-1.8 26.1-6.4 4.3-4.1 9.1-4.2 16.2-.5 5.9 3.1 13.7 6.4 22 4 3.5-1.1 7-3.4 10.4-5.6 4.1-2.7 8.1-5.2 11.6-5.4h1c6.4-.3 11.1-.5 13.6 5.1 2.9 6.2 6.4 10.2 15.2 11.2 8.1.9 13.3 1.9 17.8 7.4 1.2 1.5 12 14.9 18.1 15.7 1.8.2 4 .5 6.2.7 3.2.4 6.4.7 8.3 1.1 3.2.6 16.5 6.5 22.1 11.4 6.1 5.2 21.6 11.8 27.6 11.8H266c6.1 0 14.1-.5 16.6-6.8 2.8-7 2.6-12.4-6.9-17.7-9.1-5.1-20.3-13.3-22.5-17.5-2.2-4.1-11.8-16.5-20.3-20.3-3.5-1.6-8.7-3.4-14.2-5.3-7.2-2.5-14.7-5.1-19.2-7.5-8-4.2-14.6-19.6-15.9-23.2-.1-.2-.2-.5-.3-.9-2-6-8-24.3-23.4-24.3-2.7 0-4.1 1.4-5.6 3-1.7 1.7-3.8 3.9-8.6 5.7-5.9 2.2-8.9 2.2-11.7 2.2-1.7 0-3.3 0-5.3.5-2.7.6-5.6 3.1-8.6 5.7-3.3 2.8-6.6 5.7-9.3 5.9-.3 0-.7 0-1 .1-5.3.3-10.8.7-20.1-10.2-8.4-9.6-13.1-11.2-16.8-12.5-1-.3-1.9-.6-2.7-1A51.6 51.6 0 0 1 49 126.8c-7.2-10.9-12.9-18.7-25.8-27.3C15.7 95 7.8 93.3 0 92.8v1.8c7.5.5 15 2.1 21.8 6.6 12.6 8.3 18.2 16 25.2 26.7 6.8 10.3 15.7 16 22 19 1 .5 1.9.8 2.9 1.1 3.7 1.3 8 2.7 16.1 12 10 11.5 16.1 11.1 21.6 10.8l1-.1c3.3-.2 6.9-3.3 10.4-6.3 2.8-2.4 5.6-4.8 7.9-5.3 1.8-.4 3.4-.4 5-.4 2.9 0 6.2 0 12.4-2.3 5.2-2 7.5-4.4 9.2-6.1 1.5-1.5 2.4-2.4 4.3-2.4 14.1 0 19.8 17.4 21.7 23.1l.3.9c1.4 4 8.2 19.7 16.7 24.2 4.6 2.4 12.2 5 19.5 7.6 5.5 1.9 10.7 3.7 14.1 5.2 7.7 3.5 17.2 15.3 19.5 19.5 2.6 5 15.1 13.6 23.2 18.2 8.4 4.7 8.6 9.1 6.1 15.5-2.3 5.7-10.9 5.7-16.5 5.6h-1.3c-5.6 0-20.6-6.5-26.4-11.4-6.1-5.2-19.7-11.2-22.9-11.8-1.9-.4-5.2-.7-8.4-1.1-2.1-.2-4.3-.5-6.1-.7-3.8-.5-11.4-8.2-16.9-15.1-4.9-6-10.5-7.1-19-8-8.1-.9-11.1-4.3-13.8-10.2-3-6.7-9-6.5-15.3-6.2h-1c-4 .2-8.1 2.9-12.5 5.7-3.3 2.1-6.6 4.3-9.9 5.3-7.6 2.3-15-.9-20.6-3.8-5.2-2.8-12-5.2-18.2.7-4.5 4.2-13.1 6.3-24.9 6-10.8-.3-20.3-8.2-25.9-21.7-5.9-14-11.8-22.6-18.7-27.1-.8-.5-1.5-1-2.3-1.4v2.1c.4.3.9.5 1.3.8 6.3 4.3 12.1 12.7 17.8 26.3zM4.8 65.3c6.6 0 11.8-1.7 15.7-5.2 5-4.5 4.9-11.5 4.3-15.3-.5-3.3-6-3.6-9.9-3.8h-.5c-1.9-.1-4.1.5-6.6 1.1-2.1.6-4.3 1.2-6.2 1.2H0v1.8h1.6c2.1-.1 4.4-.7 6.6-1.3 2.3-.6 4.4-1.2 6-1.1h.5c2.6.1 8 .5 8.3 2.3.5 3.4.7 9.8-3.7 13.7-3.9 3.4-9.1 4.9-16.1 4.7-.9 0-2-.2-3.2-.4v1.8c1.2.2 2.3.4 3.2.4.5.1 1.1.1 1.6.1zM200.9 25c3.2 5.6 6.4 11.5 11.6 17 11 11.7 18.1 13 24.4 13.4h.8c3.5 0 5.8-1.4 7.1-2.7 1.7-1.6 2.8-3.9 2.8-5.8 0-2.5-3-6.6-7.1-12.3-1.1-1.6-2.4-3.2-3.6-4.9-4.7-6.7-7.7-14.9-10.1-27.5l-.3-2.1h-1.8c.1.9.2 1.7.4 2.5 2.4 12.8 5.5 21.2 10.3 28.1 1.2 1.7 2.4 3.4 3.6 5 3.5 4.8 6.8 9.3 6.8 11.2 0 1.2-.7 3.1-2.2 4.5a8.63 8.63 0 0 1-6.6 2.2c-6.2-.4-12.6-1.6-23.2-12.8-5-5.3-8.2-11-11.3-16.6-3.3-5.9-6.7-12-12.3-17.4-2.5-2.5-4.9-4.7-7.2-6.7h-2.7C183 2.4 185.9 5 189 8c5.2 5.2 8.5 10.9 11.9 17zm57-6.9c2.8 6.2 6.6 14.8 11.2 27.4 6.5 17.8 5 32.7 4.1 41.6-.1.8-.2 1.5-.2 2.2-.9 8.3 1 14.7 3.2 17.3 1.4 1.6 9.5 10.8 15.8 16.4 5.4 4.8 6.8 15.9 6.5 22.1-.3 6.1-.1 11.6 5.9 16.4 6 4.8 20.2 14.4 23.8 16.7 3.6 2.2 11.5 12.3 12.6 19.3.9 5.5-.4 17.7-1.3 25.8-.2 2.1-.4 4-.6 5.4-.5 5.2 1.3 8.9 2.8 12.3.6 1.2 1.1 2.4 1.5 3.5.8 2.5-.9 5.8-2.8 9.4a38.1 38.1 0 0 0-2.8 6.3c-.4 1.2-1 2.7-1.7 4.3-2.3 5.7-5.2 12.7-3 18.8 3.1 8.5 11.6 13.4 22.2 12.8 9.2-.5 16.7-5.5 20.7-8.2.9-.6 1.7-1.1 2.2-1.4 1.4-.7 3.2-2.7 5.8-5.3 4-4.1 10.1-10.3 18.2-16 10.2-7.3 16.9-15 22.3-21.2 1.7-1.9 3.3-3.8 4.8-5.3 4.3-4.5 5.7-13.5 3.8-25.9-.3-2.1-1.8-13-1.5-20.9.3-6.4 4.6-17.6 12-25.8 7.3-8.2 18.3-14.6 27.4-16 4-.6 7.7.5 10.4 3.1s4.3 6.4 4 9.9c-.5 6.5-11.8 16.9-16.9 20.7-4.7 3.6-9.8 9.7-10.1 16.1-.2 3 .8 6.6 1.9 10.7 1.1 4.4 2.4 9.3 2.8 14.9.5 5.5-.8 7.2-2.1 8.9-1.2 1.6-2.6 3.4-2.6 8 0 9.5 7.8 10.9 16.8 12.5l1.5.3c9.7 1.8 13.9 10.1 16 14.1 2.4 4.7 5.3 10.4 11.1 17.9 6.7 8.7 16.1 18.8 30.3 20.2 2.2.2 4.3.5 6.2.8v-1.8c-1.9-.3-3.9-.6-6-.8-13.5-1.4-22.6-11.2-29.1-19.6-5.6-7.3-8.5-13-10.9-17.7-2.2-4.2-6.7-13-17.2-15l-1.5-.3c-9.2-1.7-15.3-2.8-15.3-10.8 0-4 1.1-5.4 2.2-6.9 1.5-1.9 3-3.9 2.5-10.1-.4-5.7-1.7-10.8-2.9-15.2-1-4-2-7.5-1.8-10.2.3-5.8 5.1-11.4 9.4-14.7 4.3-3.2 16.9-14.2 17.6-21.9.3-4.1-1.4-8.4-4.5-11.3-3.2-3-7.4-4.2-11.9-3.5-9.6 1.5-20.8 8-28.4 16.6-7.8 8.6-12.1 20.1-12.4 27-.3 8.1 1.2 19.1 1.5 21.3 1.7 11.9.6 20.3-3.4 24.5-1.5 1.6-3.1 3.4-4.8 5.4-5.4 6.1-12.1 13.8-22 20.9-8.3 5.9-14.4 12.1-18.5 16.2-2.4 2.4-4.3 4.4-5.4 5-.6.3-1.4.9-2.3 1.5-4.1 2.8-11 7.4-19.8 7.9-9.8.5-17.6-3.9-20.4-11.6-2-5.4.8-12.1 3-17.5.7-1.6 1.3-3.1 1.7-4.4.6-1.9 1.7-4 2.7-6.1 2-3.9 3.9-7.6 2.9-10.8-.4-1.2-1-2.4-1.5-3.7-1.5-3.3-3-6.6-2.6-11.4.1-1.4.3-3.3.6-5.4.9-8.2 2.2-20.5 1.2-26.2-1.1-7.2-9.2-17.9-13.4-20.5-3.5-2.2-17.6-11.8-23.6-16.5-5.4-4.3-5.6-9.1-5.3-15 .4-6.6-1.2-18.3-7.1-23.5-5.6-5.1-13.5-13.8-15.6-16.2-1.4-1.6-3.7-7-2.8-15.9.1-.7.1-1.4.2-2.2.9-9 2.4-24.2-4.2-42.4-4.6-12.7-8.4-21.2-11.2-27.5-1.5-3.4-2.7-6.1-3.6-8.4-.9-2.5-1.4-5.7-1.5-9h-1.8c.1 3.5.6 6.9 1.6 9.6.6 1.8 1.9 4.6 3.4 8zM287.7 86c1.2-4.7 2.3-9.2 1.9-12.8-.3-2.7-1.2-5.6-2-8.4-1-3.3-1.9-6.4-1.8-8.8.2-4.3 1.2-8.8 6.8-9 5.4-.3 13.7 1.5 18.9 6.2.6.5 1.3 1.1 2.2 1.9 6 5.2 17.2 14.9 17.9 22v.2c.8 7.7 1.2 11.6-1.8 15.1-2 2.3-4 6.7-5.2 9.4-.5 1-.8 1.8-1.1 2.3l-.2.3c-3.7 6.2-7.5 9.4-11.5 9.4H307.5c-4.2 0-8.3-.3-12.6-3.1-5.4-3.4-10.3-7.7-9.1-16 .4-2.8 1.2-5.8 1.9-8.7zm1.7.4c-.7 2.9-1.5 5.8-1.9 8.6-1 6.9 2.6 10.7 8.3 14.2 4.7 2.9 8.9 2.9 13.8 2.8h2.2c3.3 0 6.6-2.9 9.9-8.5l.2-.3c.2-.4.6-1.2 1-2.1 1.3-2.9 3.3-7.3 5.5-9.8 2.5-3 2.2-6.4 1.4-13.8v-.2c-.7-6.4-11.9-16.1-17.3-20.8-.9-.8-1.6-1.4-2.2-1.9-4.8-4.3-12.1-5.8-16.6-5.8h-1.1c-4 .2-4.9 2.9-5.1 7.4-.1 2.1.8 5.1 1.7 8.2.9 2.9 1.7 5.9 2.1 8.7.5 3.8-.6 8.4-1.9 13.3zm-218.1 109c.5 1.4-.1 2.6-.3 2.9-1 1.6-3.7 4.1-10.6 6.5-3.6 1.3-6.5 1.6-8.7 1.6-1.9 0-3.4-.3-4.6-.5-.5-.1-1-.2-1.5-.2-2.6-.3-4.3-4.4-5.9-8.9-.2-.7-.5-1.3-.6-1.7-.6-1.4-4.4-4.4-6.7-6a4.6 4.6 0 0 1-1.9-4.4c.2-1.2 1-2.1 2.1-2.5 2.7-1 5.9-1.6 10.7-2 4.8-.4 7.3 1.5 9.7 3.4.5.4 1 .8 1.6 1.2 2.9 2 7.5 4.5 12.7 6.9 2.2 1 3.6 2.2 4 3.7zm-1.6.6c-.3-1-1.4-1.9-3.1-2.7-5.3-2.5-10-5-12.9-7.1-.6-.4-1.1-.9-1.7-1.3-2.3-1.8-4.4-3.4-8.4-3.1-5.8.5-8.5 1.3-10.3 2-.6.2-.9.6-1 1.1-.2 1 .3 2.1 1.2 2.7.7.5 6.3 4.5 7.3 6.8.2.4.4 1 .7 1.8.8 2.3 2.7 7.6 4.4 7.8.5.1 1 .1 1.6.2 2.7.4 6.3 1.1 12.5-1.1 7-2.5 9.1-4.8 9.6-5.7 0-.1.3-.7.1-1.4zM14.4 5.9c1.4-.5 3.1-1.3 5-2.2C21.9 2.5 24.8 1.2 28 0h-4.8c-1.7.7-3.2 1.5-4.6 2.1-1.9.9-3.5 1.7-4.8 2.1C10.1 5.6 4.9 6.4 0 6.3v1.8h.2c5 0 10.3-.8 14.2-2.2zm59.1 13.8c3.4-.6 6.9-.9 10.6-1.3 10.1-1 21.5-2.1 35.2-8.6 19-8.9 36.7-8.2 44.1-6.3 2 .5 19.7 5.6 27.9 32.1 5.3 17.5 14 24.1 19.7 28.5 1.3 1 2.5 1.9 3.4 2.8 3.7 3.4 12 4.6 18.6 5.5 3.3.5 6.2.8 7.9 1.4.7.3 1.6.6 2.6 1 2.9 1.2 6.5 2.7 9.9 2.7 1.4 0 2.7-.2 3.9-.8 2.4-1.2 4.2-3.6 5.2-7.3 2.9-10.3-.4-17.4-2.8-22.6-.7-1.5-1.3-2.8-1.6-3.9-.7-2.2-2.6-5.3-5.1-9.2-3.3-5.4-7.4-12-9.7-18.6-1.6-4.9-2.5-10.2-3-15h-1.8c.5 5 1.4 10.5 3.1 15.6 2.3 6.8 6.5 13.5 9.8 18.9 2.3 3.7 4.2 6.8 4.9 8.8.4 1.2 1 2.6 1.7 4.1 2.3 5 5.4 11.8 2.7 21.4-.9 3.1-2.3 5.2-4.3 6.2-3.6 1.8-8.7-.4-12.3-1.9-1-.4-1.9-.8-2.7-1.1-1.9-.6-4.8-1-8.2-1.5-6.4-.9-14.3-2-17.6-5-1-.9-2.2-1.9-3.5-2.9-5.9-4.5-14-10.7-19.1-27.6-6.4-20.9-19.7-31-29.1-33.3-7.7-1.9-25.9-2.7-45.3 6.5-13.4 6.3-24.7 7.4-34.6 8.4-3.8.4-7.3.7-10.8 1.3-12.7 2.1-37.1 7-48.5 10.9-7.2 2.4-16.3 4.6-24.7 5.3V36c10.7-.9 21.4-4.2 25.3-5.5 11.3-3.7 35.5-8.6 48.2-10.8zM6.7 141.8c3.4-.9 6.9-1.8 11.8 2.7 1 1.7 10.3 17.7 18.2 20.1 7.2 2.2 13.5 3.6 19.1 4.2 4.6.5 14.2 9 15.4 10.4 1.1 1.3 12 11.7 17.9 13.3 4 1.1 7.3 1.6 9.6 1.6 2.7 0 4.4-.7 5-2.1.7-1.5.6-3.4-.1-5.1-.9-2-3-4.8-8.4-6.8-4.1-1.5-6.5-2.1-8.4-2.7-1.8-.5-3.1-.9-5.1-1.7-2-.8-2.5-1.8-3.5-3.5-.9-1.6-2.1-3.5-4.8-6.1-5.2-4.9-7.8-6.2-12.4-8.4l-1.4-.7c-5.8-2.7-11.9-9-16.8-17.3-4.6-7.7-13.3-22.1-27.7-28.4-5-2.2-10.1-2.9-15.2-2.8v1.8c4.9 0 9.7.6 14.4 2.7 13.9 6 22.4 20.1 26.9 27.6 5 8.6 11.5 15.1 17.6 18l1.4.7c4.6 2.2 7 3.3 12 8.1 2.5 2.4 3.6 4.3 4.5 5.7 1 1.8 1.9 3.2 4.4 4.2 2.1.9 3.5 1.3 5.4 1.8 1.9.5 4.2 1.2 8.3 2.6 4.8 1.7 6.6 4.1 7.4 5.8.6 1.3.6 2.7.1 3.7-.3.6-2 2.3-12.6-.5-5.4-1.5-16-11.5-17.1-12.7-1-1.2-11.1-10.3-16.6-11-5.6-.7-11.7-2-18.9-4.2-7.6-2.3-17.2-19.2-17.3-19.4l-.2-.2c-5.7-5.3-10-4.1-13.5-3.2l-1.2.3c-1.1.3-3 .7-5.1 1.3v1.8c2.3-.6 4.3-1.1 5.5-1.4.6 0 1-.1 1.4-.2zm298.3-50c-2.1-2.1-3.8-6.3-3.6-9.1.2-2.6.8-7.5 2.2-9.4 1.3-1.7 3.9-3 9.2.5 4.2 2.8 5.7 7 4.2 11.7-1.1 3.4-5.1 7.5-8.8 7.7h-.2c-1 0-2.1-.5-3-1.4zm-1.8-9c-.1 2 1.2 5.9 3.1 7.7.4.4 1.1 1 1.8.9 2.6-.2 6.2-3.4 7.2-6.5.8-2.3 1.3-6.5-3.4-9.7-3.3-2.2-5.6-2.5-6.8-.9-1 1.3-1.7 5.3-1.9 8.5zm207.6-45.1c2.7.3 12.1 1.4 18.5 3.6 3.3 1.1 6.8 1.9 10.7 2.5V42c-3.7-.6-7-1.4-10.1-2.4-6.4-2.2-15.3-3.3-18.9-3.6-3.3-.4-6.2.9-7.4 3.1-1 1.8-.6 3.9 1 5.8 3.4 4 16.1 8.5 23 9.8 2.8.5 7.7 2.5 12.4 4.5v-1.9c-4.5-1.9-9.2-3.8-12-4.3-6.6-1.2-19-5.7-22-9.2-1.1-1.3-1.4-2.6-.8-3.8.8-1.7 3-2.6 5.6-2.3zm-16.7-9c-.9.5-2 1-3.1 1.7-3.1 1.7-7 3.8-10 4.5l-.5.1c-4.2.9-9.4 2-9.4 6.7v.3c0 4 0 8.5 11.3 8.9 9.7.3 14.6 4.4 18.3 8.9 3.3 3.9 10 7 15.3 8.3 1.9.5 4.4.4 7.3.3 4.6-.2 9.8-.4 13.5 1.7 1 .6 2.1 1.1 3.1 1.6v-2c-.8-.4-1.5-.8-2.3-1.2-4.2-2.4-9.7-2.2-14.5-2-2.7.1-5.2.2-6.8-.2-5-1.3-11.3-4.1-14.3-7.7-3.8-4.5-9.2-9.2-19.7-9.5-9.5-.3-9.5-3.3-9.5-7.1v-.3c0-3 3.3-3.9 8-4.9l.5-.1c3.2-.7 7-2.8 10.4-4.6 1.1-.6 2.2-1.2 3.1-1.6 3.4-1.7 12.4-2.9 19.8-.5 7.1 2.1 18.8 4.4 25.3 4.9v-1.8a154 154 0 0 1-24.7-4.9c-7.9-2.6-17.4-1.4-21.1.5zm-5.5 111.6l3.2.3c7.2.8 13.8 4.2 18.7 6.7.6.3 1.3.6 1.8.9 2.9 1.5 7.6 4.6 11.8 7.4 2.6 1.8 5.1 3.4 6.8 4.4 1.8 1.1 5.3 2.2 9.1 3.1v-1.8c-3.4-.9-6.6-1.9-8.1-2.8-1.7-1-4.2-2.7-6.8-4.4-4.2-2.8-9-6-12-7.5l-1.8-.9c-5-2.6-11.8-6.1-19.3-6.9l-3.3-.3c-6.5-.6-10.8-.9-13.2-6.8-3-7.3-1.9-17.8 1.1-21.3.5-.6 1.1-1.3 1.7-2.1 3-3.8 7-9 13-10.6 3.3-.9 6-2.3 8.2-3.4 2.7-1.4 4.6-2.4 6.5-1.9 3.2.7 7.6 1.5 11.2 2.1l2.1.3c3.9.7 13.6 1.5 19.3.6.4-.1.9-.1 1.5-.2v-1.8c-.6.1-1.2.2-1.7.2-5.4.9-15 0-18.7-.6l-2.1-.4c-3.6-.6-8-1.3-11.1-2-2.5-.6-4.8.6-7.7 2.1-2.2 1.1-4.6 2.4-7.8 3.2-6.5 1.8-10.8 7.2-13.9 11.2-.6.8-1.1 1.5-1.7 2.1-3.7 4.3-4.3 15.8-1.3 23.1 2.6 6.9 7.8 7.4 14.5 8zm18.8-30.4c2.5-.1 8.3.3 14 .7 5.8.4 11.8.9 14.5.8 1-.1 2.2-.1 3.6-.2h.5v-1.8h-.6c-1.4.1-2.6.2-3.6.2-2.6.1-8.6-.3-14.3-.8-6-.5-11.6-.9-14.2-.7-5.2.3-11.4 4.3-12.7 11.1-.5 2.3-.1 4.3.9 5.8 1.6 2.4 4.7 3.2 6.9 3.5 3.3.5 11.5 4 20.2 9.4 2.9 1.8 4.8 3.4 6.2 4.6 2.9 2.4 4.6 3.9 10.5 4.1h.7v-1.8h-.7c-5.3-.2-6.7-1.4-9.4-3.7-1.5-1.3-3.4-2.9-6.5-4.8-9-5.5-17.3-9-20.8-9.6-1.9-.3-4.5-1-5.8-2.8-.8-1.1-1-2.6-.6-4.5 1.2-5.8 6.6-9.2 11.2-9.5zm-.5 104c1.9-1.2 5.3-1 7-.1 1.5.8 4.2 3 6.7 5.1 2.2 1.8 4.3 3.6 5.7 4.4 3.3 2 9.1 3.7 13.2 4h.5v-1.8h-.3c-3.9-.3-9.3-1.9-12.4-3.8-1.3-.8-3.4-2.5-5.5-4.2-2.6-2.2-5.3-4.4-7.1-5.3-2.2-1.1-6.2-1.3-8.8.2a4.7 4.7 0 0 0-2.3 4.2c0 4.7 5.1 8.3 9.6 11.6.5.4 1 .7 1.5 1.1 2.1 1.6 4.9 3.2 8.2 5 3.7 2.1 7.9 4.4 12 7.2 2.7 1.9 4.2 3.8 5.1 5.7v-3.4c-1-1.3-2.3-2.5-4.1-3.8-4.2-2.9-8.4-5.3-12.1-7.3-3.2-1.8-6-3.3-8-4.9-.5-.4-1-.7-1.5-1.1-4.1-3-8.9-6.4-8.9-10.1 0-1.2.5-2 1.5-2.7zm-23.1 3.9c-1.8 7.9.7 10.8 3.9 14.5l.7.8c3.1 3.6 10.8 6.3 19.7 9.4 2 .7 4.1 1.4 6.2 2.2 9.5 3.5 10.9 11.4 11.5 15.2l.1.7c.5 2.8 4 14.4 12 19.9.7.5 1.4.9 2.1 1.3v-2.1c-.4-.2-.7-.5-1.1-.7-7.4-5.1-10.7-16.1-11.2-18.7l-.1-.7c-.6-3.8-2.1-12.8-12.7-16.6-2.1-.8-4.2-1.5-6.2-2.2-8.3-2.9-16.2-5.6-18.9-8.8l-.7-.8c-3.1-3.5-5.1-5.9-3.5-12.9.6-2.7 1.2-4.4 1.6-5.9 1-3 1.6-5 1.4-10.6-.3-7.9 8.6-20.1 11.6-22.7.5-.4 1-.9 1.5-1.3 2.7-2.5 6.1-5.6 8.9-4.4 4.1 1.8 7.4 6.8 8.7 13.3l.2.9c1.6 7.9 3.7 18.7 9 20.6.8.3 1.7.6 2.8 1.1 2.3.9 5.3 2.1 8.8 3.2v-1.9c-3.3-1.1-6-2.1-8.2-3-1.1-.4-2-.8-2.8-1.1-4.3-1.6-6.5-12.2-7.9-19.2l-.2-.9c-1.4-7.1-5-12.5-9.7-14.5-3.8-1.7-7.9 2-10.8 4.8-.5.5-1 .9-1.4 1.3-3.3 2.8-12.5 15.5-12.2 24.1.2 5.4-.4 7.1-1.3 10-.6 1.1-1.2 3-1.8 5.7zm-4.6 171.1c.4 7.5 5.4 14.1 14.9 19.7 3.6 2.1 7.6 3 11.8 3.9 8.5 1.8 18.1 3.9 29.2 17 1.9 2.2 3.5 4.5 4.9 6.9v-3.3c-1.1-1.6-2.2-3.2-3.5-4.7-11.5-13.6-21.5-15.7-30.2-17.6-4-.9-7.8-1.7-11.2-3.7-9-5.3-13.7-11.4-14.1-18.3-.1-2 .3-3.9.6-6 .7-4 1.6-8.6-.7-14.8-1.3-3.6-1.3-6.6 0-8.7 1.6-2.5 4.7-3.3 6.4-3.4l1.3-.1c5.2-.6 12.3-1.4 17.6 1 5.8 2.7 10.8 8.7 13.1 15.8 2.7 8.3 14.2 8.3 18 8.3.8 0 1.7 0 2.7-.1V379c-1 0-1.9.1-2.7.1-9.5 0-14.8-2.3-16.4-7.1-2.4-7.5-7.8-14-14.1-16.8-5.7-2.6-13.1-1.7-18.5-1.1l-1.3.1c-3.5.4-6.2 1.9-7.7 4.3-1.6 2.6-1.7 6-.1 10.2 2.1 5.8 1.3 9.9.6 13.9-.3 2.1-.7 4.2-.6 6.3zM376.8 257.8c-.3 3.1-4.3 11.4-6.3 13.4l-.2.3c-1.7 2.9-4.1 6.9-8.6 8-1.2.3-2.3.4-3.3.4-3 0-5.1-1.3-6.7-4.3-2.9-5.3-2.3-9.3 1.8-11.9 1.3-.8 2.2-1.5 3.2-2.2 2.1-1.6 3.9-3 8.9-4.8 1.2-.4 2.3-.8 3.3-1.2 3.5-1.3 5.6-2.1 7-1.1 1 .9 1 2.3.9 3.4zm-2-1.9c-.1-.1-.2-.1-.4-.1-.9 0-2.9.8-4.8 1.5-1 .4-2.1.8-3.4 1.2-4.7 1.7-6.4 2.9-8.4 4.5-.9.7-1.9 1.4-3.3 2.3-3.2 2-3.6 5.1-1.2 9.5 1.8 3.2 3.9 3.9 8.1 3 3.8-.9 5.8-4.4 7.4-7.2l.4-.8h.1c1-1.5 5.3-8.4 5.7-12.3.1-1.3-.1-1.5-.2-1.6zm75.8 43c1.1 3.8 2.2 7.8-.9 9.2-1.5.7-3.3 1-5.1 1-2.3 0-4.8-.5-7.5-1.6-2.3-.9-4.3-.5-6.1-.1-1.5.3-3 .6-4.5.2-1.8-.5-3.8-1.8-4.2-3.9-.2-1.2 0-3.1 2.7-5.4l1.8-1.5c4-3.3 7.4-6.1 12.1-6.1 5.4 0 10.2 1.9 10.8 4.2.1 1.3.5 2.7.9 4zm-1.8.5c-.4-1.4-.8-2.8-1-4.1-.2-.9-3.9-2.8-9-2.8-4 0-7.1 2.5-11 5.7l-1.8 1.5c-1.1.9-2.4 2.3-2.1 3.6.3 1.3 1.8 2.1 3 2.5 1.1.3 2.2.1 3.6-.2 1-.2 2.2-.5 3.6-.5 1.1 0 2.3.2 3.6.7 4.3 1.8 8.2 2 11.2.6 1.6-.6 1-3.2-.1-7zm28.8 39c-4.9.4-11.1.9-17.3-.2-10.4-1.8-14-6.9-17.4-11.7l-.4-.5c-3.4-4.8-11.5-10.5-17-11.9-4.5-1.1-6.7-1.4-12.1-1.9l-.8-.1c-3.2-.3-5.7-1.8-7.2-4.1a8.28 8.28 0 0 1-.9-7.2c1.6-4.9 9.5-13.6 15.4-15.7 1-.3 2-.7 3.1-1.2 5.5-2.2 13.1-5.2 24.8-4.8 13.3.5 14.6 8.1 15.4 12.7.1.5.2.9.2 1.3.1.7.2 1.4.4 2.2.7 4.3 1.5 10.3 9.2 18.2 7.3 7.6 13.5 7.9 20 8.3l4.4.3c9.1.9 14.4 5.3 16.5 14 .7 2.8.4 4.8-.8 6-1 1.1-2.6 1.4-4.2 1.4-1.5 0-3.2-.3-4.5-.5-.5-.1-.9-.2-1.3-.2-2-.3-4.9-1.2-7.9-2.2-3.1-1-6.4-2.1-9-2.5-2.1-.2-5.1.1-8.6.3zm6-2.1c1 0 2 .1 2.9.2 2.8.5 6.1 1.5 9.3 2.6 3 1 5.8 1.9 7.6 2.1.4.1.9.1 1.4.2 2.4.4 5.8 1.1 7.1-.3.7-.8.9-2.3.3-4.4-1.9-7.8-6.7-11.8-14.9-12.6-1.5-.2-2.9-.2-4.3-.3-6.6-.4-13.3-.8-21.1-8.8-8.1-8.3-9-14.6-9.7-19.2l-.3-2.1c-.1-.4-.2-.9-.2-1.4-.8-4.6-1.8-10.8-13.7-11.2-11.3-.4-18.7 2.5-24.1 4.6-1.1.5-2.2.9-3.2 1.2-5.4 1.9-12.8 10-14.2 14.5-.6 2-.4 4 .7 5.7 1.2 1.9 3.3 3 5.9 3.3l.8.1c5.3.5 7.7.8 12.3 1.9 5.8 1.5 14.4 7.5 18 12.5l.4.5c3.4 4.8 6.6 9.3 16.3 11 6 1 12 .5 16.8.2 2-.1 4.1-.3 5.9-.3zM539 189.7c-.2 1-.1 2.4 1 4.1v-5.9c-.5.4-.9 1.1-1 1.8zm-17.7 202.2c0 3.2 0 7.2-4.3 8.3-.7.2-1.4.3-2.2.3-3.8 0-8.9-1.8-12.8-5.5-2.7-2.5-4.2-6-4.1-9.3 0-1.7.6-3.2 1.4-3.9 2.2-1.8 8.9-1.4 12.3.8.4.3.8.5 1.3.8 3.8 2.3 8.4 5.2 8.4 8.5zm-1.8 0c0-2.4-4.3-5.1-7.5-7.1-.4-.3-.9-.5-1.3-.8-1.9-1.2-4.6-1.7-6.8-1.7-1.6 0-2.9.3-3.5.7-.3.3-.8 1.1-.8 2.6-.1 2.2.8 5.5 3.5 8 4.2 4 10.2 5.6 13.4 4.8 2.8-.6 3-2.9 3-6.5zM378.9 49c.6 3.3.4 5.6-.8 7-1.4 1.6-3.6 1.6-5.4 1.6-3.6 0-6.4-2.1-8.1-5.8-1.7-4-4.2-7.2-6.7-8.7l-.2-.1s-2.1-1.8-4.7-2.4c-1.8-.4-4.3-1.9-6.9-3.6-1.8-1.1-3.6-2.2-5.1-2.9-1.9-.8-2.2-1.9-2.2-2.7.1-1.9 2.5-3.4 4.7-4.1 3.6-1 8.3.7 10.5 2.1l.3.2c2.4 1.5 6.8 4.2 12.8 6.1 6.2 2.1 10.3 5 11.8 13.3zm-1.8.4c-1.3-7.6-4.7-10-10.5-11.8-6.3-2-10.8-4.8-13.2-6.3l-.3-.2c-2.4-1.5-6.4-2.7-9.1-1.9-1.9.6-3.4 1.8-3.4 2.5 0 .4.8.8 1.1 1 1.6.7 3.5 1.9 5.3 3 2.4 1.5 4.8 3 6.3 3.3 2.8.6 5 2.4 5.4 2.7 4 2.4 6.5 7.4 7.4 9.5 1.4 3.1 3.6 4.8 6.5 4.8 1.6 0 3.2 0 4-1 .9-1 1-2.9.5-5.6zM292 12.8c6.2 5.7 15.3 12.1 20.2 14.4 5 2.2 16.2 11.5 17.6 14.1 1.8 3.3 8.5 9.3 14.2 12 .6.3 1.3.6 2.1.9 6.3 2.8 16.8 7.6 20 14.2 3.7 7.5 6.5 13.4-.6 23.1-3.7 5-9.1 11.2-13.8 16.6-4.7 5.3-8.8 9.9-10.2 12.4-.3.6-.8 1.2-1.2 2-3.5 5.5-9.4 14.6-2 23.3 5.1 6 9.7 7.6 14.1 9.2 2.5.9 5 1.8 7.3 3.5 6.5 4.6 8.9 7.5 7.8 20.3-1.1 12.8-.3 33.9 4.6 41.1 5.3 7.6 12 11.8 18.6 11.8.7 0 1.5-.1 2.2-.2 7.8-1 11.6-8.9 10.8-22.2-.2-2.8-.6-5.8-1-9-1.2-9.6-2.6-20.5.9-30 4.9-13.5 11.2-19.1 19.2-23.5 8.4-4.6 23.9-19.7 23.6-31.9 0-1.5 0-2.8-.1-4-.1-8.1-.1-11.1-9-14.2-10.7-3.7-23.9-8.6-30.4-14.3l-.3-.2C400 76.4 395.2 72.3 395 54v-6.9c.1-13.3.1-17.7-11.1-24.9-5.9-3.8-11.1-3.1-16.1-2.4-6.1.8-12.4 1.7-20.9-4.9-4-3.1-7.4-5.6-10.1-7.6-4-2.9-6.9-5-9-7.1h-2.4c2.3 2.7 5.6 5.1 10.3 8.6 2.9 2.1 6.1 4.4 10 7.5 9.1 7.1 16.1 6.1 22.3 5.2 4.9-.7 9.6-1.3 14.9 2.1 10.4 6.6 10.4 10.2 10.3 23.4v7c.2 19.1 5.5 23.7 12.3 29.5l.3.2c6.8 5.9 20.1 10.9 31 14.7 7.8 2.7 7.8 4.6 7.8 12.5 0 1.2 0 2.5.1 4 .3 10.6-13.4 25.2-22.6 30.3-8.3 4.6-14.9 10.5-20 24.5-3.6 9.9-2.2 21-1 30.9.4 3.2.8 6.2.9 8.9.4 7.1-.2 19.1-9.2 20.4-9.4 1.4-16.5-7.2-19.1-10.9-4.2-6.1-5.4-25.4-4.2-39.9 1.1-13.7-1.6-17-8.6-21.9-2.6-1.8-5.2-2.8-7.8-3.7-4.2-1.5-8.5-3-13.4-8.7-6.6-7.7-1.4-15.8 2.1-21.1.5-.7.9-1.4 1.3-2 1.4-2.3 5.4-6.9 10-12.1 4.8-5.4 10.2-11.6 13.9-16.7 7.8-10.5 4.5-17.2.8-24.9-3.5-7.3-14.4-12.2-20.9-15.1-.7-.3-1.4-.6-2-.9-5.6-2.6-11.9-8.5-13.4-11.2-1.6-3.1-13.3-12.6-18.4-14.9-4.7-2.1-13.8-8.6-19.8-14-3.3-3.1-4.1-7.5-3.7-11.4h-1.8c-.5 3.9.4 8.8 4.2 12.3zm9.1 24.6c8.2 1.1 10.4 2.9 14.8 6.5 2.3 1.9 5.2 4.2 9.8 7.2 14 8.9 21 19.4 21.8 25.9.8 6.5-7 17.9-15.2 30.1l-2 2.9c-9 13.3-11.5 20-10.8 28.8.7 8 6.4 24.5 23.1 35.4 14.4 9.3 15 20.1 15.8 34.9l.3 5.5c1.2 17.8 7.1 24.6 11.8 27.2 3.2 1.7 10.6 4.4 18.6 4.4 4.5 0 9.2-.9 13.4-3.3 10.9-6.3 12.8-17 13.8-22.1.1-.5.2-1 .3-1.4.3-1.6.3-4.5.3-8.5 0-7.7 0-19.3 2.4-30.4 2.4-11.1 8.4-15.8 15.4-21.3 3.4-2.7 6.9-5.4 10.4-9.2 6.5-6.9 7.9-11.8 9.7-18.1 1.3-4.6 2.8-9.8 6.6-17.2 8.2-16 .7-21.7-4.2-25.5-.8-.6-1.5-1.2-2.2-1.8-3.9-3.6-18.5-7.6-27.2-10-1.9-.5-3.4-.9-4.5-1.3-5.6-1.7-10.2-9.5-12.5-16.3-2.8-7.9 1.6-14.9 3-16.8 3.1-4.3 8.1-21.6 9.1-26.6 1-5.3.3-11.9-4.3-16.4h-2.8c5.5 3.9 6.4 10.7 5.4 16-1.1 5.5-5.9 22-8.7 25.9-1.5 2.1-6.3 9.7-3.2 18.4 2.5 7.2 7.4 15.6 13.7 17.5 1.1.3 2.7.8 4.5 1.3 8 2.2 22.9 6.3 26.5 9.6.7.6 1.5 1.2 2.3 1.8 5 3.8 11.2 8.6 3.7 23.3-3.9 7.5-5.4 12.8-6.7 17.5-1.8 6.3-3.1 10.8-9.3 17.4a90.2 90.2 0 0 1-10.2 9c-7.2 5.7-13.5 10.6-16 22.3-2.4 11.2-2.4 23-2.4 30.8 0 3.8 0 6.8-.3 8.2-.1.4-.2.9-.3 1.4-1 5.3-2.7 15-12.9 20.9-10.9 6.3-25.8 1.2-30.2-1.1-4.3-2.4-9.7-8.8-10.8-25.8l-.3-5.5c-.8-15.4-1.4-26.5-16.6-36.3-16.2-10.5-21.6-26.3-22.3-34-.5-7.3.9-13.3 10.6-27.6l2-2.9c8.8-13 16.4-24.2 15.5-31.3-1-8.4-9.9-19-22.6-27.1-4.5-2.9-7.3-5.2-9.6-7-4.5-3.7-6.9-5.7-15.7-6.9-11.6-1.6-24.4-9-26.8-22-.9-4.7-1.1-9.3-.8-13.6h-1.8c-.3 4.4-.1 9.2.8 14 2 13.6 15.5 21.5 27.8 23.2zm76.7 49.2c0-6.6 0-9.7 6.8-10.7 5.7-.9 9.3 3.7 12.5 7.8.5.6 1 1.2 1.4 1.8 3.3 4.2 11.4 9.2 15.7 11.4.6.3 1.2.6 1.9.8 3.7 1.6 7.9 3.4 9.7 12.3 1.8 8.9-1.4 12.8-3.4 15.3-.3.4-.7.8-.9 1.2-1.8 2.6-14.2 15.4-16.4 16.9-1.9 1.3-4.7 5.2-5.8 8.8-1.1 3.5-4.8 9.5-10.8 11.5-1.1.4-2.1.5-3.1.5-2.7 0-4.6-1.4-6.1-2.6-.7-.5-1.3-1-2-1.3-1.9-1-3.9-3.7-5.9-6.4-1.2-1.6-2.3-3.1-3.2-3.9-1.5-1.4-3.8-2.1-5.6-2.8-.9-.3-1.7-.6-2.4-.9-1.9-1-6.5-5.3-6.7-8.9 0-.4-.1-.9-.1-1.4-.3-3.1-.7-7.4 2.4-10.4 1.9-1.7 4.6-4.9 7.4-8.3 2.1-2.5 4.3-5.1 6.3-7.3.4-.4 5.1-6.2 6.6-7.9.8-.7 1.7-5.2 1.7-15.5zm-.5 16.8c-1.4 1.6-6.5 7.8-6.5 7.8-2 2.2-4.2 4.7-6.3 7.2-2.9 3.4-5.6 6.6-7.6 8.4-2.5 2.3-2.1 6-1.9 8.9.1.5.1 1 .1 1.5.2 2.7 4.1 6.7 5.7 7.5.5.3 1.3.5 2.1.8 2 .7 4.5 1.5 6.3 3.1 1 .9 2.2 2.5 3.4 4.2 1.7 2.4 3.7 5.1 5.3 5.9.8.4 1.5 1 2.2 1.5 2 1.5 4 3 7.6 1.8 5.3-1.8 8.7-7.3 9.6-10.3 1.1-3.6 4.1-8.1 6.6-9.8 2.1-1.4 14.3-14 16-16.5.3-.4.6-.8 1-1.3 2-2.4 4.7-5.8 3.1-13.8s-5.2-9.5-8.7-11c-.6-.3-1.3-.6-2-.9-3.2-1.6-12.4-6.9-16.3-11.8-.5-.6-1-1.2-1.4-1.8-2.8-3.6-5.7-7.2-9.8-7.2-.3 0-.7 0-1.1.1-5.2.8-5.2 2.2-5.2 8.9.1 14.7-1.6 16.3-2.2 16.8zm7.1 4.1c.4-.7.8-1.3 1.2-1.8.2-.3.4-.6.6-.8 2.1-3.1 4-6 11.9-4.9 9.3 1.3 14 3.5 14.9 7.1l.2.7c1 3.6 3.1 11.1-3.3 14.9-4.4 2.7-8.3 6-11.8 9.8-.5.6-1 1.4-1.5 2.3-1.2 2.1-2.7 4.8-5.9 6.4l-.9.4c-2.4 1.3-4.5 2.4-7.5 2.4-1.8 0-4-.4-6.8-1.5-8.9-3.3-7.4-12.5-7-14.3.8-3.5 6-8.7 7.4-9.9 2.7-1.9 6.2-7.3 8.5-10.8zm-7.4 12.3c-1.6 1.3-6.1 6.1-6.8 8.9-.4 1.6-1.7 9.4 5.8 12.3 6.6 2.5 9.1 1.2 12.9-.8l.9-.5c2.7-1.4 4-3.7 5.1-5.7a13 13 0 0 1 1.7-2.6c3.6-4 7.7-7.4 12.2-10.2 5.2-3.2 3.5-9.3 2.5-13l-.2-.8c-.7-2.7-5.2-4.6-13.5-5.7-1.1-.2-2.1-.2-2.9-.2-4.3 0-5.6 1.9-7.3 4.3-.2.3-.4.5-.6.8-.3.5-.7 1.1-1.2 1.8-2.1 3.7-5.7 9.2-8.6 11.4zM475.8 19c-2.9.1-6.2.3-9.5.8-8.6 1.2-20.7 9.8-21 22.8-.1 5.9 1.5 10.3 5.2 13.4 3.2 2.7 7.6 4.1 11.9 5.1 2.9.7 5.6 1 8.2 1.4 5.2.7 10.7 1.4 17.7 5 3.8 2 7.2 4 10.2 5.8 5.6 3.3 10.1 5.9 14.5 7.1 5.2 1.4 13 1.5 19.5 1.5h7.4V80h-4.1c-7 0-16.5.1-22.4-1.5-4.2-1.1-8.6-3.7-14.1-6.9-3-1.8-6.5-3.8-10.3-5.8-7.3-3.8-12.9-4.6-18.3-5.2-2.6-.3-5.2-.7-8-1.3-8.4-2.1-16-4.9-15.7-16.7.3-11.9 11.5-19.9 19.4-21 3.2-.5 6.5-.6 9.3-.7 4.6-.2 8.5-.4 10.9-1.8 1.4-.8 3.2-2.6 5-4.4 2.9-2.8 6.5-6.3 8.8-6.5l1.2-.1c4.5-.3 12-.9 17.5.9 2.3.8 6.3 2.4 11 4.3 3.1 1.2 6.5 2.6 9.8 3.9v-1.9c-3.1-1.2-6.3-2.5-9.2-3.6-4.7-1.9-8.7-3.5-11.1-4.3-5.8-2-13.6-1.4-18.2-1l-1.2.1c-3 .2-6.5 3.7-9.9 7-1.8 1.8-3.5 3.4-4.7 4.1-1.7 1-5.5 1.2-9.8 1.4zM540 6V4.2c-2.3-.6-4.5-1.3-6.6-2.2-1.4-.6-2.8-1.3-4.2-2h-3.8c2.4 1.3 4.9 2.6 7.4 3.6 2.2 1 4.7 1.8 7.2 2.4zM353.6 8.3l2.5.3c7.3.8 12.1 1.3 17.9-1l.7-.3c4.8-1.9 13.7-5.5 18.5-7.3h-5.1c-4.7 1.8-10.3 4.1-14.1 5.6l-.7.3c-5.4 2.2-9.8 1.7-17.1.9l-2.5-.3c-4-.4-7.3-3.3-9.8-6.5h-2.2c2.9 4 6.9 7.8 11.9 8.3zm114.6.2h3.3c8.4-.2 13.4-4.3 17-8.5H486c-3.3 3.5-7.7 6.6-14.7 6.7C456.5 7 448 5 443.8 0h-2.2c4.8 7.2 15.7 8.5 26.6 8.5zm7.9 72.2c-2.2 0-4-.6-5.3-1.9-.1-.1-.5-.2-.8-.3-1.6-.6-4.5-1.8-3.9-4.1.6-2.1 2.4-1.7 3.9-1.4 1 .2 2.2.5 3.7.5 3.5 0 7.2 2.8 7.5 4.9.1.9-.4 1.6-1.4 1.9-1.3.2-2.6.4-3.7.4zm3.4-2.3c0-.2-.2-.5-.7-1-1.1-1.1-3.1-2.3-5-2.3-1.7 0-3.1-.3-4.1-.5-.7-.2-1.2-.2-1.4-.2-.3 0-.4.1-.4.4-.2.8 1.9 1.6 2.8 1.9.8.3 1.1.4 1.4.7 1.5 1.6 3.9 1.9 7.4 1zm-165.1 532c-1-.9-1.8-1.6-2.5-2.2-5.1-4.5-13.4-6.3-18.9-6.1-5.7.2-6.6 4.7-6.9 9-.1 2.4.8 5.5 1.8 8.8h1.9c-.1-.2-.1-.3-.2-.5-.9-3.2-1.8-6.1-1.7-8.2.2-4.4 1.1-7.2 5.1-7.4h.9c5.1 0 12.3 1.7 16.8 5.7.6.6 1.5 1.3 2.5 2.2 2.4 2.1 5.8 5.1 8.9 8.2h2.4c-3.4-3.6-7.4-7-10.1-9.5zm-121.1-20.1c-6.1-19.7-19-30.9-29.1-33.3-7.7-1.9-25.9-2.7-45.3 6.5-13.4 6.3-24.7 7.4-34.6 8.4-3.8.4-7.3.7-10.8 1.3-12.7 2.2-37.1 7.1-48.4 10.9-7.3 2.5-16.5 4.7-25 5.4v1.8c10.8-.9 21.6-4.2 25.6-5.5 11.3-3.8 35.5-8.7 48.2-10.9 3.4-.6 6.9-.9 10.6-1.3 10.1-1 21.5-2.1 35.2-8.6 19-8.9 36.6-8.2 44.1-6.3 9.6 2.3 22 13.1 27.9 32.1 5.3 17.5 14 24.1 19.7 28.5.3.2.5.4.8.6h2.9c-.8-.7-1.7-1.3-2.6-2-6-4.5-14.1-10.6-19.2-27.6zM347 607.8c-.7-.3-1.4-.6-2-.9-5.6-2.6-11.9-8.5-13.4-11.2-1.6-3.1-13.3-12.6-18.4-14.9-4.9-2.2-14-8.6-19.8-14-5.5-5-4.1-13.7-1.4-18.2 1.6-2.7 9.9-16.9 11.9-27.7 1.3-6.8-.9-11.6-2.8-15.8-.9-2-1.7-3.8-2.1-5.6-1-5.4.9-16.2 2.7-20.9.4-1.1.9-2.2 1.4-3.4.5-1 1-2.2 1.6-3.4 1.4-2.7 2.6-4.9 2.6-4.9.2-.4.4-.7.6-1 2.4-3.7 9.5-18.5 11.1-23l.3-.8c1.7-4.6 5.6-15.4 3-28.4-2.8-14.2-10.6-22.9-21.3-23.8-5.9-.5-10.7-.3-15.8 0-4 .2-8.1.4-13 .3-11.7-.3-20.6-1-27.7-6.6-6.5-5.1-5.1-8.7-3.9-11.9.1-.2.2-.5.3-.7.2-.5.4-1 .7-1.6 1.6-3.3 4.1-8.3-2-18.2-4.4-7.2-11.8-12.6-18.3-17.5-3.9-2.9-7.6-5.6-10-8.2-.6-.7-1.3-1.4-1.9-2.1-5.8-6.2-11.8-12.7-12-19.8-.1-3.7 1.8-6.1 3.5-7.5 2.8-2.2 6.8-3.2 9.9-2.4 4.8 1.3 17.4 8.1 23.5 11.4 1 .5 1.8 1 2.4 1.3l.2.1c5.2 2.8 21.1 11.3 27.4 11.9 6.3.6 18.6-.7 25.4-4.8 6.5-3.8 25.3-10.9 29-11.2 4.4-.3 15.4-.5 19.5 1.1 1.2.5 2.7 1.6 4.4 2.9 4.3 3.2 10.1 7.6 18.1 7.6 8.3 0 23.5-1.9 32.7-14.6l1-1.3c7.9-10.9 16.8-23.2 27.4-26.2 11.5-3.4 23.3-4.4 34-3 12.6 1.7 19.3 6.4 20.5 14.4.4 2.6.7 5.6.9 8.8.7 8.6 1.3 16.7 5.4 19.1 2.7 1.6 7.1 1.4 12.3 1.1 5-.3 10.6-.6 14.5 1.1 7.7 3.1 12 8.1 12.2 11.5l.1 1.3c.3 4.5 1 13.7 3.3 18.6.3.6 4.8 10.3 14.8 16.9v-2.2c-6.9-4.9-11.4-11.4-13.2-15.4-2.1-4.6-2.8-13.7-3.1-18l-.1-1.3c-.3-3.7-4.6-9.4-13.3-12.9-4.3-1.8-10.2-1.5-15.3-1.2-4.6.2-9 .5-11.3-.8-3.3-1.9-3.9-10.3-4.5-17.7-.2-3.1-.5-6.2-.9-8.9-1.4-8.9-8.6-14-22.1-15.8-11-1.5-23-.4-34.8 3-11.1 3.3-20.3 15.8-28.3 26.9l-1 1.3c-8.8 12-23.4 13.8-31.3 13.8-7.4 0-13-4.2-17-7.2-1.8-1.4-3.4-2.6-4.8-3.1-4.8-2-17.2-1.5-20.3-1.3-3.9.3-23 7.4-29.8 11.4-6.4 3.8-18.5 5.1-24.4 4.6-3.9-.4-12.9-4.3-26.7-11.7l-.2-.1c-.6-.3-1.4-.8-2.4-1.3-6.2-3.3-19-10.3-23.9-11.6-3.6-1-8.2.1-11.5 2.7-2.8 2.2-4.3 5.4-4.2 8.9.3 7.8 6.5 14.5 12.5 21 .7.7 1.3 1.4 1.9 2.1 2.5 2.8 6.3 5.5 10.2 8.4 6.4 4.7 13.7 10.1 17.9 16.9 5.6 9.1 3.5 13.4 1.9 16.5-.3.6-.6 1.2-.8 1.7-.1.2-.2.5-.3.7-1.2 3.2-3 8 4.4 13.9 7.5 6 17 6.7 28.7 7 5 .1 9.2-.1 13.2-.3 5-.3 9.8-.5 15.6 0 9.9.9 17 9 19.7 22.4 2.5 12.5-1.3 23-3 27.5l-.3.8c-1.5 4.2-8.7 19.1-10.9 22.6-1 1.6-2.2 3.9-3.2 6-.6 1.1-1.2 2.4-1.8 3.6-.7 1.5-1.2 2.6-1.3 2.7h.1c-.1.3-.2.5-.3.8-1.8 4.8-3.9 16-2.7 21.9.4 2 1.3 4 2.2 6 1.8 4 3.8 8.5 2.7 14.7-2 10.7-10.7 25.5-11.7 27.1-3 5-4.5 14.7 1.8 20.4 5.9 5.5 15.2 12.1 20.2 14.4 5 2.2 16.2 11.5 17.6 14.1 1.8 3.3 8.5 9.3 14.2 12 .6.3 1.3.6 2.1.9 5 2.3 12.8 5.8 17.4 10.6h2.4c-4.4-5.9-13.2-9.9-18.8-12.4zm-87.3-35.1c-1.5-3.4-2.7-6.1-3.6-8.4-2.4-6.4-1.9-17.5.9-23.3.6-1.3 1.4-2.7 2.2-4.2 3-5.6 6.8-12.5 7.1-20.4.1-7.1-1.4-11.7-2.8-15.8-.5-1.6-1.1-3.1-1.4-4.6-.7-2.9-1-9.6-.2-16.6l1-5.6c.7-2.9 1.7-5.8 3-8.2 1.7-3.1 3.8-5.3 5.5-7.2.7-.8 1.3-1.5 1.9-2.1.6-.8 1.4-1.6 2.3-2.5 3.6-3.7 8.6-8.7 8.6-19.2 0-13.3-12.6-16.7-17.3-18l-.2-.1c-2.1-.6-8-1.5-14.9-2.5-7.3-1.1-15.5-2.4-20.2-3.4-9.6-2.3-12.1-11.3-12.3-12.4-1-3.6-5.5-9.9-10-14-4.7-4.5-15.4-3.7-23.9-1.4-5 1.3-13.7 5.5-20.7 8.8-4.4 2.1-8.2 3.9-9.9 4.5-.5.2-1 .3-1.7.5-5.2 1.6-14.8 4.6-21.6 14.3-5 7.2-3.1 17.7-1 28.8 1.1 6.1 2.3 12.4 2.4 18.6v1.4s-.5 7.7-1.6 11.8c-1.7 5.2-1.9 6.1-2.6 7.5-1.2 3-2.7 6.1-4.5 9.4-5.2 9.3-14.2 12.3-20.2 14.3-6.5 2.2-18.6 1.3-23.4.9-7-.7-16.1-1.1-22.6-1.1-6.4 0-14.8 3.8-18.9 5.7-4.6 2.1-15.9 9-19.8 11.9-3.3 2.5-15 5.3-19.2 5.9v1.8c4-.5 16.4-3.4 20.2-6.3 3.7-2.8 15-9.7 19.4-11.7 3.6-1.7 12.1-5.5 18.1-5.5 6.5 0 15.5.4 22.4 1.1 6.2.6 17.6 1.3 24.2-.9 6.2-2.1 15.6-5.2 21.2-15.1 3.4-6.2 5.8-11.9 7.2-17.1 1-3.2 1.8-7.7 1.7-13.9-.1-6.3-1.3-12.7-2.4-18.8-2-10.7-3.8-20.9.7-27.4 6.4-9.2 15.7-12.1 20.6-13.6.6-.2 1.2-.4 1.7-.5 1.8-.6 5.6-2.4 10.1-4.6 6.9-3.3 15.5-7.5 20.3-8.7 7.7-2 18.1-3 22.3 1 4.3 3.9 8.7 9.9 9.5 13.2.3 1.1 3.1 11.2 13.7 13.7 4.7 1.1 13 2.3 20.3 3.4 6.5 1 12.6 1.9 14.7 2.5l.2.1c4.4 1.2 16 4.4 16 16.3 0 9.8-4.7 14.5-8.1 17.9-.9.9-1.8 1.8-2.4 2.6-.5.6-1.1 1.3-1.8 2-1.5 1.6-3.4 3.7-5.1 6.4-.3.5-.6 1-.8 1.5-1.3 2.4-2.4 5.2-3 8.7-2 9.1-1.6 19-.8 22.7.4 1.6.9 3.2 1.5 4.8 1.3 3.9 2.9 8.4 2.7 15.2-.2 7.5-3.9 14.2-6.8 19.6l-2.3 4.3c-3 6.3-3.5 17.8-.9 24.7.9 2.3 2.1 5.1 3.6 8.5 2.8 6.2 6.6 14.8 11.2 27.4 2.5 6.9 3.8 13.4 4.4 19.2h1.8c-.6-6-1.9-12.7-4.5-19.8-4.6-13.2-8.4-21.7-11.2-28zm67.2 31.9c-4.5-2.9-7.3-5.2-9.6-7-4.5-3.7-6.9-5.7-15.7-6.9-11.6-1.6-24.4-9-26.8-22-2.6-13.9.2-26.8 7.6-34.6 1.7-1.8 3.3-3.2 4.7-4.5 5.5-5 8.5-7.8 5.4-19.2-1.3-4.7-2.7-8.8-4-12.5-1.6-4.6-3-7.6-3.6-12.1s.4-9.2 1.1-12.9c1.1-4.2 2.5-8.1 3.1-9.7.3-.7.5-1.3.8-2 .3-.8.6-1.5.9-2.3 1.4-3.3 3.2-6.7 5.2-10.3 2.7-5 5.5-10.1 7.3-15.5 3.6-10.9 3.5-24.3-7.3-29-7.4-3.2-14.6-2.1-22.2-1-3.9.6-8 1.2-12.2 1.2-12.7 0-27.8-7.1-33.9-10.9-5-3-4.3-11.5-3.7-19.7.2-2.9.5-5.9.5-8.6 0-11.9-6.5-19.9-17.4-21.4-10.7-1.5-22.2 7.2-28.4 11.9l-1.1.8c-2.9 2.2-5.7 5.9-8.4 9.6-2.9 3.9-5.8 7.9-8.8 9.7-3.7 2.3-10.1 4.9-16.8 7.6-3.9 1.6-7.9 3.2-11.6 4.8-9.1 4-14.2 16.8-16.9 23.6-.4 1-.8 1.9-1.1 2.6-1.4 3.2-1.6 10.7-1.9 19.3-.2 7.2-.5 15.3-1.5 22.1-2 14.3-7.5 22.5-7.5 22.5v.1l-.3.6c-.9 1.8-4.4 5.7-9.8 10.6-2.5 2.3-8.3 3.1-12.2 2.5-4.1-.7-13.3-6.6-16-9.5-1.3-1.4-2.5-2.2-3.5-2.9-1.4-.9-2.5-1.7-4-3.7-1.8-2.5-3.2-4.4-4.5-6 0-.1-.1-.1-.1-.1-3.8-5.9-7.5-11.8-11.1-17.8-3.8-6.3-11.4-28.9-14.4-42.4-3.1-14.1-13.8-23.5-22.8-27.6-1.5-.7-3-1.2-4.5-1.6v1.8c1.2.3 2.5.8 3.7 1.3 8.6 3.9 18.9 12.9 21.8 26.4 3 13.7 10.8 36.6 14.6 43 3.1 5.2 6.4 10.4 9.7 15.5 0 0 .9 1.6 1.5 2.4 2.6 4 6.4 7.7 9.1 10.3 1 .7 2 1.4 3.2 2.6 3 3.2 12.5 9.3 17 10.1 1 .2 2.1.2 3.2.2 3.8 0 8.1-1 10.5-3.2 4-3.7 9-8.6 10.2-11.2l.3-.6c1.5-3.1 4.6-9.5 6.7-17.5.4-1.7.8-3.6 1.1-5.6 1-6.9 1.2-15 1.5-22.3.3-8.1.5-15.8 1.8-18.7.3-.7.7-1.6 1.1-2.7 2.6-6.6 7.5-19 16-22.7 3.7-1.6 7.6-3.3 11.5-4.8 6.8-2.8 13.3-5.4 17.1-7.7 3.2-2 6.3-6.1 9.3-10.2 2.6-3.5 5.3-7.2 8-9.2l1.1-.8c6-4.5 17.1-12.9 27.1-11.5 9.9 1.4 15.8 8.7 15.8 19.6 0 2.7-.2 5.6-.5 8.5-.7 8.8-1.5 17.8 4.5 21.4 6.3 3.8 21.8 11.1 34.9 11.1 4.3 0 8.5-.6 12.5-1.2 7.4-1.1 14.3-2.1 21.3.8 9.7 4.2 9.6 16.6 6.3 26.8-1.7 5.2-4.5 10.3-7.2 15.2-2 3.7-3.9 7.1-5.3 10.5-.3.8-.6 1.5-.9 2.3-.2.4-.3.7-.5 1.1 0 .1-.2.4-.4 1-1.3 3.2-2.5 6.4-3.2 10-.6 2.4-1.1 4.9-1.4 7.2-.6 5.5 1.4 11.3 4 18.7 1.3 3.6 2.7 7.8 4 12.4 2.9 10.4.4 12.6-4.8 17.5-1.4 1.3-3 2.8-4.7 4.6-7.8 8.2-10.8 21.7-8 36.2 2.6 13.8 16.1 21.7 28.4 23.4 8.2 1.1 10.4 2.9 14.8 6.5 2.3 1.9 5.2 4.2 9.8 7.2 7 4.5 12.2 9.3 15.8 13.9h2.3a79.33 79.33 0 0 0-17.6-15.4zM14.3 469.7c.3-2.1-.1-4.8-.1-4.8-.4-1.9-1-4.1-1.7-6.3-.4-1.5-.9-3.1-1.3-4.6-1-4.1-1-10.4-.9-15v-2.4c0-4.7-1.8-11.7-4.1-15.9l-.2-.3c-1.8-3.3-3.3-6.1-2.1-7.7 1-1.3 3.2-1 4.7-.6 6.3 1.4 10.3 9.9 12.2 14 .2.5.4.9.6 1.2 1.1 2.2 7.6 15.8 10.5 33.5h.1c.1.7.2 1.4.2 2 .2 1.3.3 2.7.5 4 .9 7.4 1.4 11.4.2 17.2-.2 2.8-2.3 5.9-2.3 5.9-2.3 3.4-6.3 5.3-11.7 5.7h-.7c-4.7 0-10.4-3.1-11.5-8-.8-3.5 1.2-5.5 3.1-7.5 1.1-1.2 1.9-2.2 3.1-3.9s1.1-4 1.4-6.5zm2-2.3c0 .7 0 2.1-.1 3.1-.2 2.5-.5 4.1-1.5 6.1 0 .1-1.1 1.8-1.1 1.8-.8 1.1-1.6 2-2.4 2.9-1.8 1.9-3.2 3.3-2.6 5.8 1 4.5 6.7 6.9 10.4 6.6 6.8-.5 10.8-3.5 12.1-8.9.1-.4.2-.7.2-1.1.5-5.6.3-11.2-.2-16.5 0-.2 0-.3-.1-.5-.2-1.2-.3-2.5-.5-4-2.7-18.3-9.5-32.6-10.6-34.8-.2-.3-.4-.8-.6-1.3-1.8-3.8-5.6-11.8-11-13.1-2.4-.6-2.9-.1-2.9 0-.6.7 1.2 3.9 2.2 5.8l.2.3c2.4 4.4 4.3 11.8 4.3 16.7v2.4c0 4.5-.1 10.7.9 14.6.4 1.4.8 3 1.3 4.5 1 3.9 2 7.3 2 9.6zm242.1 130.7c-.7-2.2-2.6-5.3-5.1-9.2-3.3-5.4-7.4-12-9.7-18.6-3.9-11.7-3.5-25.7-3.3-29.7.2-5 2.6-26.3 4-33.7.9-5 1.3-11 1.5-16 0 0 .4-6.1.2-9.7-.2-6.9-1.5-13.7-1.6-14h-.1c-.3-1.5-.5-3-.8-4.4-2.3-11.5-10.5-17.8-15-19.6-5.2-2.2-16.2 1.1-26.6 8.1-5.8 3.9-8.2 9.7-9.3 14.9h-.1c-.1.9-.3 1.9-.4 2.9-.2 2-.3 3.8-.4 5.2 0 .5 0 .9-.1 1.4h.1c0 .8-.1 1.7-.1 2.5-.2 5-.4 10.2-1.1 14.4-1.4 7.7-5.6 12.1-10.5 17.1-4.2 4.5-9.9 3.9-14.9 3.5-.7-.1-1.3-.1-2-.2-2.6-.2-5.2-1.4-7.9-2.7-2.9-1.4-5.9-2.8-9.3-3.3-5.5-.7-9.1 1.7-12.6 4.1-1 .7-2 1.4-3.1 2-2.2 1.3-4.8 3.4-7.5 5.5-3.3 2.6-6.7 5.3-9.7 7-5.3 3-15.2 3.9-25.6 4.6-7.6.5-11.6-.7-16.7-2.3-1.8-.6-3.7-1.1-6-1.7-6.7-1.7-11.8-.2-15.9 1-1.4.4-2.8.8-4 1-5.2.9-13.8 6.4-22.1 11.9-8.9 5.9-18.9 7.6-22.7 8.1v1.8h.2c4-.5 14.2-2.2 23.5-8.3 8.2-5.4 16.6-10.8 21.5-11.7 1.4-.2 2.7-.6 4.2-1.1 4.1-1.2 8.8-2.5 15-1 2.2.6 4.1 1.1 5.9 1.7 5.3 1.6 9.4 2.9 17.3 2.3 10.7-.7 20.7-1.6 26.4-4.8 3.1-1.7 6.6-4.5 10-7.1 2.7-2.1 5.2-4.1 7.4-5.4a89 89 0 0 0 3.2-2.1c3.5-2.4 6.6-4.5 11.4-3.8 3.2.4 6 1.8 8.8 3.1 2.9 1.4 5.6 2.7 8.5 2.9.6 0 1.3.1 1.9.2 5.2.5 11.6 1 16.4-4 4.9-5.1 9.5-9.8 10.9-18.1.8-4.2 1-9.5 1.2-14.6.1-3.3.3-6.4.5-9.1.7-5.5 2.6-12.2 8.9-16.4 9.7-6.4 20.4-9.8 25-7.9 5.4 2.3 12.1 9 14 18.4 1.3 6.5 2.1 12.8 2.5 18.2v1.2c0 4.5-.2 15.7-1.7 24-1.3 6.9-3.8 28.4-4 33.9-.2 4.1-.7 18.4 3.3 30.3 2.3 6.8 6.5 13.5 9.8 18.9 2.3 3.7 4.2 6.8 4.9 8.8.4 1.2 1 2.6 1.7 4.1 1.9 4.2 4.5 9.8 3.5 17.2h1.8c.9-7.8-1.7-13.6-3.7-18-.8-1.3-1.4-2.5-1.8-3.7zm-21.1-13.4c-4.7-6.7-7.7-14.9-10.1-27.5-2.2-11.6.3-41.9.9-47.3.5-4.7.8-12.8.9-18.6.1-2.1.1-3.9.2-5 .4-7.9-2.5-16.8-2.5-16.8-1.6-4.7-4.6-6.6-6.9-8.1l-.9-.6c-1.5-1-3.2-1.3-4.8-.9a7 7 0 0 0-4.2 3.4c-1.6 3.1-2.1 12.6-2.1 12.6-.3 5.3-.1 10.5.2 13.4.6 5.3 1.1 11.5 1.6 17 .6 6.5 1.1 12.2 1.4 14.8 2.1 15 .6 22.5-1 26.2-2.3 5.2-6.8 4-12.4 1.9-1.2-.4-2.3-.9-3.2-1.1-1.9-.5-6.1-2.6-11.1-5.1-6.6-3.3-14.8-7.5-22.2-10.2-11.6-4.2-17.2-3.6-22.2-3.1-.7.1-1.5.1-2.2.2-3.9.3-7.2 2.7-11.1 5.5-2.1 1.5-4.3 3.1-6.8 4.6-6.6 3.8-16 6.7-31.3 9.7-11.1 2.1-19.2.9-25.6-.1-1.4-.2-2.7-.4-3.9-.6-7.2-.9-15.1.7-23.9 2.7-6.2 1.4-11.3 3.9-15.5 5.8-1.7.8-3.2 1.5-4.4 2-4 1.4-9.3 2.2-14.1 2.2v1.8h.3c4.9 0 10.3-.8 14.4-2.3 1.3-.5 2.8-1.2 4.6-2.1 4.1-1.9 9.1-4.3 15.1-5.7 8.6-2 16.4-3.6 23.3-2.7 1.2.2 2.5.4 3.8.6 6.6 1 14.8 2.3 26.2.1 15.5-3.1 25.1-6 31.9-9.9 2.6-1.5 4.9-3.2 7-4.7 3.7-2.7 6.9-5 10.2-5.2.7-.1 1.5-.1 2.2-.2 4.8-.5 10.2-1 21.4 3 7.3 2.6 15.5 6.8 22 10.1 5.2 2.7 9.4 4.7 11.5 5.3.9.2 1.9.6 3 1 4.6 1.7 11.5 4.3 14.7-2.8 2.5-5.7 2.9-14.8 1.2-27.2-.4-2.6-.9-8.2-1.4-14.7-.5-5.5-1-11.7-1.6-17-.5-4.2-.2-18.1.5-20.7s1-3.8 1.2-4.3c.5-.9 1.6-2 3-2.4 1.1-.3 2.3-.1 3.4.7l.9.6c1.4.9 4.2 2.9 5.6 5.9 2.1 4.4 2.6 9.9 2.6 9.9.3 2.4.5 5 .4 7.5-.1 1.2-.1 3-.2 5.1-.2 5.8-.4 13.8-.9 18.5-.7 6.7-3.1 36.1-.9 47.9 2.4 12.8 5.5 21.2 10.3 28.1 1.2 1.7 2.4 3.4 3.6 5 3.5 4.8 6.8 9.3 6.8 11.2 0 1.2-.7 3.1-2.2 4.5a8.63 8.63 0 0 1-6.6 2.2c-6.2-.4-12.6-1.6-23.2-12.8-5-5.3-8.2-11-11.2-16.5-3.3-6-6.8-12.1-12.4-17.5-13-12.4-21.6-18.3-28.1-19.3-7-1.1-20.9-2.3-34.4 2-6.4 2-12.3 5-17.5 7.7-5.8 2.9-10.7 5.5-14.9 6.1-9.1 1.2-18.6 1.5-27.4.9-9.8-.6-19.6.5-24.9 2.8-7.7 3.5-18.4 8.1-26.1 10.5-8.6 2.7-10.3 2.9-14.5 3.1-.8 0-1.8-.1-2.8-.3v1.8c1 .2 2 .3 2.8.3 4.2-.2 6.1-.4 14.9-3.1 7.8-2.4 18.6-7.1 26.3-10.5 5.1-2.2 14.5-3.2 24.1-2.6 9 .6 18.4.3 27.8-.9 4.4-.6 9.5-3.2 15.4-6.2 5.2-2.6 11-5.6 17.2-7.6 13.2-4.2 26.7-3 33.6-2 6 .9 14.6 6.9 27.1 18.9 5.5 5.2 8.7 11 12.1 17.1 3.1 5.6 6.4 11.4 11.5 16.9 11 11.7 18.1 13 24.4 13.4h.8c3.5 0 5.8-1.4 7.1-2.7 1.7-1.6 2.8-3.9 2.8-5.8 0-2.5-3-6.6-7.1-12.3-1.1-2.1-2.3-3.8-3.5-5.5zm-54.4-160.8c-.7-.7-1-1.7-.8-2.8.2-1.7 1.4-3.6 2.8-4.5 2.8-1.9 8-5 11-3.3 3.2 1.8 4.9 3.6 5.3 5.3.2.9 0 1.8-.6 2.5-1.3 1.7-3.2 1.5-4.9 1.4-1.3-.1-2.6-.2-3.7.4-2.6 1.3-4.8 2-6.4 2-1.2 0-2.1-.3-2.7-1zm1.2-1.2c.9.9 3.5.4 7-1.4 1.6-.8 3.2-.7 4.7-.5 1.7.1 2.7.2 3.3-.7.3-.4.4-.7.3-1.1-.1-.7-.9-2.1-4.4-4.1-.3-.2-.7-.2-1.2-.2-1.8 0-4.7 1.3-8 3.5-1 .6-1.9 2-2 3.2-.1.3 0 .9.3 1.3zm-37.9 44.8c.2-2.1.3-4.9 0-8.5-.7-9.8-3.4-14.3-5.6-17.9-1.6-2.6-3-4.9-3-8.3 0-8 8.7-20.7 16.2-23.9 1.1-.5 2.5-1.1 4-1.8 7.8-3.7 20.8-9.9 36.4-8.6 17.8 1.4 23.3 10.1 26 14.2.2.2.3.5.4.7.7 1 6.5 10.3 3.9 17.1-1.2 3-3.8 5.1-7.7 6.1-6.2 1.6-11.4 2.6-15.7 3.5-5 1-8.5 1.7-10.2 2.6-2.9 1.5-4.9 7.1-7 13.1-.8 2.4-1.8 6.3-3.2 11.4 0 0-.8 3.7-1.3 5-.8 2.7-1.6 4-3.5 5.9-1.9 2.5-7.5 6.3-14 8.4-3 1-5.4 1.4-7.5 1.4-2.5 0-4.4-.6-6-1.2-3.5-1.4-5.6-5.7-4.6-9.4l.3-1c.5-1.9.6-3.1.9-4 .7-2.7 1.1-4.7 1.2-4.8zm.6 5.4c-.3 1.5-.7 3.2-1.2 4.9-.8 3.1 1.2 6.3 3.6 7.3 2.8 1 6 1.9 12.3-.2 6.7-2.3 11.8-6 13.2-7.9l.5-.7c.9-1.2 1.8-2.5 2.7-4.7l1.5-5.6c1.1-4.3 2.2-8.3 3-10.8 2.2-6.6 4.4-12.3 7.8-14.1 1.9-1 5.4-1.7 10.7-2.8 4.2-.8 9.4-1.9 15.6-3.5 3.4-.9 5.6-2.6 6.5-5 1.9-4.9-1.5-12-3.7-15.5-.1-.2-.3-.4-.5-.7-2.5-3.9-7.8-12-24.7-13.4-15.2-1.2-27.9 4.8-35.5 8.5-1.5.7-2.9 1.4-4.1 1.9-6.9 2.9-15.2 15-15.2 22.3 0 2.9 1.2 4.9 2.7 7.4 2.3 3.7 5.2 8.4 5.9 18.7.5 6.2.1 10.9-1.1 13.9zm6.7-39.7c-1.1-2.8-.9-6 .6-8.3 2.6-4.3 9.1-9.8 9.4-10 5.7-4 17.7-8.9 26.8-7.6l2.3.3c8.2 1.1 15.2 2.1 17.4 5.7.3.5.6.9.9 1.4 1.5 2.4 3.2 5.1 2.4 7.5-.5 1.5-1.8 2.6-4 3.3-5.1 1.7-11.8 3.7-16.3 4.9-1.4.4-2.6.8-3.4 1-2.3.7-4.7 2.8-7.1 4.8-.5.4-1 .9-1.5 1.3-.4.4-.8.7-1.2 1.2-1.7 1.7-3.5 3.5-8.2 3.5-1.8 0-4-.3-6.7-.9-5.8-1.2-9.8-4.1-11.4-8.1zm1.6-.6c1.4 3.4 4.9 5.9 10 7.1 9 2.1 11.1 0 13.3-2.2.4-.4.9-.9 1.4-1.3.5-.4 1-.8 1.5-1.3 2.5-2.1 5.1-4.3 7.7-5.1.8-.2 1.9-.6 3.4-1 4.4-1.3 11.1-3.2 16.2-4.9 1.6-.6 2.6-1.3 2.9-2.2.6-1.6-.9-4-2.2-6l-.9-1.5c-1.7-2.9-8.7-3.8-16.1-4.9l-2.3-.3c-.9-.1-1.9-.2-2.9-.2-8.2 0-17.8 4.1-22.6 7.4 0 0-6.5 5.5-9 9.5-1.1 2-1.3 4.6-.4 6.9zm224.1 171.6c.6 3.3.4 5.6-.8 7-1.4 1.6-3.6 1.6-5.4 1.6-3.6 0-6.4-2.1-8.1-5.8-1.7-4-4.2-7.2-6.7-8.7l-.1-.1s-2.1-1.6-4.8-2.5c-1.7-.4-4.2-1.9-6.8-3.5-1.8-1.1-3.6-2.2-5.1-2.9-1.9-.8-2.2-1.9-2.2-2.7.1-1.9 2.5-3.4 4.7-4.1 3.3-1 7.9.4 10.5 2.1l.3.2c2.4 1.5 6.8 4.2 12.8 6.1 6.1 2.1 10.2 5 11.7 13.3zm-1.8.4c-1.3-7.6-4.7-10-10.5-11.8-6.3-2-10.8-4.8-13.2-6.3l-.3-.2c-2.3-1.6-6.4-2.7-9.1-1.9-1.9.6-3.4 1.8-3.4 2.5 0 .4.8.8 1.1 1 1.6.7 3.5 1.9 5.3 3 2.4 1.5 4.8 3 6.3 3.3 2.9.9 5.1 2.5 5.4 2.7 4 2.4 6.5 7.4 7.4 9.5 1.4 3.1 3.6 4.8 6.5 4.8 1.6 0 3.2 0 4-1 .9-1 1-2.9.5-5.6zm106.5-117.2c-.1 1.9-.1 3.6-.1 5 0 3.4.5 9.8 1 17.1.2 2.2.3 4.4.5 6.7.7 10-1.6 14.7-6.3 20.5-4 4.9-11.1 5.9-18.1 5.9-1.2 0-2.3 0-3.5-.1-8.4-.3-17.7-10.5-20.8-13.9-1.2-1.3-2.7-3.1-4.2-5.1-2.7-3.3-5.7-7.1-8-9-3.4-2.7-8.5-1.8-12.3-1.1-4 .7-10.2 4.5-13.9 8.4-3.9 4.2-12.1 10.9-18.6 12-6.3 1.1-9.9-3-12.1-5.5l-.3-.4c-2.7-3.2-4.8-13.1-5.8-20.7s.2-12.7 1.1-16c.2-.7.3-1.3.4-1.9.8-3.9 8.7-13.8 9.8-15.1.9-1 2-2.6 3.1-4.1l.9-1.5c2.6-4.1 10.7-14.1 14.5-16.3.7-.4 1.5-1 2.4-1.6 3.6-2.4 8.4-5.7 13.4-5.9 5.8-.3 11.2 1.9 17.4 4.3l1.1.4c6.6 2.5 16.3 5.5 20.7 6.5 4.3.9 15.2 3.8 20.6 5.3a26.11 26.11 0 0 1 9.6 5.2c1.2 1.1 2.3 2.3 3.1 3.6 2.3 2.9 3.8 5.4 4.4 7.3.4 1.9.2 5.8 0 10zm-.4 29c-.2-2.3-.3-4.5-.5-6.7-.5-7.4-1-13.7-1-17.2 0-1.4.1-3.2.1-5.1.1-3.5.3-7.8-.1-9.1-.2-.6-.6-1.6-1.4-2.9-.9-1.2-1.5-1.4-2.2-2.7-.2-.4-.4-.8-.6-1.3-.8-1-1.7-2.1-2.8-3.2-2.7-2.3-6.3-4.1-8.8-4.8-5.3-1.5-16.2-4.4-20.4-5.3-4.4-.9-14.2-4-20.9-6.5l-1.1-.4c-6.3-2.5-11.3-4.5-16.7-4.2-4.4.2-9.1 3.3-12.5 5.6-.9.6-1.8 1.2-2.5 1.6-2.6 1.5-7.9 7.6-11.4 12.2l.1.1c-.1.2-1.7 2.5-3.5 5-2.1 3.8-3 3.9-4.4 5.6-2.7 3.4-7.8 10.3-8.3 12.9-.1.6-.3 1.2-.5 1.9-.8 3.4-2 8.1-1 15.4 1.2 9.3 3.5 17.5 5.4 19.7l.3.4c2.2 2.5 5.1 5.9 10.4 4.9 6-1 14-7.5 17.6-11.4 4-4.3 10.5-8.2 14.9-9 4.1-.7 9.7-1.7 13.7 1.5 2.5 2 5.5 5.8 8.3 9.2 1.5 1.9 3 3.7 4.1 5 3 3.2 11.9 13 19.6 13.3 7.7.3 16-.1 20.2-5.2 4.5-5.6 6.6-9.9 5.9-19.3zM463 614.3c-8.7-2.1-15.9-4.8-15.6-16.6.3-11.9 11.5-19.9 19.4-21 3.2-.5 6.5-.6 9.4-.7 4.6-.2 8.5-.4 10.9-1.8 1.4-.8 3.2-2.6 5-4.4 2.9-2.8 6.5-6.3 8.8-6.5l1.2-.1c4.5-.3 12-.9 17.5.9 2.3.8 6.3 2.4 11 4.3 3 1.2 6.3 2.5 9.5 3.8v-1.9c-3-1.2-6.1-2.4-8.9-3.5-4.7-1.9-8.7-3.5-11.1-4.3-5.8-2-13.6-1.4-18.2-1l-1.2.1c-3 .2-6.5 3.7-9.9 7-1.8 1.8-3.5 3.4-4.7 4.1-2 1.2-5.7 1.3-10.1 1.5-2.9.1-6.2.3-9.5.8-8.6 1.2-20.7 9.8-21 22.8-.3 13.1 8.2 16.2 17 18.4 2.9.7 5.6 1 8.2 1.4 3.8.5 7.6 1 12.1 2.6h4.6c-6.4-3-11.5-3.7-16.5-4.3-2.5-.6-5.1-.9-7.9-1.6zm39.4-.5c-3.8-4.5-9.2-9.2-19.7-9.5-9.5-.3-9.5-3.3-9.5-7.1v-.3c0-3 3.3-3.9 8-4.9l.5-.1c3.2-.7 7-2.8 10.4-4.6 1.1-.6 2.2-1.2 3.1-1.6 3.4-1.7 12.4-2.9 19.8-.5 7 2.1 18.4 4.3 25 4.9v-1.8c-6.4-.6-17.6-2.8-24.4-4.8-8-2.5-17.4-1.2-21.2.7-.9.5-2 1-3.1 1.7-3.1 1.7-7 3.8-10 4.5l-.5.1c-4.2.9-9.4 2-9.4 6.7v.3c0 4 0 8.5 11.3 8.9 9.7.3 14.6 4.4 18.3 8.9 1.6 1.9 4.1 3.6 6.8 5h4.3c-3.8-1.8-7.6-4-9.7-6.5zm37.6-1.5c-4.5-1.9-9.1-3.7-11.8-4.2-6.8-1.3-19-5.7-22-9.2-1.1-1.3-1.4-2.6-.8-3.8.8-1.6 3-2.4 5.6-2.1 2.7.3 12.1 1.4 18.5 3.6 3.2 1.1 6.7 1.9 10.5 2.5v-1.8c-3.6-.6-6.9-1.4-9.9-2.4-6.4-2.2-15.3-3.3-18.9-3.6-3.3-.4-6.2.9-7.4 3.1-1 1.8-.6 3.9 1 5.8 3.7 4.3 16.9 8.7 23 9.8 2.7.5 7.6 2.4 12.2 4.4v-2.1zm-69-105.9c.1 7-.7 10.3-3.4 14.7-1.9 3-5 3.5-7.9 3.5-.7 0-1.4 0-2.1-.1-.6 0-1.3-.1-1.8-.1-4.2 0-13.1-6.7-16-9.4-3.2-3-10.7-8.9-16.6-12.2-4.6-2.5-9.6-2.4-13.9-2.4h-3.2c-4.6 0-8.4 3.3-13.1 7.5l-.5.4c-5.4 4.7-7.9 3-10.3 1.3l-.5-.4c-3-2-4.7-8.4-4.7-17.9 0-8.2 4.6-11.2 7.7-13.2.6-.4 1.1-.7 1.6-1.1 1.7-1.3 6-2.2 11.9-3.4 2.8-.5 5.9-1.2 6.5-1.6.2-.1.3-.2.5-.4 2.2-2.4 5.3-5.9 6.5-6.9 4.3-3.8 9.6-4.9 15-3.2 2.2.7 5.6 1.4 9.2 2.3 7.4 1.6 13.2 3 16.8 4.6.1 0 .1.1.2.1 1.1.5 1.9 1 2.6 1.5 7.5 4.5 11.6 7.5 12.7 9.4 1.5 2.6 2.2 6.7 1.7 11.3-.2 2 .1 4 .4 6.5.2 2.8.6 5.6.7 9.2zm-1.8 0c0-3.5-.5-6.2-.8-8.6-.4-2.5-.7-4.7-.5-6.9.4-4.2-.2-8-1.5-10.2-.9-1.5-4.6-4.2-11-8.1l-3.7-2.2c-4.1-1.7-11.4-3.4-16.4-4.5-3.6-.8-7.1-1.6-9.3-2.3-6.2-2-10.7.4-13.3 2.8-.4.3-1 1-1.8 1.8 0 0-2.7 3.4-4.6 5-1.2.9-3.1 1.4-3.1 1.4-1.2.3-2.8.6-4.8 1-4.1.8-9.7 1.9-11.2 3-.5.4-1.1.8-1.7 1.2-3.1 2-6.9 4.5-6.9 11.7 0 8.7 1.5 14.8 3.9 16.5l.6.4c2.3 1.6 3.8 2.6 8.2-1.2l.5-.4c5-4.5 9-8 14.3-8h3.1c4.6-.1 9.8-.1 14.8 2.6 6 3.4 13.7 9.4 17 12.4 3.4 3.2 11.5 9 14.8 9 .6 0 1.3 0 1.9.1 3.2.1 6.6.3 8.4-2.6 2.3-3.9 3.2-6.6 3.1-13.9zm2.5 57.3c11.3-.2 16.4-7.4 20.1-12.7 1.1-1.6 2.2-3.1 3.3-4.2l.6-.6c4-4 4.3-4.3 11.7-1 3.7 1.7 7.3 3.8 11.2 6.1 4.6 2.7 9.4 5.4 14.3 7.5 2.2 1 4.6 1.8 7.1 2.4v-1.8c-2.2-.6-4.4-1.3-6.4-2.2-4.8-2.1-9.6-4.8-14.2-7.5-3.9-2.2-7.6-4.4-11.3-6.1-8.2-3.8-9.3-3.1-13.7 1.3l-.6.6c-1.2 1.2-2.3 2.7-3.5 4.4-3.7 5.2-8.4 11.7-18.7 12-16.9.4-25.6-2.3-29-8.8l-1.1-2.1c-2.9-5.5-4.2-7.9-7.6-11.3-9.7-9.5-21.4-10.5-34.9-2.9-20.5 11.4-28.2 11-37.6 5.9-10.9-5.9-12.9-15.6-13.1-20.9-.3-7.1-1.9-20-3-25.1-.1-.5-.2-1-.4-1.5-1.3-5.1-3.1-12.1 7.8-26.9.7-.9 1.4-1.7 1.8-2 .9-.6 2.5-1.7 4.5-3 2.8-1.8 6.6-4.4 10.6-7.1 7.1-4.8 18.4-15.1 20.7-17.6.6-.7 1.4-1.8 2.3-3 2.6-3.7 6.6-9.3 10.3-10.3 6.3-1.8 13.6-.2 22.1 4.9 10.3 6.3 20.5 9.5 26 11.3l.3.1c9.5 3.1 21.3 7.6 25.8 11.1.8.7 1.7 1.3 2.7 2 4.3 3.1 9.8 7.1 12.1 14.6 0 0 0 .1.1.3.7 2.4 1.9 6.8 2.4 8.3.8 3.3.5 5.7-1.3 11.6l-.1.5c-1.8 6-4.6 15-2.3 22.3 2 6.2 5.5 14 14.5 20.2 1.6 1.1 3.1 2.2 4.8 3.4 6.6 4.8 13.5 9.7 25 12.5 1.9.5 3.5.8 4.9 1.1v-1.8c-1.3-.3-2.8-.6-4.5-1-11.2-2.7-17.9-7.5-24.4-12.2-1.6-1.1-3.2-2.3-4.8-3.4-8.6-5.8-11.9-13.3-13.9-19.2-2.2-6.8.5-15.5 2.3-21.2l.1-.5c1.9-6.2 2.1-8.9 1.3-12.5-.7-3.3-1.8-6.8-2.3-8.2-2.4-8.3-8.3-12.7-13-16.1-.9-.7-1.8-1.3-2.6-2-5.9-4.7-21.7-9.9-26.4-11.4l-.3-.1c-5.8-1.9-15.5-5-25.6-11.1-9-5.4-16.7-7-23.5-5.1-4.3 1.2-8.5 7.1-11.3 11-.9 1.2-1.6 2.3-2.1 2.9-2.2 2.5-13.4 12.6-20.3 17.4-4 2.7-7.8 5.2-10.6 7.1-2 1.3-3.6 2.4-4.5 3-.3.2-.6.5-1 .9l-.1-.1c-.4.5-.8 1.1-1.2 1.6a72.1 72.1 0 0 0-4.9 7.7c-5.7 10.5-4.2 16.5-3.1 20.7.1.5.3 1 .4 1.5 1.1 5 2.7 17.7 3 24.7.2 5.6 2.4 16 14.1 22.3 11.3 6.1 20.1 4.8 39.4-5.9 12.7-7.1 23.7-6.2 32.7 2.7 3.2 3.1 4.4 5.4 7.2 10.8l1.1 2.1c4.4 8.3 15.9 9.8 27.4 9.8 1.1-.2 2.1-.2 3.2-.2zM432 388.8c4.7 4.3 3.3 7.8 2.6 9.1-.3.5-.9 1.3-1.6 2.4a60.4 60.4 0 0 0-4.2 6.5c-2.2 4.3-4.2 5.7-7.1 6.6-.7.2-1.3.3-2 .3-2.2 0-4.5-1-6.8-2.1l-.7-.3c-3.5-1.6-5.8-7.4-6.4-12-.7-4.8 4.8-11.3 10.5-14.8 6.7-4 12.5 1.4 15.7 4.3zm-1.2 1.4c-3-2.7-6.1-5.3-9.6-5.3-1.3 0-2.7.4-4.1 1.2-5.8 3.5-10.2 9.5-9.7 13 .6 4.2 2.7 9.4 5.4 10.6l.7.3c2.9 1.3 5.4 2.5 7.5 1.7 2.6-.9 4.1-1.9 6.1-5.8 1.2-2.2 3-4.8 4.4-6.7.7-.9 1.3-1.8 1.6-2.2.6-1.1 1.3-3.6-2.3-6.8zm-15.5 162.5c-6.8-3.7-14.5-1.6-18.2-.6l-1.2.3c-2.9.7-15.1 5.6-21.7 8.3l-.6.3c-5.5 2.1-10.1 1.7-17.6.9l-2-.2c-8.6-.9-14-12.5-15-15.6-.9-2.6-.4-8.3 0-13.3.2-2.2.4-4.4.4-6.2.1-4.1-1.2-8.2-2.4-12.2-.7-2.1-1.3-4.2-1.8-6.3-1.2-5.6-2.4-14.6-2.4-18.5 0-3.9 2.3-9.9 3.2-12.3 1.3-3.2 2-5.8 2.7-7.2s1.6-2.7 2.7-4c1.9-2.4 6.2-5.5 10.7-8.8 4.2-3.1 8.6-6.3 12-9.5 6.9-6.6 22.9-22 27.2-34.2.9-2.5 1.7-4.7 2.5-6.7 3-7.7 5.1-13.3 3.4-23.4-1.3-7.6-5.8-10.2-9.8-12.5-2.8-1.6-5.3-3.1-6.3-6-1.2-3.7-1.4-6.5-.4-8.2.6-1.1 1.6-1.8 3.1-2.2.4-.1 1-.3 1.5-.4 3.5-1 10.7-3 12.7-.8 1 1.2 2.6 3.6 4.3 6.1 2.7 4.1 5.7 8.7 8.3 11.1 3.9 3.6 10.6 7.6 15 7.9.4 0 .8.1 1.4.1 4.9.3 15.1.9 19.1 6.9 3.5 5.3 5.3 16.7 6.6 24.3.4 2.3.7 4.3 1 5.6 1.2 5.6 9.1 18.5 13.1 21.6.9.6 2 1.5 3.4 2.5 4.8 3.6 12 9 15.7 11.4 2.8 1.8 9.6 7.3 14.4 13.6 3.8 5 6.1 11.1 6.1 11.1.8 1.8 1.4 3.9 1.6 6 .4 3.4-1.2 5.2-3.2 7.6-1.5 1.8-3.2 3.8-4.1 6.7-2.1 6.6.4 14 6.4 19.1 5.7 4.7 18.2 9.5 27.2 11.6 1.8.4 3.7.7 5.7.9v-1.8c-1.8-.2-3.6-.5-5.3-.9-8.8-2-21-6.7-26.4-11.2-5.4-4.5-7.7-11.3-5.8-17.1.8-2.6 2.4-4.4 3.8-6.1 2.1-2.5 4.1-4.8 3.6-8.9-.5-4.9-2.8-9.1-4.4-11.9-.6-1-1.3-2.4-1.3-2.4-4.4-8.2-13.2-15.2-17.2-17.7-3.6-2.3-10.8-7.7-15.6-11.3-1.3-1-2.5-1.9-3.4-2.5-3.7-2.9-11.3-15.4-12.5-20.6-.3-1.2-.6-3.2-1-5.5-1.3-7.7-3.2-19.4-6.9-25-4.5-6.8-15.3-7.4-20.5-7.7-.5 0-1-.1-1.3-.1-3.6-.3-9.8-3.6-14-7.5-2.4-2.3-5.4-6.8-8-10.8-1.8-2.7-3.3-5.1-4.5-6.4-2.7-3-10.1-1-14.5.2-.6.2-1.1.3-1.5.4-2 .5-3.4 1.5-4.2 3.1-1.2 2.2-1.1 5.5.3 9.7 1.2 3.6 4.1 5.2 7.1 7 3.8 2.2 7.8 4.5 8.9 11.3 1.6 9.6-.4 14.7-3.3 22.5-.8 2-1.7 4.3-2.5 6.8-4.2 11.8-20 27-26.8 33.5-3.3 3.2-7.7 6.3-11.8 9.4-4.6 3.3-9 6.5-11 9.1-4 4.8-3.5 7.5-5.6 11.6-1.3 3.1-3.4 8.9-3.4 12.9s1.2 13 2.4 18.9c.5 2.1 1.2 4.3 1.8 6.4 1.2 3.8 2.5 7.8 2.4 11.6-.1 1.8-.2 3.9-.4 6.1-.4 5.4-.9 11 .1 14 1.7 5.1 7.9 15.9 16.6 16.8l2 .2c7.5.8 12.5 1.3 18.4-1l.7-.3c6.1-2.4 18.7-7.5 21.4-8.2.3-.1.7-.2 1.2-.3 3.5-1 10.7-2.9 16.9.4 6.6 3.6 7.8 11.1 6.7 16.8-1.1 5.5-5.9 22-8.7 25.9-1.5 2.1-6.3 9.7-3.2 18.4.5 1.5 1.2 3.1 1.9 4.6h2c-.8-1.7-1.6-3.5-2.2-5.2-2.8-7.9 1.6-14.9 3-16.8 3.1-4.3 8.1-21.6 9.1-26.6 1-6.2-.3-14.5-7.8-18.6zm-20.1 49.5c.1-13.3.1-17.7-11.1-24.9-5.9-3.8-11.1-3.1-16.1-2.4-6.1.8-12.4 1.7-20.9-4.9-3.8-3-7-5.3-9.8-7.3-8.6-6.2-12.1-8.8-13.9-15.8-1.2-4.6-.1-8.7.9-13 1.1-4.4 2.2-8.9 1.1-14-1.1-5.2-2.2-8.7-3.3-12.5-1.1-3.6-2.1-7.2-3.4-12.6-1.3-6-1.1-12.4-.4-17.8 0 0 .4-3.8 1.4-7.3.3-1.2.7-2.3 1-3.1h-.1c1-2.2 3.5-5.2 6.1-8.5 2.5-3.1 5-6.3 6.8-9.3 1.2-1.9 11.3-19.3 10.5-36.1-1-22.3-14.1-29.2-25-31-6.9-1.1-13.3-1.5-19.5-1.8-9.7-.5-18-1-24.4-4.3-11.6-6.1-11.5-14.5-11.1-16.9.5-4.7-.5-13.4-13-19.6-6.3-3.1-9.6-5.7-10.3-8.1-.4-1.4-.1-2.8 1.2-4.8 1-1.7 4.4-1.5 8-1.2 1.4.1 2.8.2 4.2.2 2.8 0 9.3-.2 15.6-.3 5.6-.1 10.9-.3 12.9-.3 4.1 0 6.2.7 6.4 1 0 0-.1.3-1 .9-.5.3-1.1.8-1.9 1.2-6.9 4.5-14.2 9.7-14.5 13.6 0 .3-.1.7-.1 1-.4 4.9-1.2 14 12.8 20.3 15 6.7 27.8 7.2 34.7 7.5 15.9.6 26.6 3.6 30.8 8.6 6 7.2 9.6 12.3 7.8 22.1-.2 1.1-.4 2.2-.6 3.2-1.1 6-1.9 10.4.2 12.4 1.1 1 2.7 1.3 5 .8 7.5-1.5 17-10 19.7-17.5 2.2-6.3 5.3-21.9-13.4-31.3-16.2-8.1-34.2-9.9-43.8-10.8-1-.1-2-.2-2.8-.3-8.9-1-16.9-3-20.4-5.2-1.3-.8-2-2-2-3.3.1-1.6 1.4-3.1 3.4-4.1 1.2-.6 2.6-1.3 4-2.2 4.2-2.4 9.4-5.3 14-5.2 6.2.3 14.6 3.9 21.3 7 7.1 3.3 16.4 6.8 24.9 4.5 2.9-.8 5.8-2.1 8.9-3.6 6-2.8 12.3-5.6 19.6-5 9.5.8 14.3 6.7 17.2 10.2.4.5.8 1 1.2 1.4.4.5 1 1.1 1.6 1.9 3.3 4.1 8.8 10.9 15.7 11.2 3 .1 6.3-.2 9.7-.5 5.2-.5 10.6-.9 15 .1 7.9 1.9 11.1 4.9 10.6 10.1-.2 1.8-.4 3.7-.7 5.7-.6 5-1.3 10.1-.8 13.8.6 4.9 7.3 23 18.6 28.9 9.8 5.1 27.5 16.2 33.2 24 .7 1 1.6 2 2.4 3.1 4.2 5.4 9.2 11.7 10 20.3h-.1c0 .1 0 .5.1 1.2.1 2.6.8 3.4 1.5 5.2.5 1.3 1.2 2.7 2 4.2 1.1 2 .9 2.5-.1 4.5-.6 1.3-1.5 3-2.2 5.7-1.9 7.1-1.7 15 .5 17.1 1.1 1.1 3 1.7 5 1.7 1.4 0 2.9-.3 4.2-1v-2c-2.7 1.7-6.5 1.5-8 0-1.4-1.3-2.1-7.9-.1-15.3.7-2.5 1.5-4.1 2.1-5.4 1.1-2.1 1.7-3.4.1-6.2-2.3-4-3-7.3-3.3-8.9-.5-9.7-6.1-16.8-10.4-22.2-.8-1.1-1.6-2.1-2.4-3.1-5.9-8.1-23.9-19.4-33.8-24.6-10.6-5.5-17.1-23-17.6-27.5-.4-3.5.2-8.5.8-13.4.3-2 .5-3.9.7-5.7.8-7.9-6.5-10.6-12-12-4.7-1.1-10.2-.7-15.6-.2-3.4.3-6.6.6-9.5.5-6-.2-11.2-6.7-14.3-10.6-.6-.8-1.2-1.4-1.6-2-.3-.4-.7-.8-1.1-1.4-2.9-3.5-8.2-10-18.4-10.8-7.8-.6-14.5 2.5-20.4 5.2-3 1.4-5.9 2.7-8.7 3.5-8 2.2-16.9-1.2-23.7-4.3-6.8-3.2-15.5-6.9-21.9-7.2-5.1-.2-10.6 2.9-14.9 5.4-1.4.8-2.8 1.6-3.9 2.1-2.6 1.2-4.3 3.3-4.4 5.6-.1 1.9.9 3.7 2.8 4.9 3.8 2.3 12.1 4.4 21.2 5.4.8.1 1.8.2 2.8.3 9.5.9 27.3 2.7 43.2 10.6 16.9 8.4 15.1 21.9 12.6 29.1-2.4 6.9-11.5 14.9-18.3 16.3-1.7.3-2.8.2-3.4-.4-1.4-1.4-.6-5.7.3-10.8.2-1 .4-2.1.6-3.2 1.9-10.5-2-16.2-8.2-23.5-4.6-5.5-15.4-8.6-32-9.2-7.3-.3-19.4-.8-34.1-7.3-12.9-5.8-12.2-13.8-11.8-18.6 0-.4.1-.7.1-1.1.2-3.4 9.7-9.6 13.7-12.3.7-.5 1.4-.9 1.9-1.3 1.4-1 1.9-1.9 1.7-2.9-.6-1.9-4.7-2.3-8.1-2.3-2.1 0-7.4.1-13 .3-6.2.2-12.7.3-15.5.3-1.3 0-2.7-.1-4.1-.2-4.2-.3-8.2-.6-9.7 2.1-1 1.7-2 3.9-1.3 6.2.9 3 4.3 5.8 11.2 9.2 11.5 5.7 12.5 13.6 12 17.8-.4 2.7-.6 12.1 12.1 18.7 6.8 3.5 15.3 4 25.2 4.5 6.2.3 12.5.7 19.3 1.8 18.6 3.1 23.1 17.7 23.6 29.4.7 16.3-9.1 33.2-10.3 35.1-1.7 2.9-4.2 6-6.7 9.1-3.1 3.9-5.9 7.3-6.7 9.8-.3.8-.5 1.7-.6 2.6-1.6 6.1-3.1 16.6-1 25.8 1.3 5.4 2.4 9.1 3.4 12.7 1.1 3.7 2.1 7.3 3.3 12.4 1 4.8 0 9.1-1.1 13.2-1.1 4.4-2.2 8.9-.9 13.9 1.9 7.6 5.9 10.5 14.5 16.8 2.8 2 6 4.3 9.8 7.3 9.1 7.1 16.1 6.1 22.3 5.2 4.9-.7 9.6-1.3 14.9 2.1 10.4 6.6 10.4 10.2 10.3 23.4v7c0 4.3.4 7.9.9 10.9h1.8c-.5-3-.9-6.5-.9-10.9-.5-2.2-.5-4.5-.5-6.5zm65.1-110.9c.4 4.5.8 9.2-2.6 10.5-1.3.6-2.6.8-3.8.8-2 0-3.9-.7-6-1.9-2-1.1-4-3.3-5.8-5.3-1.1-1.3-2.2-2.5-3-3.1-1-.7-2-.6-3.3-.4-1.1.1-2.2.3-3.5-.1-2.9-.8-4.8-2-5.7-3.7-.7-1.2-.7-2.7-.2-4.3 1.4-4.4 8.8-5.1 13.2-5.5.5 0 1-.1 1.5-.1 3.3-.3 8-.3 11.7 1.1 3.4 1.4 6.9 3.6 7.3 9.3 0 .9.1 1.8.2 2.7zm-1.8.1c-.1-.9-.2-1.8-.2-2.7-.3-4.4-2.6-6.3-6.2-7.7-3.3-1.3-7.8-1.2-10.9-.9-.4 0-.9.1-1.5.1-3.7.3-10.6.9-11.6 4.2-.4 1.1-.4 2.1.1 2.9.6 1.2 2.2 2.1 4.6 2.8.9.3 1.9.1 2.8 0 .5-.1 1.1-.1 1.7-.1.9 0 1.9.2 2.9.9s2.1 1.9 3.3 3.3c1.7 1.8 3.5 3.9 5.3 4.9 3.4 1.9 5.6 2.1 8.2 1 2.2-.9 1.9-4.8 1.5-8.7zm-290.4 108c-2-2.5-12.8-15.2-26.2-14.5-6.1.3-12 1.9-17.2 3.4-4.1 1.1-7.9 2.2-11.3 2.5-7.6.6-24.4 2.3-29.9 3.2-.8.1-2 .3-3.6.5-9 1.2-25.9 3.4-28.7 9.1-2.9 5.9-2.1 11.4 2.4 16.4h2.5c-5.1-4.8-6.2-9.9-3.3-15.6 2.4-4.8 19.9-7.1 27.3-8.1 1.5-.2 2.8-.4 3.6-.5 5.5-.9 22.1-2.6 29.7-3.2 3.5-.3 7.5-1.4 11.6-2.6 5.1-1.4 10.9-3.1 16.8-3.3 9.7-.4 19.4 7.2 24.8 13.9 2.8 3.4 4.4 9.3 6 14.9.4 1.5.8 3 1.3 4.5h1.9c-.5-1.6-1-3.3-1.4-5-1.6-5.8-3.3-11.8-6.3-15.6zm13.8-3.9c-1.5-3.2-7.5-14.1-19.7-19.7-9.4-4.3-16.4-5.4-23.5-3.7-2.1.6-4.4 1.6-6.8 2.7-4.9 2.2-10.5 4.7-17.2 4.9-4.9.1-12.4 1.2-20.3 2.3-9.3 1.3-18.9 2.7-26.2 2.8-13.6.2-25.2 7.5-27 11.4-1.5 3.3-4.3 15.1-4.3 20.6 0 .9-.1 2-.3 3.2h1.8c.2-1.3.2-2.4.2-3.2 0-5.1 2.7-16.7 4.1-19.8 1.4-3.1 12.4-10.2 25.4-10.4 7.4-.1 17-1.5 26.4-2.8 7.9-1.1 15.3-2.2 20.1-2.3 7.1-.2 13.1-2.9 17.9-5.1 2.5-1.1 4.6-2.1 6.5-2.6 6.7-1.7 13.2-.7 22.3 3.5 11.7 5.4 17.4 15.8 18.9 18.9.5 1 1.1 2.3 1.8 3.7 2.8 5.9 6.9 14.5 9.9 20h2c-3.1-5.4-7.4-14.5-10.4-20.7-.5-1.4-1.1-2.7-1.6-3.7zM78.8 70.7c-3.4-4.5-7-9.2-5.8-15.5 1.2-6 7.5-6.8 10.5-7.2l.5-.1c1.3-.2 4.2-.1 8.1 0 5 .1 11.8.3 18-.1 5.8-.3 7.8-1.1 10.4-2.3 2.2-.9 5-2.1 10.8-3.3 13.4-2.8 17.7 1 22.3 6.8 3.7 4.6 4.1 10.4 4.6 16.6.2 2 .3 4 .6 6.1 1 7.5 6.1 10.7 13.1 14.4 3 1.6 8.1 3.1 13 4.6 5.9 1.8 11.6 3.5 14.4 5.4 5.6 3.9 5.4 6.5 3.1 13-2.2 6.3-7.3 5.2-11 4.4-.6-.1-1.1-.2-1.6-.3-3.3-.6-9.3-3.7-14.1-6.2-1.3-.7-2.4-1.3-3.3-1.7-.7-.3-15.6-6.6-25.1-7.7-7.9-.8-13.5 3.8-17.7 7.1-.9.7-1.7 1.4-2.4 1.9-1.1.8-2.4 2.2-3.8 3.8-3.5 3.9-8.3 9.2-15.6 10.7-2.2.4-4.1.6-5.7.6-4.5 0-6.8-1.6-9.9-3.8-.9-.6-1.8-1.3-2.9-2-5.1-3.2-8.9-8.3-10.8-14.7-1.2-4.5 1.5-14.2 1.6-14.6 0-.1 2.2-11.2-1.3-15.9zm1.4-1c4 5.3 1.8 16.8 1.7 17.3 0 .2-2.7 9.7-1.5 13.8 1.8 6.1 5.2 10.7 10 13.7 1.1.7 2.1 1.4 3 2 4.1 2.8 6.3 4.4 14.1 2.8 6.7-1.4 11.1-6.3 14.6-10.2 1.5-1.7 2.9-3.2 4.1-4.1.7-.5 1.4-1.1 2.3-1.8 4.1-3.3 10.3-8.3 19-7.4 10 1.2 25 7.6 25.7 7.9 1 .5 2.1 1.1 3.4 1.8 4.5 2.3 10.6 5.5 13.6 6.1.5.1 1.1.2 1.7.3 3.7.8 7.3 1.6 8.9-3.3 2.1-6.3 2.1-7.8-2.5-11-2.6-1.8-8.3-3.5-13.9-5.2-5-1.5-10.2-3.1-13.3-4.7-6-3.2-12.9-6.8-14.1-15.8-.3-2.1-.4-4.2-.6-6.2-.4-5.9-.9-11.4-4.2-15.6-4.5-5.6-8.1-8.8-20.5-6.2-5.6 1.2-8.3 2.3-10.4 3.2-2.7 1.1-4.8 2.1-11 2.4-6.3.3-13.2.2-18.2.1-2.1 0-3.9-.1-5.3-.1-1.1 0-2 0-2.5.1l-.5.1c-3 .4-8.1 1.1-9 5.8-1 5.2 1.5 9 5.4 14.2zm10.3 5.1c-.9-3.9.5-6 1.8-7.9.5-.8 1-1.5 1.4-2.4 1.3-3.6 6.6-6.5 10.8-5.9 3.7.6 10.1.3 12.5-.4 2.5-.7 7.8-3.2 9.8-4.2 2-1 8.5-2.1 14.3 4.9 6.1 7.4 5 14.4 3.6 19-1.8 6-9.6 6.9-13 7.2-1.9.2-3.7 0-5.2-.2-1.4-.2-2.7-.3-3.7-.1-1.2.2-1.3 1.4-1.5 4.3 0 .6-.1 1.3-.1 1.9-.3 4-2 7.5-3 9.2-1.2 2.1-5.6 8.8-12.1 8.8-4.2 0-6.5-.2-8.9-1.5-2.8-1.5-5.3-7.9-3.9-12.3 1.2-3.8.6-8.2.1-10.2-.2-.6-.4-1.3-.6-2.2-.7-1.8-1.4-4.5-2.3-8zm1.8-.4c.8 3.4 1.6 6.1 2.2 8 .3.9.5 1.6.6 2.2.6 2.2 1.2 7-.1 11.2-1.2 3.6 1.1 9.1 3.1 10.1 2.1 1.1 4.1 1.3 8.1 1.3 5.7 0 9.8-6.6 10.5-8 .9-1.6 2.5-4.8 2.8-8.4.1-.6.1-1.3.1-1.9.1-2.8.3-5.4 2.9-5.9 1.3-.3 2.8-.1 4.3.1s3.1.4 4.8.2c3-.3 10-1.1 11.4-6 1.4-4.6 2.3-10.8-3.2-17.4-5.1-6.1-10.5-5.3-12.1-4.5-1.4.7-7.2 3.5-10.1 4.4-2.7.7-9.3 1.1-13.3.4-.3 0-.6-.1-.9-.1-3.2 0-7 2.2-7.9 4.8-.4 1.1-1 1.9-1.5 2.8-1.4 2-2.5 3.6-1.7 6.7zM17.4 278.2c4.5 0 8.6-1.2 12.3-2.3l.4-.1c5.8-1.7 13.5-8.8 17.6-12.7.5-.4.9-.8 1.2-1.1 3-2.8 5.9-3.6 10.4-4 2.6-.2 4.9-1.6 6-3.6.9-1.6 1.5-4.3-.4-8.2-2.9-5.7-8.7-4.8-12.2-4.3-.7.1-1.3.2-1.8.2-1.4.1-4.4.7-7.8 1.4-4.1.9-8.9 1.9-11.9 2.2-4.7.3-8.4-2.7-12.3-5.8l-1.6-1.3c-3.8-3.1-11-6.6-17.3-9.5v2c4.6 2.1 12.3 5.8 16.2 8.9l1.6 1.3c4 3.2 8.2 6.6 13.6 6.2 3.2-.3 8-1.3 12.2-2.2 3.2-.7 6.2-1.3 7.5-1.4.6 0 1.2-.1 1.9-.2 3.4-.5 8-1.2 10.3 3.4 1.3 2.6 1.4 4.8.5 6.6a5.7 5.7 0 0 1-4.6 2.7c-4.8.4-8 1.3-11.4 4.4-.3.3-.8.7-1.2 1.1-3.8 3.5-11.6 10.7-16.9 12.3l-.4.1c-6 1.7-13.5 3.9-21.2 0a36.1 36.1 0 0 1-8-5.7v2.4c2.1 1.9 4.4 3.5 7.2 4.9 3.4 1.7 6.8 2.3 10.1 2.3zm53.2 3.9c.3 1.6-.8 4.7-4.7 8.1a7.44 7.44 0 0 1-5.1 2.1c-1.4 0-2.4-.5-2.8-.7-2.9-.7-5.9-2.8-5.9-5.8s2.5-3.1 4.7-3.1c.5 0 1 0 1.5-.1 2.1-.1 4-1.3 5.5-2.3.4-.3.8-.5 1.1-.7 1-.6 2.3-.5 3.6.1.9.5 1.9 1.3 2.1 2.4zm-1.8.2c0-.2-.4-.7-1.2-1-.7-.3-1.5-.4-1.9-.2-.3.2-.7.4-1.1.6-1.6 1-3.8 2.4-6.3 2.6-.5 0-1 .1-1.5.1-2.6.1-2.9.2-2.9 1.3 0 2.1 2.4 3.6 4.6 4.1l.3.1c.2.1 2.8 1.6 5.9-1.2 3.7-3.2 4.2-5.7 4.1-6.4zm50.6-205.6a8.21 8.21 0 0 1-2.4-6.2v-.8c0-2.6.1-6.6 5.1-7.1 5.3-.5 9 2.1 9.7 6.7.4 2.6-.2 5.1-1.7 6.8-1.3 1.6-3 2.5-5.1 2.6h-.5c-2 0-3.8-.7-5.1-2zm-.6-6.2c-.1 1.8.6 3.6 1.8 4.8 1.1 1.1 2.6 1.6 4.2 1.5 1.6-.1 3-.8 3.9-1.9 1.1-1.4 1.6-3.4 1.3-5.4-.5-3.3-2.9-5.2-6.7-5.2h-1.1c-3.1.3-3.4 2.2-3.5 5.3.1.4.1.7.1.9zm134 142.7c-.7-.5-2.9-1.8-2.6-3.8.4-2.4 4.1-4.3 12.5-6.3 10.5-2.6 15 0 18.8 2.9 4.4 3.4 6.7 8.8 6.3 14.8-.5 7.1-5.4 8.1-9 8.3h-.4c-3 0-4.6-2-6-3.7-.5-.6-.9-1.2-1.4-1.6-2.1-2-5.3-4-8.4-5.9-1.6-1-2.5-1.3-3.6-1.7-1.5-.6-3-1.2-6.2-3zm1-1.6c3 1.7 4.4 2.3 5.7 2.8 1.1.4 2.2.8 3.9 1.8 3.2 1.9 6.5 4 8.8 6.1.6.6 1.1 1.2 1.6 1.8 1.4 1.7 2.6 3.2 4.9 3 3.6-.2 7-1.1 7.4-6.7.3-5.4-1.7-10.2-5.7-13.2-3.4-2.6-7.5-4.9-17.2-2.5-9.4 2.3-11 4-11.1 4.9-.2.6.4 1.3 1.7 2zM4 261.1c-1.8-2.6-4.3-6.1-3.9-10.2.1-3 1.5-5.4 3.8-6.1 2.1-.6 4.4.3 6 2.6 2.9 4 5.4 5.4 12.2 7 3 .7 4.5.5 5.5.4 1.4-.2 2.4-.2 4.3 1.4 2 1.8 2.9 3.6 2.7 5.5-.4 3.2-3.7 5.3-5.2 6.1-1.3.7-3.4.9-5.9.9-3.1 0-6.7-.4-9.8-.8-4.9-.6-8.2-4.5-9.7-6.8zm1.4-1c1.4 2 4.3 5.5 8.6 6 7.3 1.1 12.7 1.1 14.6.1 1.9-1 4-2.8 4.2-4.8.1-1.3-.6-2.6-2.1-4-1.4-1.2-1.7-1.2-2.8-1-1.1.2-2.8.4-6.2-.4-7.2-1.7-10-3.3-13.2-7.6-1-1.3-2.2-2-3.3-2-.3 0-.5 0-.8.1-1.5.5-2.4 2.2-2.5 4.5-.4 3.5 1.8 6.6 3.5 9.1zm242.1-8.7c-2.3-.8-4.8-3.3-4.5-5 .1-.4.5-1.4 2.2-1.3 3.2 0 5.9.9 9.2 2.5 2.5 1.2 3.8 2.4 3.8 3.6 0 .4-.2 1.3-1.4 1.8-.2.1-.6.2-1.4.2-1.2 0-3.5-.3-7.9-1.8zm.6-1.6c6.1 2 7.7 1.7 8.1 1.6.2-.1.3-.2.3-.2s-.2-.8-2.8-1.9c-3.7-1.7-6-2.3-8.5-2.3h-.4c.2.5 1.6 2.1 3.3 2.8zM18 225.3c2.3 1.4 4.5 2.6 6.3 3.6l.1.1c6 3.3 10.7 5.9 18.2 5.4 7-.4 19.8-2.5 28.3-5.3 8.9-2.9 18.8-1 22.6 0 6.1 1.6 16.7 1.1 20.6 0 .1 0 3-.7 5.1-1.7.5-.2 1.1-.6 1.9-1.1 2.8-1.8 8.1-5.1 13.9-4.8 4.8.2 10 2.7 15.5 7.3l.2.2c1.7 1.2 9.4 6.3 12.2 6.9 2.4.4 9.7 3.1 11.5 5.3.7.9 1.6 2.9 2.4 5 1.3 3.2 2.9 7.2 5.2 9.9 3.8 4.4 9.8 9.6 17.2 9.6 4.6 0 7.5-.8 9.6-1.4 1.2-.3 2.1-.6 3-.6.8-.1 8.2-.5 11.7 2.9 3.5 3.3 16.3 10.3 19.2 11.5 2.8 1.2 14.6 5.2 24.3 5.2.7 0 1.5 0 2.2-.1 9.7-.7 20.6-5.2 25.2-8.1l.9-.6c4.6-2.9 13.3-8.3 10.8-22.2-1.4-8.2-3.3-14.6-4.6-19.3-1-3.4-1.7-5.8-1.7-7.2 0-.8.2-2.2.5-4 1.1-6.1 3-16.3-3.2-23.3-8.2-9.2-15.4-10.1-25.4-10.5-4.9-.2-11.4 0-17.7.1-6.8.1-13.3.3-15.7-.1-6.7-1-19.3-4-27.5-12.4-3.9-4-6.9-7.8-9.5-11.1-3.4-4.3-6-7.6-8.9-9.1-5.1-2.5-14.1-8-18.2-13.1-1.7-2.1-2.4-4.3-3.1-6.4-1.1-3.2-2.2-6.4-6.2-9-6.2-4-12.8-7.7-19.8-3.8-3.7 2.1-4.3 6.4-4.8 10.6-.4 3.5-.8 6.8-3.1 8.4-5.2 3.8-22.7 7.4-28.1 6.9-5.7-.4-16.3-5.8-21.1-9.4-5.2-3.8-17.5-14.1-22.1-19.3-1.3-1.5-3.2-3.7-5.3-6.2-5.6-6.7-12.7-15-15.4-16.8-.4-.3-.9-.6-1.5-1-4.3-3-12.2-8.5-22.8-11.1l-2.6-.6c-6.5-1.9-11.6-3.1-18.3-4v1.8c6.6.8 11.5 2 17.7 3.6l2.6.6c10.2 2.5 18 7.9 22.2 10.8.6.4 1.1.8 1.5 1.1 2.5 1.7 9.7 10.2 15 16.5 2.2 2.6 4 4.8 5.3 6.3 4.7 5.3 17.1 15.6 22.3 19.5 5.1 3.8 16 9.4 22.1 9.8 5.8.5 23.7-3.2 29.3-7.3 2.9-2 3.4-5.9 3.8-9.6.5-3.9.9-7.6 3.9-9.2 5.6-3.1 10.8-.9 18 3.8 3.5 2.3 4.4 5 5.4 8.1.8 2.3 1.6 4.7 3.5 7 4.6 5.7 14.3 11.3 18.8 13.5 2.6 1.3 5.1 4.5 8.3 8.6 2.6 3.4 5.6 7.2 9.6 11.2 8.6 8.9 21.5 11.9 28.5 13 2.6.4 8.8.3 16 .1 6.3-.1 12.8-.3 17.6-.1 9.9.4 16.4 1.2 24.2 9.9 5.6 6.3 3.8 16 2.8 21.8-.3 1.9-.6 3.4-.6 4.4.1 1.7.8 4.2 1.8 7.6 1.3 4.6 3.2 10.9 4.6 19.1 2.2 12.7-5.4 17.5-10 20.3l-.9.6c-4.5 2.9-15 7.2-24.4 7.9-9.7.7-22.7-3.8-25.7-5-3.2-1.3-15.5-8.2-18.6-11.1-4-3.8-11.6-3.4-13.1-3.3-1.1.1-2.1.4-3.3.7-2.1.6-4.8 1.3-9.1 1.3-6.7 0-12.3-4.9-15.8-9-2.1-2.5-3.6-6.1-4.9-9.4-1-2.4-1.8-4.4-2.7-5.5-2.3-2.9-10.3-5.5-12.5-5.9-2.3-.5-9.6-5.2-11.4-6.5l-.2-.1c-5.8-4.8-11.4-7.4-16.6-7.7-6.4-.3-11.9 3.2-14.9 5.1-.7.5-1.3.8-1.7 1-1.9.9-4.7 1.5-4.8 1.6-3.8 1-13.9 1.5-19.7 0-4.9-1.3-14.5-3-23.6 0-8.4 2.8-21 4.9-27.9 5.3-7 .5-11.3-1.9-17.2-5.1l-.1-.1c-1.8-1-3.9-2.2-6.3-3.6-5.8-3.4-12.3-7.2-16.9-9.1-.7-.3-1.3-.5-1.9-.7v1.9c.4.1.8.3 1.3.5 4.5 1.5 11 5.3 16.7 8.7zM.3 191.8c-.1-.3-.2-.5-.3-.8v6.1c.7-1.2.9-2.8.3-5.3zm65.8-99.9c.1-4.3.1-8.7-.4-12.8-.6-5.3-2.6-6.6-5.9-8.9-1.4-1-3-2.1-4.7-3.6-6.1-5.6-7.6-11.7-4.3-18.3 2.8-5.7 19.7-7.9 28.8-9.1 1.5-.2 2.8-.4 3.6-.5 5.5-.9 22.3-2.6 29.9-3.2 3.4-.3 7.2-1.3 11.3-2.5 5.2-1.5 11.1-3.1 17.2-3.4 13.4-.6 24.2 12 26.2 14.5 3 3.7 4.7 9.7 6.3 15.6 1.1 3.8 2.2 7.8 3.6 11 2.7 6.1 10.6 8.4 15.3 9.8 1.3.4 2.4.7 3.2 1 .7.3 1.9.6 3.2 1 4.9 1.3 13.2 3.6 17.5 10.2 3.2 4.8 3.6 10.7 4.1 16.4.4 4.5.7 8.7 2.3 12.3 3.8 9 18 17.8 19.6 18.8 3.7 2.3 12.5 8.5 15.8 15.7 3.1 7 1.5 13.2-4.4 17.1-2.4 1.6-4.8 2.1-7.2 2.1-1.9 0-3.8-.3-5.8-.6-1.4-.2-2.8-.5-4.3-.6-5.8-.5-13.1-4.9-18.5-8.1-.7-.4-1.4-.8-2-1.2l-6.1-3.8c-4.4-2.8-9.5-11.6-11.2-15.5-1.8-4-8-8-13.3-10.4-5.3-2.4-9.8-8.7-12-11.7-.2-.3-.5-.6-.7-1-2.3-3.3-5.4-7.7-13-9.7-7-1.8-10.8-.7-15.5.7-1 .3-2.1.6-3.3.9-5.8 1.5-10.1 6.8-13 16.1-3 9.6-15.7 9-21.9 8.7-6.3-.3-17.7-5.7-27.1-12.8-10.5-7.9-12.8-19.3-13.3-23.9-.1-2.9-.1-6.5 0-10.3zm1.4-13c.5 4.2.4 8.7.4 13.1 0 3.7-.1 7.3.2 10.2.5 4.3 2.6 15.2 12.5 22.7 9.2 6.9 20.2 12.1 26.1 12.4 6.1.3 17.5.8 20.1-7.5 3.1-10 7.8-15.6 14.2-17.3 1.1-.3 2.2-.6 3.2-.9 4.8-1.4 8.9-2.6 16.4-.7 8.3 2.1 11.7 7.1 14 10.4l.7 1c2.1 2.9 6.4 8.9 11.2 11.1 2.7 1.2 11.6 5.7 14.1 11.2 2.1 4.6 6.9 12.4 10.6 14.7l6.1 3.8c.6.4 1.3.8 2 1.2 5.2 3.1 12.4 7.5 17.7 7.9 1.6.1 3 .4 4.4.6 4.3.7 7.9 1.3 11.7-1.2 5.2-3.4 6.6-8.7 3.8-14.9-3.1-6.8-11.6-12.7-15.1-14.9-2.7-1.6-16.5-10.3-20.3-19.6-1.6-3.9-2-8.5-2.4-12.9-.5-5.5-.9-11.2-3.8-15.6-4-6.1-11.5-8.1-16.5-9.5-1.5-.4-2.6-.7-3.5-1.1-.7-.3-1.7-.6-3-1-5-1.5-13.4-3.9-16.4-10.8-1.5-3.4-2.6-7.4-3.7-11.3-1.6-5.6-3.2-11.5-6-14.9-5.3-6.7-15-14.3-24.8-13.9-5.9.3-11.7 1.9-16.8 3.3-4.2 1.2-8.1 2.3-11.6 2.6-7.6.6-24.3 2.3-29.7 3.2-.8.1-2.1.3-3.6.5-7.5 1-25 3.3-27.4 8.1-2.9 5.9-1.7 11.1 3.9 16.1 1.7 1.5 3.2 2.6 4.6 3.5 3.5 2.6 6 4.3 6.7 10.4zm54.8 538.9c-2 .2-3.2 1.1-3.9 2.2h2.6c.4-.2.9-.3 1.5-.4 1.5-.1 2.8 0 3.9.4h3.4c-1.7-1.7-4.3-2.5-7.5-2.2zM15.1 596.3h-.5c-1.9-.1-4.2.5-6.6 1.2-2.1.6-4.3 1.1-6.2 1.2H-.1v1.8h1.9c2.1-.1 4.4-.7 6.5-1.3 2.3-.6 4.4-1.2 6.1-1.1h.5c2.6.1 8 .5 8.3 2.3.5 3.5.7 9.9-3.7 13.7-3.9 3.4-9.1 4.9-16.1 4.7-.9 0-2.2-.2-3.5-.5v1.7h11.4c3.7-.8 6.8-2.3 9.4-4.5 5.1-4.4 4.9-11.5 4.3-15.3-.4-3.3-5.9-3.6-9.9-3.9zm112 12.9c-2 1-7.3 3.5-9.8 4.2-2.4.7-8.8 1-12.5.4-4.2-.7-9.5 2.3-10.8 5.9 0 .1-.1.2-.1.3h1.9c1.1-2.4 4.7-4.5 7.8-4.5.3 0 .6 0 .9.1 4 .6 10.6.3 13.3-.4 2.9-.9 8.7-3.7 10.1-4.4 1.6-.8 7-1.6 12.1 4.5 1.3 1.6 2.3 3.2 3 4.7h1.9c-.7-1.9-1.8-3.9-3.5-5.9-5.8-7-12.3-5.9-14.3-4.9zM17.3 341c0 .9.1 1.7.1 2.6.4 8 3.6 13.9 10 18 5.4 3.7 14 10.2 20.4 16.6 6.7 6.7 12.9 23.3 14.9 28.8 3 8.1 11.4 16.4 18.5 16.4.4 0 .7 0 1.1-.1 7.6-1 7-11.6 6.8-16.1v-.6c-.1-1.5-.2-3-.4-4.5-.3-2.8-.6-5.6-.3-8.3.4-4.1 5.3-15.7 7.6-18.9 2.2-3 10.9-8.3 20.4-10.4 12-2.6 15.1-9.8 15.8-11.9 1.2-4 8-12.5 14.4-15.7 2.1-1 3.6-2.9 4.5-5.5 2-6 .2-14.1-2.3-19.1-3.5-7-11.2-8.1-15.4-8.7-.7-.1-1.2-.2-1.7-.3-3.8-.7-9.4-3.1-9.8-6-.4-3.8-4.3-10.1-8.9-10.9-3.7-.7-9.9-.4-20.1 9.1-9.3 8.7-19.8 12.7-34.1 12.9-14.6.2-27.6-6.4-31.9-8.6-1.2-.6-3-1.6-4.9-2.8-6-3.5-14.2-8.2-21.9-10.6H0v1.9c7.4 2.3 15.3 6.9 21.1 10.3 2 1.2 3.7 2.2 5 2.8 4.4 2.2 17.7 9 32.7 8.8 14.8-.2 25.7-4.3 35.3-13.3 9.6-9 15.2-9.3 18.5-8.7 3.6.6 7.1 6.1 7.5 9.3.6 4.4 7.6 6.9 11.2 7.6.5.1 1.1.2 1.8.3 4.1.6 11 1.6 14.1 7.7 2.4 4.8 3.9 12.5 2.2 17.7-.7 2.2-1.9 3.7-3.6 4.5-7 3.4-14 12.4-15.4 16.7-.6 1.9-3.4 8.3-14.4 10.7-9.4 2-18.8 7.4-21.4 11-2.5 3.3-7.6 15.3-8 19.8-.3 2.8 0 5.8.3 8.6.2 1.5.3 3 .4 4.4v.6c.2 4.4.7 13.5-5.3 14.2-6.5.8-14.9-7.5-17.8-15.2-2.1-5.6-8.4-22.5-15.3-29.4-6.4-6.4-15.1-13.1-20.6-16.8-5.8-3.8-8.8-9.2-9.2-16.6 0-.8-.1-1.6-.1-2.5-.3-8.6-.7-20.3-10.3-26.2-2.7-1.6-5.7-3-8.7-4.3v1.9c2.7 1.2 5.4 2.5 7.8 4 8.8 5.4 9.2 16.6 9.5 24.8zm114.4 256.4c-5.8 1.3-8.5 2.4-10.7 3.3-2.6 1.1-4.5 1.9-10.4 2.2-6.2.3-13.1.2-18 .1-4-.1-6.8-.2-8.1 0l-.5.1c-3 .4-9.4 1.2-10.5 7.3-.6 3.6.1 6.6 1.7 9.6h2c-1.8-3-2.6-5.8-2-9.2.9-4.8 6-5.4 9-5.8l.5-.1c.5-.1 1.4-.1 2.5-.1 1.4 0 3.2 0 5.3.1 5 .1 11.9.3 18.2-.1 6.2-.3 8.2-1.2 11-2.4 2.1-.9 4.8-2 10.4-3.2 12.4-2.6 16 .6 20.5 6.2 3.2 4 3.7 9.1 4.1 14.6h1.8c-.5-5.8-1-11.3-4.5-15.8-4.6-5.7-8.9-9.6-22.3-6.8zm-8-401.2c-1.6-1.3-1.9-3.6-2-5.9-.2-3.8 1-12.7 3.9-15.6 3.4-3.4 12.7-5.2 18.3-2.4 5 2.6 11.8 4.1 15.8 4.3 4.4.2 6.9 2.2 10.4 4.9l.6.4c3.7 2.8 6.1 7.2 7.1 9l.2.4c.7 1.2 6.7 6.1 11.9 9 3.2 1.8 6.7 4.5 10.7 7.6 2.4 1.9 4.9 3.8 7.6 5.7 3.2 2.3 4.5 4.1 4.1 5.6-.4 1.3-1.9 2-4.6 2.2h-.4c-2.1 0-4.3-1.2-6.9-2.7-.8-.4-1.6-.9-2.4-1.4-2.7-1.5-11-5.2-11-5.3h-.1c-2.2-1.3-5.1-.8-8-.2-2.7.5-4.5-.1-6.8-.7-.4-.1-.9-.3-1.4-.4-2.8-.7-10-4.5-11.1-8.4-1-3.2-3.2-7.5-6.6-10-4-3-7.9-2.3-9.9-1.7-.5.2-1.6.8-2.8 1.5-3.2 1.9-8 4.7-11.6 5.1-2.2.3-3.8-.1-5-1zm-.2-6c.1 2.5.5 3.9 1.4 4.6.7.6 1.9.8 3.6.6 3.3-.4 7.9-3.1 10.9-4.9 1.4-.8 2.5-1.4 3.1-1.7 4-1.4 8.1-.7 11.5 1.9 4.7 3.5 6.7 9.3 7.2 11 .9 3.1 7.4 6.5 9.9 7.2.5.1 1 .3 1.4.4 2.2.6 3.8 1.1 6 .7 3.1-.7 6.5-1.2 9.2.4.7.3 8.4 3.8 11.1 5.3.9.5 1.7 1 2.5 1.4 2.6 1.5 4.6 2.6 6.3 2.5 2.8-.2 3-.9 3-.9s.2-1-3.4-3.7c-2.7-1.9-5.2-3.9-7.6-5.8-4-3.1-7.4-5.7-10.5-7.5-5.1-2.8-11.5-7.9-12.5-9.6l-.2-.4c-1-1.8-3.3-5.9-6.7-8.5l-.6-.4c-3.4-2.6-5.6-4.3-9.4-4.5-4.2-.2-11.3-1.8-16.6-4.5-4.9-2.5-13.3-1-16.3 2-2.2 2.3-3.5 10.3-3.3 14.4zM45.7 335.1c1.8-8 5.5-9 12.3-8.3 2.3.3 4.2.9 6 1.5 3 1 5.7 1.9 10.1.8 7.4-1.7 12.8-3.6 14.1-4.9 2.2-2.2 6.5-5.8 11.2-5.4 2.8.2 5 1.5 6.4 3.4 1 1.4 2 4 1 7.9-1.5 6.2-6.5 17.8-16.1 21.5-5 1.9-11.8 3.5-18.7 3.5-4.4 0-8.8-.6-12.8-2.2-10.5-3.9-15.2-10.3-13.5-17.8zm14.1 16.3c9.9 3.8 22.5 1.7 30.3-1.3 8.9-3.4 13.7-14.4 15.1-20.3.6-2.6.4-4.8-.8-6.4a6.97 6.97 0 0 0-5.1-2.7c-4-.4-7.8 2.9-9.8 4.8-2.1 2.1-10.2 4.2-14.9 5.3-5 1.1-7.9.2-11.1-.9-1.7-.6-3.5-1.1-5.6-1.4-1.1-.1-2.2-.2-3.1-.2-3.8 0-5.9 1.4-7.2 7.1-2.1 8.5 5.5 13.4 12.2 16zm4-9.2c-.5-1.7.5-3.7 2.4-4.7 2.4-1.3 4.4-1.3 6.1-1.2h1.4c1.9-.3 3.4-.6 4.7-.8 1-.2 1.8-.4 2.6-.5 2.1-.3 5.6-.4 6.3 1.3.5 1.3-.9 2.6-2.1 3.4-5 3.6-8.4 5.3-15.4 5.5h-.4c-4.3-.1-5.4-2.1-5.6-3zm1.7-.5c.3 1.1 1.8 1.7 4.2 1.6 6.6-.2 9.6-1.7 14.4-5.1 1-.7 1.3-1.2 1.4-1.3-.6-.3-2.6-.4-4.4-.1-.7.1-1.4.2-2.4.4-1.3.3-2.9.6-4.9.9h-2.6c-1.3 0-2.6.2-4.1 1-1.2.5-1.9 1.7-1.6 2.6zm-35-3.1c-1.5-3-2.7-5.7-2.6-10 .2-5.7 1.2-11.3 7.1-12.8 4.2-1.1 13.9 1.1 16.2 2l.4.1c5.3 1.6 11.4 3.4 18.9 1.7 8-1.8 17.3-6.4 21.2-8.8.4-.2.8-.4 1.1-.7 4.7-2.8 11.9-7 17.5-1.6s7.7 6.8 11.3 8.3c3.1 1.3 5.4 2.7 7.1 4.3 2.7 2.6 3.4 5.6 2.1 8.7-2.6 6.2-7.3 10.5-10.9 12.4-2.6 1.4-7 6.4-7.8 8.6-1.4 3.7-4.7 6-9.8 6.8-5.2.8-7.1 2.9-10 6.1l-1.7 1.8c-3.6 3.9-9 9.9-15.3 10.1h-.7c-7.2 0-14.2-3.4-18.1-8.9-1-1.4-1.9-2.7-2.6-3.9-2.5-3.8-4.1-6.4-8.6-7.9l-.7-.2c-5.9-2-9.4-3.2-11.8-10.2-.6-2.4-1.5-4.3-2.3-5.9zm-.8-10c-.1 3.9.9 6.1 2.4 9.2.8 1.7 1.7 3.6 2.6 6.1 2.1 6.2 4.9 7.2 10.6 9.1l.7.2c5.1 1.7 6.9 4.6 9.5 8.6.7 1.1 1.6 2.4 2.6 3.8 3.6 5.2 10.4 8.3 17.2 8.1 5.5-.2 10.7-5.8 14.1-9.5l1.7-1.8c3.1-3.4 5.3-5.8 11.1-6.7 4.4-.7 7.2-2.6 8.4-5.6 1-2.7 5.5-8 8.6-9.6 1.1-.6 7-4.1 10.1-11.6 1-2.4.5-4.6-1.7-6.7a21.4 21.4 0 0 0-6.5-3.9c-3.8-1.6-6.1-3.1-11.9-8.7-4.7-4.5-10.9-.8-15.4 1.9-.4.2-.8.5-1.1.7-4.2 2.6-13.5 7.1-21.7 9-7.9 1.8-14.5-.1-19.8-1.7l-1.1-.3c-2.1-.6-7.8-2-11.9-2-1 0-1.9.1-2.6.3-4.1 1-5.7 4.1-5.9 11.1zm7.2 69.4c1.6 3.3 3.6 8.4 5.8 14.3 4.3 11.2 9.7 25.1 14.7 32.3 7.7 10.8 13.2 15.5 18.5 15.5h.4c3.2-.1 19.6-1.7 24.5-19.6 2.8-9.9 2.2-19.9 1.7-27.8-.3-5.3-.6-9.8.1-13.3 1.9-9.7 5.4-16.6 16-19.3 3.2-.8 6.4-1.3 9.4-1.8 7.7-1.2 14.4-2.3 17.4-7.9 1.4-2.6 2.1-5.4 2.9-8.1 1.4-5 2.5-9.3 7.2-10.8.8-.2 1.6-.5 2.4-.7 7-2 15-4.4 17.1-14.8 2.2-10.9-1.8-17.7-5.5-21.6-1-1.1-2.8-2.3-4.8-3.7-4.1-3-9.8-7-13-12.3-4.3-7.1-10-13.7-18.5-21.4-7.1-6.5-15.8-8.9-28.1-7.7-4.6.4-8.2 1.5-11 2.4-4.6 1.4-6.7 1.9-9-.3a4.95 4.95 0 0 1-1.6-3.6c0-2.4 1.8-5.3 5.4-8.7l.6-.6c4-3.8 11.5-11 21.2-13.7 9.6-2.7 11.1-2.1 15.6-.3l.7.3c5.6 2.2 11.6 3.7 15.6 3.9 4.4.2 10.1 1.9 12.2 4.7.4.5.8 1.1 1.3 1.8 2.7 3.9 7.1 10.4 14.7 13.7 1.5.7 3 1.4 4.4 2 6.3 3 11.8 5.6 22.8 4.5 13.3-1.3 16.6-.8 25.5 4.1 3.1 1.7 6.9 4.1 11 6.6 8.2 5.2 16.7 10.5 20.5 10.8 1.3.1 3.3.3 5.5.6 6.7.8 15.9 2 22.7 1.2 11.5-1.4 27.5-4.5 33.7-14.4 6.3-10 8.5-20.7 6.1-30.1-2.2-8.7-6-16.3-8.8-20.5-2.2-3.2-4.1-8.5-.1-21 3.7-11.6 2.4-18.6-5-24.9-2.2-1.9-5.6-4.4-9.1-7-7-5.2-15.7-11.8-19.9-17-3.7-4.6-5.4-10.6-6.9-15.9-1.1-3.7-2.1-7.2-3.6-9.8-3.8-6.3-13.7-11.7-17-13.5l-.2-.1c-1-.6-9.8-6.1-12.3-20.3-2-11.8-9.4-21.4-18.8-24.3-5.4-1.6-23.4-7.4-27.3-14.1-3.1-5.2-7.8-15-10.9-21.6-.7-1.5-1.3-2.7-1.8-3.8-1.5-3.2-7.5-14.1-19.7-19.7-9.4-4.4-16.3-5.5-23.5-3.7-2.1.6-4.4 1.6-6.8 2.7-4.9 2.2-10.5 4.7-17.2 4.9-4.9.1-12.4 1.2-20.3 2.3-9.3 1.3-18.9 2.7-26.2 2.8-14.5.1-25.5 8-27 11.3-1.7 3.4-4.3 15.3-4.3 20.6 0 3.9-1.1 13.1-11.3 13.3-1.5 0-3.3.1-5.4.2-5.3.2-12.6.6-19.6 0v1.8c7 .6 14.4.2 20 0 2.1-.1 3.9-.2 5.4-.2 12-.3 13-11.7 13-15.2 0-5 2.5-16.6 4.1-19.8 1.4-3.1 12.5-10.2 25.4-10.3 7.4-.1 17-1.5 26.4-2.8 7.9-1.1 15.3-2.2 20.1-2.3 7.1-.2 13.1-2.9 17.9-5.1 2.5-1.1 4.6-2.1 6.5-2.6 5-1.2 11.1-1.7 22.3 3.5 11.7 5.4 17.4 15.8 18.9 18.9.5 1 1.1 2.3 1.8 3.8 3.1 6.5 7.8 16.4 10.9 21.7 4.1 7 21.2 12.8 28.3 14.9 8.8 2.7 15.7 11.7 17.6 22.9 2.5 14.7 11.4 20.5 13.1 21.5l.2.1c3.2 1.7 12.8 7 16.3 12.9 1.4 2.4 2.4 5.8 3.4 9.4 1.6 5.4 3.3 11.6 7.2 16.5 4.4 5.4 12.8 11.8 20.3 17.3 3.5 2.6 6.8 5.1 9 7 6.8 5.9 8 12.1 4.4 23.1-3.3 10.4-3.2 17.3.3 22.6 2.7 4.1 6.4 11.4 8.6 19.9 2.2 8.9.2 19.1-5.9 28.7-6.5 10.4-26 12.8-32.5 13.6-6.5.8-15.6-.3-22.2-1.2-2.3-.3-4.2-.5-5.6-.6-3.3-.3-12-5.7-19.7-10.5-4.1-2.6-7.9-5-11.1-6.7-9.7-5.3-13.7-5.6-26.5-4.3-10.5 1-15.5-1.4-21.8-4.4-1.4-.7-2.8-1.4-4.4-2-7.1-3.1-11.4-9.4-13.9-13.1-.5-.7-.9-1.4-1.3-1.9-2.7-3.7-9.6-5.3-13.6-5.5-3.8-.2-9.6-1.6-15-3.7l-.7-.3c-4.6-1.8-6.6-2.6-16.8.2-10.1 2.8-17.8 10.2-22 14.1l-.6.6c-4 3.8-5.9 7-6 10 0 1.8.7 3.5 2.1 4.9 3.1 3 6.3 2.1 10.7.7 2.8-.8 6.2-1.9 10.7-2.3 11.8-1.1 20 1.1 26.7 7.3 8.4 7.5 13.9 14 18.1 21 3.4 5.6 9.2 9.8 13.5 12.8 1.9 1.4 3.6 2.6 4.5 3.5 3.4 3.5 7.1 9.9 5.1 20-1.9 9.3-8.7 11.3-15.9 13.4-.8.2-1.6.5-2.4.7-5.6 1.7-7 6.7-8.4 12-.7 2.6-1.4 5.3-2.7 7.7-2.6 4.8-8.6 5.8-16.1 7-3.1.5-6.3 1-9.6 1.8-12.3 3.1-15.6 11.8-17.4 20.7-.7 3.7-.5 8.4-.1 13.8.5 8.3 1 17.6-1.6 27.3-4.6 16.7-19.9 18.1-22.9 18.2-4.6.2-10-4.4-17.3-14.7-4.9-7-10.3-20.8-14.5-31.9-2.3-6-4.3-11.1-5.9-14.5-4.4-9.1-11.3-19.5-30.2-28.2-3.1-1.4-5.9-2.6-8.3-3.5v1.9c2.2.8 4.7 1.9 7.5 3.2 18.5 8.7 25.3 18.8 29.5 27.6z"/>
</svg>
