<svg xmlns="http://www.w3.org/2000/svg" width="70" height="26.5" viewBox="0 0 70 26.5">
    <path d="M16.9 5.9l-7 16.2a7.88 7.88 0 0 1-2.4 3.4 5.5 5.5 0 0 1-3.4 1 5.37 5.37 0 0 1-2.2-.4 5.23 5.23 0 0 1-1.8-1l1.4-2.6a3.61 3.61 0 0 0 1.2.8 3.56 3.56 0 0 0 1.4.3 2.46 2.46 0 0 0 1.5-.5 4.1 4.1 0 0 0 1.1-1.6l.3-.6-6.7-15H4L8.7 17l4.8-11.1zm12.5 1.4a6.18 6.18 0 0 1 1.8 4.8v8.8h-3.3v-1.8a3.37 3.37 0 0 1-1.8 1.5 8.38 8.38 0 0 1-5.9-.1 5.21 5.21 0 0 1-2-1.6 3.86 3.86 0 0 1-.7-2.3 4.12 4.12 0 0 1 1.5-3.3 7.5 7.5 0 0 1 4.7-1.2h3.9v-.2a3 3 0 0 0-.9-2.4 3.92 3.92 0 0 0-2.8-.8 7.32 7.32 0 0 0-2.5.4 6.92 6.92 0 0 0-2.1 1.1L18 7.5a8.19 8.19 0 0 1 2.8-1.4 13.39 13.39 0 0 1 3.5-.5 7.78 7.78 0 0 1 5.1 1.7zm-3.2 10.6a3.55 3.55 0 0 0 1.5-1.7v-1.7H24c-2 0-3 .7-3 2a1.91 1.91 0 0 0 .8 1.5 3.27 3.27 0 0 0 2.1.6 6.15 6.15 0 0 0 2.3-.7zM44.4 5.7V9h-.8a4.23 4.23 0 0 0-3.2 1.2 4.54 4.54 0 0 0-1.2 3.4v7.3h-3.5v-15H39v2.2q1.5-2.4 5.4-2.4zM61.9 0v20.9h-3.4V19a6 6 0 0 1-2.2 1.6 6.56 6.56 0 0 1-2.8.5 7.51 7.51 0 0 1-3.9-1 6 6 0 0 1-2.7-2.7 7.68 7.68 0 0 1-1-4 7.42 7.42 0 0 1 3.7-6.7 8.69 8.69 0 0 1 3.9-1 7.56 7.56 0 0 1 2.7.5 5.08 5.08 0 0 1 2.1 1.5V0zm-5.6 17.5a4.1 4.1 0 0 0 1.6-1.6 4.84 4.84 0 0 0 .6-2.5 5.07 5.07 0 0 0-.6-2.5 3.54 3.54 0 0 0-1.6-1.6 4.66 4.66 0 0 0-4.6 0 4.1 4.1 0 0 0-1.6 1.6 4.84 4.84 0 0 0-.6 2.5 5.18 5.18 0 0 0 .6 2.5 3.54 3.54 0 0 0 1.6 1.6 4.66 4.66 0 0 0 4.6 0z" fill="#fff"/>
    <path d="M66.1 20.4a2 2 0 0 1-.7-1.7 2 2 0 0 1 .7-1.7 2.25 2.25 0 0 1 1.6-.6 2.11 2.11 0 0 1 1.6.6 2.4 2.4 0 0 1 .7 1.7 2.19 2.19 0 0 1-.7 1.7 2.6 2.6 0 0 1-1.6.7 2 2 0 0 1-1.6-.7z" fill="#ffa467"/>
</svg>
