<svg xmlns="http://www.w3.org/2000/svg" viewBox="0 0 1900 680" width="1900" height="680">
    <path fill="#adb6a2" d="M0 0h1051v650H0z"/>
    <path d="M20 20l9.9 9.9M29.9 20L20 29.9M70 20l9.9 9.9M79.9 20L70 29.9M20 70l9.9 9.9M29.9 70L20 79.9M70 70l9.9 9.9M79.9 70L70 79.9M120 20l9.9 9.9M129.9 20l-9.9 9.9M120 70l9.9 9.9M129.9 70l-9.9 9.9M170 20l9.9 9.9M179.9 20l-9.9 9.9M170 70l9.9 9.9M179.9 70l-9.9 9.9M220 20l9.9 9.9M229.9 20l-9.9 9.9M220 70l9.9 9.9M229.9 70l-9.9 9.9M270 20l9.9 9.9M279.9 20l-9.9 9.9M270 70l9.9 9.9M279.9 70l-9.9 9.9M20 120l9.9 9.9M29.9 120l-9.9 9.9M70 120l9.9 9.9M79.9 120l-9.9 9.9M120 120l9.9 9.9M129.9 120l-9.9 9.9M170 120l9.9 9.9M179.9 120l-9.9 9.9M220 120l9.9 9.9M229.9 120l-9.9 9.9M270 120l9.9 9.9M279.9 120l-9.9 9.9M20 170l9.9 9.9M29.9 170l-9.9 9.9M70 170l9.9 9.9M79.9 170l-9.9 9.9M120 170l9.9 9.9M129.9 170l-9.9 9.9M170 170l9.9 9.9M179.9 170l-9.9 9.9M220 170l9.9 9.9M229.9 170l-9.9 9.9M270 170l9.9 9.9M279.9 170l-9.9 9.9M20 220l9.9 9.9M29.9 220l-9.9 9.9M70 220l9.9 9.9M79.9 220l-9.9 9.9M120 220l9.9 9.9M129.9 220l-9.9 9.9M170 220l9.9 9.9M179.9 220l-9.9 9.9M220 220l9.9 9.9M229.9 220l-9.9 9.9M270 220l9.9 9.9M279.9 220l-9.9 9.9M20 270l9.9 9.9M29.9 270l-9.9 9.9M70 270l9.9 9.9M79.9 270l-9.9 9.9M120 270l9.9 9.9M129.9 270l-9.9 9.9M170 270l9.9 9.9M179.9 270l-9.9 9.9M220 270l9.9 9.9M229.9 270l-9.9 9.9M270 270l9.9 9.9M279.9 270l-9.9 9.9M20 320l9.9 9.9M29.9 320l-9.9 9.9M70 320l9.9 9.9M79.9 320l-9.9 9.9M120 320l9.9 9.9M129.9 320l-9.9 9.9M170 320l9.9 9.9M179.9 320l-9.9 9.9M220 320l9.9 9.9M229.9 320l-9.9 9.9M270 320l9.9 9.9M279.9 320l-9.9 9.9M20 370l9.9 9.9M29.9 370l-9.9 9.9M70 370l9.9 9.9M79.9 370l-9.9 9.9M120 370l9.9 9.9M129.9 370l-9.9 9.9M170 370l9.9 9.9M179.9 370l-9.9 9.9M220 370l9.9 9.9M229.9 370l-9.9 9.9M270 370l9.9 9.9M279.9 370l-9.9 9.9M20 420l9.9 9.9M29.9 420l-9.9 9.9M70 420l9.9 9.9M79.9 420l-9.9 9.9M120 420l9.9 9.9M129.9 420l-9.9 9.9M170 420l9.9 9.9M179.9 420l-9.9 9.9M220 420l9.9 9.9M229.9 420l-9.9 9.9M270 420l9.9 9.9M279.9 420l-9.9 9.9M20 470l9.9 9.9M29.9 470l-9.9 9.9M70 470l9.9 9.9M79.9 470l-9.9 9.9M120 470l9.9 9.9M129.9 470l-9.9 9.9M170 470l9.9 9.9M179.9 470l-9.9 9.9M220 470l9.9 9.9M229.9 470l-9.9 9.9M270 470l9.9 9.9M279.9 470l-9.9 9.9M20 520l9.9 9.9M29.9 520l-9.9 9.9M70 520l9.9 9.9M79.9 520l-9.9 9.9M120 520l9.9 9.9M129.9 520l-9.9 9.9M170 520l9.9 9.9M179.9 520l-9.9 9.9M220 520l9.9 9.9M229.9 520l-9.9 9.9M270 520l9.9 9.9M279.9 520l-9.9 9.9M20 570l9.9 9.9M29.9 570l-9.9 9.9M70 570l9.9 9.9M79.9 570l-9.9 9.9M120 570l9.9 9.9M129.9 570l-9.9 9.9M170 570l9.9 9.9M179.9 570l-9.9 9.9M220 570l9.9 9.9M229.9 570l-9.9 9.9M270 570l9.9 9.9M279.9 570l-9.9 9.9M20 620l9.9 9.9M29.9 620l-9.9 9.9M70 620l9.9 9.9M79.9 620l-9.9 9.9M120 620l9.9 9.9M129.9 620l-9.9 9.9M170 620l9.9 9.9M179.9 620l-9.9 9.9M220 620l9.9 9.9M229.9 620l-9.9 9.9M270 620l9.9 9.9M279.9 620l-9.9 9.9M320.2 20l9.9 9.9M330.1 20l-9.9 9.9M320.2 70l9.9 9.9M330.1 70l-9.9 9.9M370.2 20l9.9 9.9M380.1 20l-9.9 9.9M370.2 70l9.9 9.9M380.1 70l-9.9 9.9M420.2 20l9.9 9.9M430.1 20l-9.9 9.9M420.2 70l9.9 9.9M430.1 70l-9.9 9.9M470.2 20l9.9 9.9M480.1 20l-9.9 9.9M470.2 70l9.9 9.9M480.1 70l-9.9 9.9M520.2 20l9.9 9.9M530.1 20l-9.9 9.9M520.2 70l9.9 9.9M530.1 70l-9.9 9.9M320.2 120l9.9 9.9M330.1 120l-9.9 9.9M370.2 120l9.9 9.9M380.1 120l-9.9 9.9M420.2 120l9.9 9.9M430.1 120l-9.9 9.9M470.2 120l9.9 9.9M480.1 120l-9.9 9.9M520.2 120l9.9 9.9M530.1 120l-9.9 9.9M320.2 170l9.9 9.9M330.1 170l-9.9 9.9M370.2 170l9.9 9.9M380.1 170l-9.9 9.9M420.2 170l9.9 9.9M430.1 170l-9.9 9.9M470.2 170l9.9 9.9M480.1 170l-9.9 9.9M520.2 170l9.9 9.9M530.1 170l-9.9 9.9M320.2 220l9.9 9.9M330.1 220l-9.9 9.9M370.2 220l9.9 9.9M380.1 220l-9.9 9.9M420.2 220l9.9 9.9M430.1 220l-9.9 9.9M470.2 220l9.9 9.9M480.1 220l-9.9 9.9M520.2 220l9.9 9.9M530.1 220l-9.9 9.9M320.2 270l9.9 9.9M330.1 270l-9.9 9.9M370.2 270l9.9 9.9M380.1 270l-9.9 9.9M420.2 270l9.9 9.9M430.1 270l-9.9 9.9M470.2 270l9.9 9.9M480.1 270l-9.9 9.9M520.2 270l9.9 9.9M530.1 270l-9.9 9.9M320.2 320l9.9 9.9M330.1 320l-9.9 9.9M370.2 320l9.9 9.9M380.1 320l-9.9 9.9M420.2 320l9.9 9.9M430.1 320l-9.9 9.9M470.2 320l9.9 9.9M480.1 320l-9.9 9.9M520.2 320l9.9 9.9M530.1 320l-9.9 9.9M320.2 370l9.9 9.9M330.1 370l-9.9 9.9M370.2 370l9.9 9.9M380.1 370l-9.9 9.9M420.2 370l9.9 9.9M430.1 370l-9.9 9.9M470.2 370l9.9 9.9M480.1 370l-9.9 9.9M520.2 370l9.9 9.9M530.1 370l-9.9 9.9M320.2 420l9.9 9.9M330.1 420l-9.9 9.9M370.2 420l9.9 9.9M380.1 420l-9.9 9.9M420.2 420l9.9 9.9M430.1 420l-9.9 9.9M470.2 420l9.9 9.9M480.1 420l-9.9 9.9M520.2 420l9.9 9.9M530.1 420l-9.9 9.9M320.2 470l9.9 9.9M330.1 470l-9.9 9.9M370.2 470l9.9 9.9M380.1 470l-9.9 9.9M420.2 470l9.9 9.9M430.1 470l-9.9 9.9M470.2 470l9.9 9.9M480.1 470l-9.9 9.9M520.2 470l9.9 9.9M530.1 470l-9.9 9.9M320.2 520l9.9 9.9M330.1 520l-9.9 9.9M370.2 520l9.9 9.9M380.1 520l-9.9 9.9M420.2 520l9.9 9.9M430.1 520l-9.9 9.9M470.2 520l9.9 9.9M480.1 520l-9.9 9.9M520.2 520l9.9 9.9M530.1 520l-9.9 9.9M320.2 570l9.9 9.9M330.1 570l-9.9 9.9M370.2 570l9.9 9.9M380.1 570l-9.9 9.9M420.2 570l9.9 9.9M430.1 570l-9.9 9.9M470.2 570l9.9 9.9M480.1 570l-9.9 9.9M520.2 570l9.9 9.9M530.1 570l-9.9 9.9M320.2 620l9.9 9.9M330.1 620l-9.9 9.9M370.2 620l9.9 9.9M380.1 620l-9.9 9.9M420.2 620l9.9 9.9M430.1 620l-9.9 9.9M470.2 620l9.9 9.9M480.1 620l-9.9 9.9M520.2 620l9.9 9.9M530.1 620l-9.9 9.9M570.1 20l9.9 9.9M580 20l-9.9 9.9M570.1 70l9.9 9.9M580 70l-9.9 9.9M620.1 20l9.9 9.9M630 20l-9.9 9.9M620.1 70l9.9 9.9M630 70l-9.9 9.9M670.1 20l9.9 9.9M680 20l-9.9 9.9M670.1 70l9.9 9.9M680 70l-9.9 9.9M720.1 20l9.9 9.9M730 20l-9.9 9.9M720.1 70l9.9 9.9M730 70l-9.9 9.9M770.1 20l9.9 9.9M780 20l-9.9 9.9M770.1 70l9.9 9.9M780 70l-9.9 9.9M570.1 120l9.9 9.9M580 120l-9.9 9.9M620.1 120l9.9 9.9M630 120l-9.9 9.9M670.1 120l9.9 9.9M680 120l-9.9 9.9M720.1 120l9.9 9.9M730 120l-9.9 9.9M770.1 120l9.9 9.9M780 120l-9.9 9.9M570.1 170l9.9 9.9M580 170l-9.9 9.9M620.1 170l9.9 9.9M630 170l-9.9 9.9M670.1 170l9.9 9.9M680 170l-9.9 9.9M720.1 170l9.9 9.9M730 170l-9.9 9.9M770.1 170l9.9 9.9M780 170l-9.9 9.9M570.1 220l9.9 9.9M580 220l-9.9 9.9M620.1 220l9.9 9.9M630 220l-9.9 9.9M670.1 220l9.9 9.9M680 220l-9.9 9.9M720.1 220l9.9 9.9M730 220l-9.9 9.9M770.1 220l9.9 9.9M780 220l-9.9 9.9M570.1 270l9.9 9.9M580 270l-9.9 9.9M620.1 270l9.9 9.9M630 270l-9.9 9.9M670.1 270l9.9 9.9M680 270l-9.9 9.9M720.1 270l9.9 9.9M730 270l-9.9 9.9M770.1 270l9.9 9.9M780 270l-9.9 9.9M570.1 320l9.9 9.9M580 320l-9.9 9.9M620.1 320l9.9 9.9M630 320l-9.9 9.9M670.1 320l9.9 9.9M680 320l-9.9 9.9M720.1 320l9.9 9.9M730 320l-9.9 9.9M770.1 320l9.9 9.9M780 320l-9.9 9.9M570.1 370l9.9 9.9M580 370l-9.9 9.9M620.1 370l9.9 9.9M630 370l-9.9 9.9M670.1 370l9.9 9.9M680 370l-9.9 9.9M720.1 370l9.9 9.9M730 370l-9.9 9.9M770.1 370l9.9 9.9M780 370l-9.9 9.9M570.1 420l9.9 9.9M580 420l-9.9 9.9M620.1 420l9.9 9.9M630 420l-9.9 9.9M670.1 420l9.9 9.9M680 420l-9.9 9.9M720.1 420l9.9 9.9M730 420l-9.9 9.9M770.1 420l9.9 9.9M780 420l-9.9 9.9M570.1 470l9.9 9.9M580 470l-9.9 9.9M620.1 470l9.9 9.9M630 470l-9.9 9.9M670.1 470l9.9 9.9M680 470l-9.9 9.9M720.1 470l9.9 9.9M730 470l-9.9 9.9M770.1 470l9.9 9.9M780 470l-9.9 9.9M570.1 520l9.9 9.9M580 520l-9.9 9.9M620.1 520l9.9 9.9M630 520l-9.9 9.9M670.1 520l9.9 9.9M680 520l-9.9 9.9M720.1 520l9.9 9.9M730 520l-9.9 9.9M770.1 520l9.9 9.9M780 520l-9.9 9.9M570.1 570l9.9 9.9M580 570l-9.9 9.9M620.1 570l9.9 9.9M630 570l-9.9 9.9M670.1 570l9.9 9.9M680 570l-9.9 9.9M720.1 570l9.9 9.9M730 570l-9.9 9.9M770.1 570l9.9 9.9M780 570l-9.9 9.9M570.1 620l9.9 9.9M580 620l-9.9 9.9M620.1 620l9.9 9.9M630 620l-9.9 9.9M670.1 620l9.9 9.9M680 620l-9.9 9.9M720.1 620l9.9 9.9M730 620l-9.9 9.9M770.1 620l9.9 9.9M780 620l-9.9 9.9M820.3 20l9.9 9.9M830.2 20l-9.9 9.9M820.3 70l9.9 9.9M830.2 70l-9.9 9.9M870.3 20l9.9 9.9M880.2 20l-9.9 9.9M870.3 70l9.9 9.9M880.2 70l-9.9 9.9M920.3 20l9.9 9.9M930.2 20l-9.9 9.9M920.3 70l9.9 9.9M930.2 70l-9.9 9.9M970.3 20l9.9 9.9M980.2 20l-9.9 9.9M970.3 70l9.9 9.9M980.2 70l-9.9 9.9M1020.3 20l9.9 9.9M1030.2 20l-9.9 9.9M1020.3 70l9.9 9.9M1030.2 70l-9.9 9.9M820.3 120l9.9 9.9M830.2 120l-9.9 9.9M870.3 120l9.9 9.9M880.2 120l-9.9 9.9M920.3 120l9.9 9.9M930.2 120l-9.9 9.9M970.3 120l9.9 9.9M980.2 120l-9.9 9.9M1020.3 120l9.9 9.9M1030.2 120l-9.9 9.9M820.3 170l9.9 9.9M830.2 170l-9.9 9.9M870.3 170l9.9 9.9M880.2 170l-9.9 9.9M920.3 170l9.9 9.9M930.2 170l-9.9 9.9M970.3 170l9.9 9.9M980.2 170l-9.9 9.9M1020.3 170l9.9 9.9M1030.2 170l-9.9 9.9M820.3 220l9.9 9.9M830.2 220l-9.9 9.9M870.3 220l9.9 9.9M880.2 220l-9.9 9.9M920.3 220l9.9 9.9M930.2 220l-9.9 9.9M970.3 220l9.9 9.9M980.2 220l-9.9 9.9M1020.3 220l9.9 9.9M1030.2 220l-9.9 9.9M820.3 270l9.9 9.9M830.2 270l-9.9 9.9M870.3 270l9.9 9.9M880.2 270l-9.9 9.9M920.3 270l9.9 9.9M930.2 270l-9.9 9.9M970.3 270l9.9 9.9M980.2 270l-9.9 9.9M1020.3 270l9.9 9.9M1030.2 270l-9.9 9.9M820.3 320l9.9 9.9M830.2 320l-9.9 9.9M870.3 320l9.9 9.9M880.2 320l-9.9 9.9M920.3 320l9.9 9.9M930.2 320l-9.9 9.9M970.3 320l9.9 9.9M980.2 320l-9.9 9.9M1020.3 320l9.9 9.9M1030.2 320l-9.9 9.9M820.3 370l9.9 9.9M830.2 370l-9.9 9.9M870.3 370l9.9 9.9M880.2 370l-9.9 9.9M920.3 370l9.9 9.9M930.2 370l-9.9 9.9M970.3 370l9.9 9.9M980.2 370l-9.9 9.9M1020.3 370l9.9 9.9M1030.2 370l-9.9 9.9M820.3 420l9.9 9.9M830.2 420l-9.9 9.9M870.3 420l9.9 9.9M880.2 420l-9.9 9.9M920.3 420l9.9 9.9M930.2 420l-9.9 9.9M970.3 420l9.9 9.9M980.2 420l-9.9 9.9M1020.3 420l9.9 9.9M1030.2 420l-9.9 9.9M820.3 470l9.9 9.9M830.2 470l-9.9 9.9M870.3 470l9.9 9.9M880.2 470l-9.9 9.9M920.3 470l9.9 9.9M930.2 470l-9.9 9.9M970.3 470l9.9 9.9M980.2 470l-9.9 9.9M1020.3 470l9.9 9.9M1030.2 470l-9.9 9.9M820.3 520l9.9 9.9M830.2 520l-9.9 9.9M870.3 520l9.9 9.9M880.2 520l-9.9 9.9M920.3 520l9.9 9.9M930.2 520l-9.9 9.9M970.3 520l9.9 9.9M980.2 520l-9.9 9.9M1020.3 520l9.9 9.9M1030.2 520l-9.9 9.9M820.3 570l9.9 9.9M830.2 570l-9.9 9.9M870.3 570l9.9 9.9M880.2 570l-9.9 9.9M920.3 570l9.9 9.9M930.2 570l-9.9 9.9M970.3 570l9.9 9.9M980.2 570l-9.9 9.9M1020.3 570l9.9 9.9M1030.2 570l-9.9 9.9M820.3 620l9.9 9.9M830.2 620l-9.9 9.9M870.3 620l9.9 9.9M880.2 620l-9.9 9.9M920.3 620l9.9 9.9M930.2 620l-9.9 9.9M970.3 620l9.9 9.9M980.2 620l-9.9 9.9M1020.3 620l9.9 9.9M1030.2 620l-9.9 9.9" fill="none" stroke="#c2c7bb" stroke-linecap="round"/>
</svg>
